<mxfile host="65bd71144e" pages="9">
    <diagram id="LRgDQRACpNqXpRdGKjea" name="Página-9">
        <mxGraphModel dx="770" dy="802" grid="1" gridSize="10" guides="1" tooltips="1" connect="1" arrows="1" fold="1" page="1" pageScale="1" pageWidth="827" pageHeight="1169" math="0" shadow="0">
            <root>
                <mxCell id="0"/>
                <mxCell id="1" parent="0"/>
                <UserObject label="&lt;span style=&quot;font-family: &amp;quot;Aptos Narrow&amp;quot;; font-size: 14.6667px; text-align: left; white-space-collapse: preserve;&quot;&gt;Conclusão de uma portabilidade de credito de um contrato com sucesso&lt;/span&gt;" link="data:page/id,QYyWp--DcOopUtH08DXM" id="Szu-s9U0ucmYQZtBlOGy-1">
                    <mxCell style="rounded=1;whiteSpace=wrap;html=1;fillColor=#7EA6E0;strokeColor=#6c8ebf;labelBackgroundColor=none;align=center;verticalAlign=middle;fontFamily=Helvetica;fontSize=12;fontColor=#FFFFFF;" parent="1" vertex="1">
                        <mxGeometry x="90" y="140" width="450" height="60" as="geometry"/>
                    </mxCell>
                </UserObject>
                <UserObject label="&lt;span style=&quot;font-family: -Apple-System; font-size: 14.6667px; text-align: left; white-space-collapse: preserve;&quot;&gt;&lt;font style=&quot;color: rgb(255, 255, 255);&quot;&gt;Cliente realiza consentimento com finalidade de operação de crédito&lt;/font&gt;&lt;/span&gt;" id="W-Gmm4mSDx-7CqVRvX-t-1">
                    <mxCell style="rounded=1;whiteSpace=wrap;html=1;strokeColor=#6c8ebf;align=center;verticalAlign=middle;fontFamily=Helvetica;fontSize=12;labelBackgroundColor=none;fillColor=#7EA6E0;fontColor=#FFFFFF;" parent="1" vertex="1">
                        <mxGeometry x="200" y="310" width="400" height="60" as="geometry"/>
                    </mxCell>
                </UserObject>
                <UserObject label="&lt;span style=&quot;font-family: &amp;quot;Aptos Narrow&amp;quot;; font-size: 14.6667px; text-align: left; white-space-collapse: preserve;&quot;&gt;Contrato com situação “Portabilidade em andamento“&lt;/span&gt;" link="data:page/id,Xfr9-wdIDGEUw8eThwiq" id="W-Gmm4mSDx-7CqVRvX-t-3">
                    <mxCell style="rounded=1;whiteSpace=wrap;html=1;fillColor=#7EA6E0;strokeColor=#6c8ebf;labelBackgroundColor=none;align=center;verticalAlign=middle;fontFamily=Helvetica;fontSize=12;fontColor=#FFFFFF;" parent="1" vertex="1">
                        <mxGeometry x="200" y="420" width="400" height="60" as="geometry"/>
                    </mxCell>
                </UserObject>
                <UserObject label="&lt;span style=&quot;font-family: &amp;quot;Aptos Narrow&amp;quot;; font-size: 14.6667px; text-align: left; white-space-collapse: preserve;&quot;&gt;Proposta com prazo superior ao contrato original&lt;/span&gt;" link="data:page/id,IIrE53sSL8qvb3i7A8T_" id="W-Gmm4mSDx-7CqVRvX-t-4">
                    <mxCell style="rounded=1;whiteSpace=wrap;html=1;fillColor=#7EA6E0;strokeColor=#6c8ebf;labelBackgroundColor=none;align=center;verticalAlign=middle;fontFamily=Helvetica;fontSize=12;fontColor=#FFFFFF;" parent="1" vertex="1">
                        <mxGeometry x="190" y="530" width="410" height="60" as="geometry"/>
                    </mxCell>
                </UserObject>
                <UserObject label="&lt;span style=&quot;font-family: &amp;quot;Aptos Narrow&amp;quot;; font-size: 14.6667px; text-align: left; white-space-collapse: preserve;&quot;&gt;Cliente não realiza formalização da solicitação de portabilidade&lt;/span&gt;" link="data:page/id,IFRNMcrW1_zLQhuPF3gk" id="W-Gmm4mSDx-7CqVRvX-t-5">
                    <mxCell style="rounded=1;whiteSpace=wrap;html=1;fillColor=#7EA6E0;strokeColor=#6c8ebf;labelBackgroundColor=none;align=center;verticalAlign=middle;fontFamily=Helvetica;fontSize=12;fontColor=#FFFFFF;" parent="1" vertex="1">
                        <mxGeometry x="190" y="620" width="400" height="60" as="geometry"/>
                    </mxCell>
                </UserObject>
                <UserObject label="&lt;span style=&quot;font-family: &amp;quot;Aptos Narrow&amp;quot;; font-size: 14.6667px; text-align: left; white-space-collapse: preserve;&quot;&gt;Cliente aceita contraproposta da Credora no 2˚ dia util&lt;/span&gt;" link="data:page/id,tEny0Z1z8rpMFlqN5hQg" id="W-Gmm4mSDx-7CqVRvX-t-6">
                    <mxCell style="rounded=1;whiteSpace=wrap;html=1;fillColor=#7EA6E0;strokeColor=#6c8ebf;labelBackgroundColor=none;align=center;verticalAlign=middle;fontFamily=Helvetica;fontSize=12;fontColor=#FFFFFF;" parent="1" vertex="1">
                        <mxGeometry x="190" y="710" width="390" height="60" as="geometry"/>
                    </mxCell>
                </UserObject>
                <UserObject label="&lt;span style=&quot;font-family: &amp;quot;Aptos Narrow&amp;quot;; font-size: 14.6667px; font-style: normal; font-variant-ligatures: normal; font-variant-caps: normal; font-weight: 400; letter-spacing: normal; orphans: 2; text-align: left; text-indent: 0px; text-transform: none; widows: 2; word-spacing: 0px; -webkit-text-stroke-width: 0px; white-space: pre-wrap; text-decoration-thickness: initial; text-decoration-style: initial; text-decoration-color: initial; float: none; display: inline !important;&quot;&gt;&lt;font style=&quot;color: rgb(255, 255, 255);&quot;&gt;Cliente realiza cancelamento do pedido de portabilidade&lt;/font&gt;&lt;/span&gt;" link="data:page/id,3tWkQC1Dw021tCHniNMT" id="W-Gmm4mSDx-7CqVRvX-t-7">
                    <mxCell style="rounded=1;whiteSpace=wrap;html=1;fillColor=#7EA6E0;strokeColor=#6c8ebf;labelBackgroundColor=none;align=center;verticalAlign=middle;fontFamily=Helvetica;fontSize=12;fontColor=#FFFFFF;" parent="1" vertex="1">
                        <mxGeometry x="190" y="800" width="400" height="60" as="geometry"/>
                    </mxCell>
                </UserObject>
                <UserObject label="&lt;span style=&quot;font-family: &amp;quot;Aptos Narrow&amp;quot;; font-size: 14.6667px; text-align: left; white-space-collapse: preserve;&quot;&gt;Credora envia notificação de retenção da operação&lt;/span&gt;" link="data:page/id,tKDBnApDiGrMVa_NtqFY" id="W-Gmm4mSDx-7CqVRvX-t-8">
                    <mxCell style="rounded=1;whiteSpace=wrap;html=1;fillColor=#7EA6E0;strokeColor=#6c8ebf;labelBackgroundColor=none;align=center;verticalAlign=middle;fontFamily=Helvetica;fontSize=12;fontColor=#FFFFFF;" parent="1" vertex="1">
                        <mxGeometry x="190" y="900" width="380" height="60" as="geometry"/>
                    </mxCell>
                </UserObject>
                <mxCell id="W-Gmm4mSDx-7CqVRvX-t-9" value="&lt;span style=&quot;font-family: &amp;quot;Aptos Narrow&amp;quot;; font-size: 14.6667px; text-align: left; white-space-collapse: preserve;&quot;&gt;Credora identifica valor divergente do valor esperado&lt;/span&gt;" style="rounded=1;whiteSpace=wrap;html=1;fillColor=#7EA6E0;strokeColor=#6c8ebf;labelBackgroundColor=none;align=center;verticalAlign=middle;fontFamily=Helvetica;fontSize=12;fontColor=#FFFFFF;" parent="1" vertex="1">
                    <mxGeometry x="200" y="1010" width="360" height="60" as="geometry"/>
                </mxCell>
                <mxCell id="W-Gmm4mSDx-7CqVRvX-t-10" value="&lt;span style=&quot;font-family: &amp;quot;Aptos Narrow&amp;quot;; font-size: 14.6667px; text-align: left; white-space-collapse: preserve;&quot;&gt;Cancelamento de pedido de portabilidade com situação da portabilidade igual “PENDING“&lt;/span&gt;" style="rounded=1;whiteSpace=wrap;html=1;fillColor=#7EA6E0;strokeColor=#6c8ebf;labelBackgroundColor=none;align=center;verticalAlign=middle;fontFamily=Helvetica;fontSize=12;fontColor=#FFFFFF;" parent="1" vertex="1">
                    <mxGeometry x="200" y="1120" width="360" height="60" as="geometry"/>
                </mxCell>
                <mxCell id="W-Gmm4mSDx-7CqVRvX-t-11" value="&lt;span style=&quot;font-family: &amp;quot;Aptos Narrow&amp;quot;; font-size: 14.6667px; text-align: left; white-space-collapse: preserve;&quot;&gt;Cancelamento de pedido de portabilidade com situação da portabilidade igual “ACCEPTED_SETTLEMENT_COMPLETED“&lt;/span&gt;" style="rounded=1;whiteSpace=wrap;html=1;fillColor=#7EA6E0;strokeColor=#6c8ebf;labelBackgroundColor=none;align=center;verticalAlign=middle;fontFamily=Helvetica;fontSize=12;fontColor=#FFFFFF;" parent="1" vertex="1">
                    <mxGeometry x="210" y="1220" width="350" height="60" as="geometry"/>
                </mxCell>
            </root>
        </mxGraphModel>
    </diagram>
    <diagram name="conclusão portabilidade de credito com sucesso" id="QYyWp--DcOopUtH08DXM">
        <mxGraphModel grid="1" page="1" gridSize="10" guides="1" tooltips="1" connect="1" arrows="1" fold="1" pageScale="1" pageWidth="827" pageHeight="1169" math="0" shadow="0">
            <root>
                <mxCell id="0"/>
                <mxCell id="1" parent="0"/>
                <mxCell id="7lT6JZg3I8WIOfs7pYNR-4" value="" style="shape=image;verticalLabelPosition=bottom;labelBackgroundColor=default;verticalAlign=top;aspect=fixed;imageAspect=0;editableCssRules=.*;image=data:image/svg+xml,PHN2ZyB4bWxuczp4bGluaz0iaHR0cDovL3d3dy53My5vcmcvMTk5OS94bGluayIgeG1sbnM9Imh0dHA6Ly93d3cudzMub3JnLzIwMDAvc3ZnIiB6b29tQW5kUGFuPSJtYWduaWZ5IiB3aWR0aD0iMTE3OS41NzI4MDc5OTMxNzgiIHZpZXdCb3g9IjIwLjgzMzI5OTYzNjg0MDgyIDIwLjgzMzI5OTYzNjg0MDgyIDExNzguNjg4NTk4NjMyODEyNSAxOTQyLjg3MTIxNTgyMDMxMjUiIHZlcnNpb249IjEuMSIgc3R5bGU9IndpZHRoOjEyMjJweDtoZWlnaHQ6MTk4MXB4OyIgcHJlc2VydmVBc3BlY3RSYXRpbz0ibm9uZSIgaGVpZ2h0PSIxOTQzLjExNjQwNDAxMDA5MyIgZGF0YS1kaWFncmFtLXR5cGU9IlNFUVVFTkNFIj48dGl0bGU+RG8gaW5pY2lvIGF0w6kgbyBmaW0gZGEgam9ybmFkYSBkZSBwb3J0YWJpbGlkYWRlIGRlIGNyw6lkaXRvIGNvbSB1bSBjb250cmF0byBwb3J0YWRvIGNvbSBzdWNlc3NvLjwvdGl0bGU+PGRlZnM+PGxpbmVhckdyYWRpZW50IHkyPSIxMDAlIiB5MT0iMCUiIHgyPSI1MCUiIHgxPSI1MCUiIGlkPSJnamV4cjVocjB4dDkyMCI+PHN0b3Agc3RvcC1jb2xvcj0iI0ZGRkZGRiIgb2Zmc2V0PSIwJSIvPjxzdG9wIHN0b3AtY29sb3I9IiNGRkZGRkYiIG9mZnNldD0iMTAwJSIvPjwvbGluZWFyR3JhZGllbnQ+PGZpbHRlciB5PSItMSIgeD0iLTEiIHdpZHRoPSIzMDAlIiBpZD0iZmpleHI1aHIweHQ5MiIgaGVpZ2h0PSIzMDAlIj48ZmVHYXVzc2lhbkJsdXIgc3RkRGV2aWF0aW9uPSIyLjA4MzMiIHJlc3VsdD0iYmx1ck91dCIvPjxmZUNvbG9yTWF0cml4IHZhbHVlcz0iMCAwIDAgMCAwIDAgMCAwIDAgMCAwIDAgMCAwIDAgMCAwIDAgLjQgMCIgdHlwZT0ibWF0cml4IiByZXN1bHQ9ImJsdXJPdXQyIiBpbj0iYmx1ck91dCIvPjxmZU9mZnNldCByZXN1bHQ9ImJsdXJPdXQzIiBpbj0iYmx1ck91dDIiIGR5PSI0LjE2NjciIGR4PSI0LjE2NjciLz48ZmVCbGVuZCBtb2RlPSJub3JtYWwiIGluMj0iYmx1ck91dDMiIGluPSJTb3VyY2VHcmFwaGljIi8+PC9maWx0ZXI+PGxpbmVhckdyYWRpZW50IHkyPSIxMDAlIiB5MT0iMCUiIHgyPSI1MCUiIHgxPSI1MCUiIGlkPSJnamV4cjVocjB4dDkyMSI+PHN0b3Agc3RvcC1jb2xvcj0iIzREQUJGNSIgb2Zmc2V0PSIwJSIvPjxzdG9wIHN0b3AtY29sb3I9IiMyMTk2RjMiIG9mZnNldD0iMTAwJSIvPjwvbGluZWFyR3JhZGllbnQ+PC9kZWZzPjxnPjxyZWN0IHk9IjIwLjgzMzMiIHg9IjIwLjgzMzMiIHdpZHRoPSIxMTc4LjY4ODYiIHN0eWxlPSJzdHJva2U6I0NDQ0NDQztzdHJva2Utd2lkdGg6MS4wNDE3OyIgcnk9IjQuMTY2NyIgcng9IjQuMTY2NyIgaGVpZ2h0PSI1Ny41ODQ2IiBmaWxsPSJ1cmwoI2dqZXhyNWhyMHh0OTIwKSIvPjx0ZXh0IHk9IjU2LjgzOCIgeD0iMzcuNSIgdGV4dExlbmd0aD0iMTE0NS4zNTUyIiBsZW5ndGhBZGp1c3Q9InNwYWNpbmciIGZvbnQtd2VpZ2h0PSJib2xkIiBmb250LXNpemU9IjIwLjgzMzMiIGZvbnQtZmFtaWx5PSJWZXJkYW5hIiBmaWxsPSIjMjE5NkYzIj5EbyBpbmljaW8gYXTDqSBvIGZpbSBkYSBqb3JuYWRhIGRlIHBvcnRhYmlsaWRhZGUgZGUgY3LDqWRpdG8gY29tIHVtIGNvbnRyYXRvIHBvcnRhZG8gY29tIHN1Y2Vzc28uPC90ZXh0PjxyZWN0IHk9IjQ4OC42MDY4IiB4PSIxNzIuOTAyNCIgd2lkdGg9Ijg3NS41OTIiIHN0eWxlPSJzdHJva2U6IzIxOTZGMztzdHJva2Utd2lkdGg6MS4wNDE3OyIgcnk9IjQuMTY2NyIgcng9IjQuMTY2NyIgaGVpZ2h0PSIyMjAuNjcwNiIgZmlsdGVyPSJ1cmwoI2ZqZXhyNWhyMHh0OTIpIiBmaWxsPSJ1cmwoI2dqZXhyNWhyMHh0OTIwKSIvPjxyZWN0IHk9Ijk1MC44MTM4IiB4PSIxNzIuOTAyNCIgd2lkdGg9Ijg3NS41OTIiIHN0eWxlPSJzdHJva2U6IzIxOTZGMztzdHJva2Utd2lkdGg6MS4wNDE3OyIgcnk9IjQuMTY2NyIgcng9IjQuMTY2NyIgaGVpZ2h0PSIyMjAuNjcwNiIgZmlsdGVyPSJ1cmwoI2ZqZXhyNWhyMHh0OTIpIiBmaWxsPSJ1cmwoI2dqZXhyNWhyMHh0OTIwKSIvPjxyZWN0IHk9IjE2NzYuMzk5NyIgeD0iMTcyLjkwMjQiIHdpZHRoPSI4NzUuNTkyIiBzdHlsZT0ic3Ryb2tlOiMyMTk2RjM7c3Ryb2tlLXdpZHRoOjEuMDQxNzsiIHJ5PSI0LjE2NjciIHJ4PSI0LjE2NjciIGhlaWdodD0iMjIwLjY3MDYiIGZpbHRlcj0idXJsKCNmamV4cjVocjB4dDkyKSIgZmlsbD0idXJsKCNnamV4cjVocjB4dDkyMCkiLz48Zz48dGl0bGU+TW90b3JDb25mb3JtaWRhZGU8L3RpdGxlPjxyZWN0IHk9IjE0NC4wMTA0IiB4PSIzMDIuMzI3NSIgd2lkdGg9IjguMzMzMyIgaGVpZ2h0PSIxNzcwLjc2ODIiIGZpbGwtb3BhY2l0eT0iMC4wMDAwMCIgZmlsbD0iIzAwMDAwMCIvPjxsaW5lIHkyPSIxOTE0Ljc3ODYiIHkxPSIxNDQuMDEwNCIgeDI9IjMwNi4yMzU4IiB4MT0iMzA2LjIzNTgiIHN0eWxlPSJzdHJva2U6I0NDQ0NDQztzdHJva2Utd2lkdGg6MS4wNDE3O3N0cm9rZS1kYXNoYXJyYXk6NS4wLDUuMDsiLz48L2c+PGc+PHRpdGxlPkNyZWRvcmE8L3RpdGxlPjxyZWN0IHk9IjE0NC4wMTA0IiB4PSI5NDguMDA0MiIgd2lkdGg9IjguMzMzMyIgaGVpZ2h0PSIxNzcwLjc2ODIiIGZpbGwtb3BhY2l0eT0iMC4wMDAwMCIgZmlsbD0iIzAwMDAwMCIvPjxsaW5lIHkyPSIxOTE0Ljc3ODYiIHkxPSIxNDQuMDEwNCIgeDI9Ijk1MS42ODA1IiB4MT0iOTUxLjY4MDUiIHN0eWxlPSJzdHJva2U6I0NDQ0NDQztzdHJva2Utd2lkdGg6MS4wNDE3O3N0cm9rZS1kYXNoYXJyYXk6NS4wLDUuMDsiLz48L2c+PGcgZGF0YS1wYXJ0aWNpcGFudD0iTW90b3JDb25mb3JtaWRhZGUiIGNsYXNzPSJwYXJ0aWNpcGFudCBwYXJ0aWNpcGFudC1oZWFkIj48cmVjdCB5PSI4OS44NzYzIiB4PSIyMjQuOTg1OCIgd2lkdGg9IjE1OS44OTE4IiBzdHlsZT0ic3Ryb2tlOiMyMTk2RjM7c3Ryb2tlLXdpZHRoOjEuMDQxNzsiIHJ5PSI0LjE2NjciIHJ4PSI0LjE2NjciIGhlaWdodD0iNDkuOTY3NCIgZmlsdGVyPSJ1cmwoI2ZqZXhyNWhyMHh0OTIpIiBmaWxsPSJ1cmwoI2dqZXhyNWhyMHh0OTIxKSIvPjx0ZXh0IHk9IjExOS4xODc0IiB4PSIyNDIuNjk0MSIgdGV4dExlbmd0aD0iMTI0LjQ3NTEiIGxlbmd0aEFkanVzdD0ic3BhY2luZyIgZm9udC1zaXplPSIxMi41IiBmb250LWZhbWlseT0iVmVyZGFuYSIgZmlsbD0iI0ZGRkZGRiI+TW90b3JDb25mb3JtaWRhZGU8L3RleHQ+PC9nPjxnIGRhdGEtcGFydGljaXBhbnQ9Ik1vdG9yQ29uZm9ybWlkYWRlIiBjbGFzcz0icGFydGljaXBhbnQgcGFydGljaXBhbnQtdGFpbCI+PHJlY3QgeT0iMTkxMy43MzciIHg9IjIyNC45ODU4IiB3aWR0aD0iMTU5Ljg5MTgiIHN0eWxlPSJzdHJva2U6IzIxOTZGMztzdHJva2Utd2lkdGg6MS4wNDE3OyIgcnk9IjQuMTY2NyIgcng9IjQuMTY2NyIgaGVpZ2h0PSI0OS45Njc0IiBmaWx0ZXI9InVybCgjZmpleHI1aHIweHQ5MikiIGZpbGw9InVybCgjZ2pleHI1aHIweHQ5MjEpIi8+PHRleHQgeT0iMTk0My4wNDgxIiB4PSIyNDIuNjk0MSIgdGV4dExlbmd0aD0iMTI0LjQ3NTEiIGxlbmd0aEFkanVzdD0ic3BhY2luZyIgZm9udC1zaXplPSIxMi41IiBmb250LWZhbWlseT0iVmVyZGFuYSIgZmlsbD0iI0ZGRkZGRiI+TW90b3JDb25mb3JtaWRhZGU8L3RleHQ+PC9nPjxnIGRhdGEtcGFydGljaXBhbnQ9IkNyZWRvcmEiIGNsYXNzPSJwYXJ0aWNpcGFudCBwYXJ0aWNpcGFudC1oZWFkIj48cmVjdCB5PSI4OS44NzYzIiB4PSI5MDcuOTMwNSIgd2lkdGg9Ijg1LjM1NTYiIHN0eWxlPSJzdHJva2U6IzIxOTZGMztzdHJva2Utd2lkdGg6MS4wNDE3OyIgcnk9IjQuMTY2NyIgcng9IjQuMTY2NyIgaGVpZ2h0PSI0OS45Njc0IiBmaWx0ZXI9InVybCgjZmpleHI1aHIweHQ5MikiIGZpbGw9InVybCgjZ2pleHI1aHIweHQ5MjEpIi8+PHRleHQgeT0iMTE5LjE4NzQiIHg9IjkyNS42Mzg4IiB0ZXh0TGVuZ3RoPSI0OS45MzkiIGxlbmd0aEFkanVzdD0ic3BhY2luZyIgZm9udC1zaXplPSIxMi41IiBmb250LWZhbWlseT0iVmVyZGFuYSIgZmlsbD0iI0ZGRkZGRiI+Q3JlZG9yYTwvdGV4dD48L2c+PGcgZGF0YS1wYXJ0aWNpcGFudD0iQ3JlZG9yYSIgY2xhc3M9InBhcnRpY2lwYW50IHBhcnRpY2lwYW50LXRhaWwiPjxyZWN0IHk9IjE5MTMuNzM3IiB4PSI5MDcuOTMwNSIgd2lkdGg9Ijg1LjM1NTYiIHN0eWxlPSJzdHJva2U6IzIxOTZGMztzdHJva2Utd2lkdGg6MS4wNDE3OyIgcnk9IjQuMTY2NyIgcng9IjQuMTY2NyIgaGVpZ2h0PSI0OS45Njc0IiBmaWx0ZXI9InVybCgjZmpleHI1aHIweHQ5MikiIGZpbGw9InVybCgjZ2pleHI1aHIweHQ5MjEpIi8+PHRleHQgeT0iMTk0My4wNDgxIiB4PSI5MjUuNjM4OCIgdGV4dExlbmd0aD0iNDkuOTM5IiBsZW5ndGhBZGp1c3Q9InNwYWNpbmciIGZvbnQtc2l6ZT0iMTIuNSIgZm9udC1mYW1pbHk9IlZlcmRhbmEiIGZpbGw9IiNGRkZGRkYiPkNyZWRvcmE8L3RleHQ+PC9nPjxnIGRhdGEtcGFydGljaXBhbnQtMj0iQ3JlZG9yYSIgZGF0YS1wYXJ0aWNpcGFudC0xPSJNb3RvckNvbmZvcm1pZGFkZSIgY2xhc3M9Im1lc3NhZ2UiPjxwb2x5Z29uIHN0eWxlPSJzdHJva2U6IzIxOTZGMztzdHJva2Utd2lkdGg6MS4wNDE3OyIgcG9pbnRzPSI5MzkuNjcwOCwxOTEuODk0NSw5NTAuMDg3NSwxOTYuMDYxMiw5MzkuNjcwOCwyMDAuMjI3OSw5NDMuODM3NSwxOTYuMDYxMiIgZmlsbD0iIzIxOTZGMyIvPjxsaW5lIHkyPSIxOTYuMDYxMiIgeTE9IjE5Ni4wNjEyIiB4Mj0iOTQ1LjkyMDgiIHgxPSIzMDYuNDk0MSIgc3R5bGU9InN0cm9rZTojMjE5NkYzO3N0cm9rZS13aWR0aDozLjEyNTsiLz48dGV4dCB5PSIxODAuNjEzMiIgeD0iMzI0LjIwMjUiIHRleHRMZW5ndGg9IjE3MC41OTMzIiBsZW5ndGhBZGp1c3Q9InNwYWNpbmciIGZvbnQtc2l6ZT0iMTIuNSIgZm9udC1mYW1pbHk9IlZlcmRhbmEiIGZpbGw9IiMyMjIyMjIiPkdFVCAvY29uc2VudHMve2NvbnNlbnRJZH08L3RleHQ+PC9nPjxnIGRhdGEtcGFydGljaXBhbnQtMj0iTW90b3JDb25mb3JtaWRhZGUiIGRhdGEtcGFydGljaXBhbnQtMT0iQ3JlZG9yYSIgY2xhc3M9Im1lc3NhZ2UiPjxwb2x5Z29uIHN0eWxlPSJzdHJva2U6IzIxOTZGMztzdHJva2Utd2lkdGg6MS4wNDE3OyIgcG9pbnRzPSIzMTcuOTUyNSwyNDEuODYyLDMwNy41MzU4LDI0Ni4wMjg2LDMxNy45NTI1LDI1MC4xOTUzLDMxMy43ODU4LDI0Ni4wMjg2IiBmaWxsPSIjMjE5NkYzIi8+PGxpbmUgeTI9IjI0Ni4wMjg2IiB5MT0iMjQ2LjAyODYiIHgyPSI5NTEuMTI5MiIgeDE9IjMxMS43MDI1IiBzdHlsZT0ic3Ryb2tlOiMyMTk2RjM7c3Ryb2tlLXdpZHRoOjMuMTI1OyIvPjx0ZXh0IHk9IjIzMC41ODA2IiB4PSIzMzQuNjE5MSIgdGV4dExlbmd0aD0iMjMuODU4NiIgbGVuZ3RoQWRqdXN0PSJzcGFjaW5nIiBmb250LXNpemU9IjEyLjUiIGZvbnQtZmFtaWx5PSJWZXJkYW5hIiBmaWxsPSIjMjIyMjIyIj4yMDA8L3RleHQ+PC9nPjxnIGRhdGEtcGFydGljaXBhbnQtMj0iTW90b3JDb25mb3JtaWRhZGUiIGRhdGEtcGFydGljaXBhbnQtMT0iTW90b3JDb25mb3JtaWRhZGUiIGNsYXNzPSJtZXNzYWdlIj48bGluZSB5Mj0iMjk1Ljk5NjEiIHkxPSIyOTUuOTk2MSIgeDI9IjM1MC4yNDQxIiB4MT0iMzA2LjQ5NDEiIHN0eWxlPSJzdHJva2U6IzIxOTZGMztzdHJva2Utd2lkdGg6My4xMjU7Ii8+PGxpbmUgeTI9IjMwOS41Mzc4IiB5MT0iMjk1Ljk5NjEiIHgyPSIzNTAuMjQ0MSIgeDE9IjM1MC4yNDQxIiBzdHlsZT0ic3Ryb2tlOiMyMTk2RjM7c3Ryb2tlLXdpZHRoOjMuMTI1OyIvPjxsaW5lIHkyPSIzMDkuNTM3OCIgeTE9IjMwOS41Mzc4IiB4Mj0iMzUwLjI0NDEiIHgxPSIzMDcuNTM1OCIgc3R5bGU9InN0cm9rZTojMjE5NkYzO3N0cm9rZS13aWR0aDozLjEyNTsiLz48cG9seWdvbiBzdHlsZT0ic3Ryb2tlOiMyMTk2RjM7c3Ryb2tlLXdpZHRoOjEuMDQxNzsiIHBvaW50cz0iMzE3Ljk1MjUsMzA1LjM3MTEsMzA3LjUzNTgsMzA5LjUzNzgsMzE3Ljk1MjUsMzEzLjcwNDQsMzEzLjc4NTgsMzA5LjUzNzgiIGZpbGw9IiMyMTk2RjMiLz48dGV4dCB5PSIyODAuNTQ4MSIgeD0iMzI0LjIwMjUiIHRleHRMZW5ndGg9IjQxMi45ODIyIiBsZW5ndGhBZGp1c3Q9InNwYWNpbmciIGZvbnQtc2l6ZT0iMTIuNSIgZm9udC1mYW1pbHk9IlZlcmRhbmEiIGZpbGw9IiMyMjIyMjIiPlZhbGlkYSBzZSBvIG9iamV0byBwZXJtaXNzaW9ucyBwb3NzdWkgYSBwZXJtaXNzaW9ucyBMT0FOU19SRUFEPC90ZXh0PjwvZz48ZyBkYXRhLXBhcnRpY2lwYW50LTI9IkNyZWRvcmEiIGRhdGEtcGFydGljaXBhbnQtMT0iTW90b3JDb25mb3JtaWRhZGUiIGNsYXNzPSJtZXNzYWdlIj48cG9seWdvbiBzdHlsZT0ic3Ryb2tlOiMyMTk2RjM7c3Ryb2tlLXdpZHRoOjEuMDQxNzsiIHBvaW50cz0iOTM5LjY3MDgsMzU1LjMzODUsOTUwLjA4NzUsMzU5LjUwNTIsOTM5LjY3MDgsMzYzLjY3MTksOTQzLjgzNzUsMzU5LjUwNTIiIGZpbGw9IiMyMTk2RjMiLz48bGluZSB5Mj0iMzU5LjUwNTIiIHkxPSIzNTkuNTA1MiIgeDI9Ijk0NS45MjA4IiB4MT0iMzA2LjQ5NDEiIHN0eWxlPSJzdHJva2U6IzIxOTZGMztzdHJva2Utd2lkdGg6My4xMjU7Ii8+PHRleHQgeT0iMzQ0LjA1NzIiIHg9IjMyNC4yMDI1IiB0ZXh0TGVuZ3RoPSIxODIuODY3NCIgbGVuZ3RoQWRqdXN0PSJzcGFjaW5nIiBmb250LXNpemU9IjEyLjUiIGZvbnQtZmFtaWx5PSJWZXJkYW5hIiBmaWxsPSIjMjIyMjIyIj5HRVQgTG9hbnMgQ29udHJhY3RzIEFQSSAtIFYyPC90ZXh0PjwvZz48ZyBkYXRhLXBhcnRpY2lwYW50LTI9Ik1vdG9yQ29uZm9ybWlkYWRlIiBkYXRhLXBhcnRpY2lwYW50LTE9IkNyZWRvcmEiIGNsYXNzPSJtZXNzYWdlIj48cG9seWdvbiBzdHlsZT0ic3Ryb2tlOiMyMTk2RjM7c3Ryb2tlLXdpZHRoOjEuMDQxNzsiIHBvaW50cz0iMzE3Ljk1MjUsNDA1LjMwNiwzMDcuNTM1OCw0MDkuNDcyNywzMTcuOTUyNSw0MTMuNjM5MywzMTMuNzg1OCw0MDkuNDcyNyIgZmlsbD0iIzIxOTZGMyIvPjxsaW5lIHkyPSI0MDkuNDcyNyIgeTE9IjQwOS40NzI3IiB4Mj0iOTUxLjEyOTIiIHgxPSIzMTEuNzAyNSIgc3R5bGU9InN0cm9rZTojMjE5NkYzO3N0cm9rZS13aWR0aDozLjEyNTsiLz48dGV4dCB5PSIzOTQuMDI0NyIgeD0iMzM0LjYxOTEiIHRleHRMZW5ndGg9IjIzLjg1ODYiIGxlbmd0aEFkanVzdD0ic3BhY2luZyIgZm9udC1zaXplPSIxMi41IiBmb250LWZhbWlseT0iVmVyZGFuYSIgZmlsbD0iIzIyMjIyMiI+MjAwPC90ZXh0PjwvZz48ZyBkYXRhLXBhcnRpY2lwYW50LTI9Ik1vdG9yQ29uZm9ybWlkYWRlIiBkYXRhLXBhcnRpY2lwYW50LTE9Ik1vdG9yQ29uZm9ybWlkYWRlIiBjbGFzcz0ibWVzc2FnZSI+PGxpbmUgeTI9IjQ1OS40NDAxIiB5MT0iNDU5LjQ0MDEiIHgyPSIzNTAuMjQ0MSIgeDE9IjMwNi40OTQxIiBzdHlsZT0ic3Ryb2tlOiMyMTk2RjM7c3Ryb2tlLXdpZHRoOjMuMTI1OyIvPjxsaW5lIHkyPSI0NzIuOTgxOCIgeTE9IjQ1OS40NDAxIiB4Mj0iMzUwLjI0NDEiIHgxPSIzNTAuMjQ0MSIgc3R5bGU9InN0cm9rZTojMjE5NkYzO3N0cm9rZS13aWR0aDozLjEyNTsiLz48bGluZSB5Mj0iNDcyLjk4MTgiIHkxPSI0NzIuOTgxOCIgeDI9IjM1MC4yNDQxIiB4MT0iMzA3LjUzNTgiIHN0eWxlPSJzdHJva2U6IzIxOTZGMztzdHJva2Utd2lkdGg6My4xMjU7Ii8+PHBvbHlnb24gc3R5bGU9InN0cm9rZTojMjE5NkYzO3N0cm9rZS13aWR0aDoxLjA0MTc7IiBwb2ludHM9IjMxNy45NTI1LDQ2OC44MTUxLDMwNy41MzU4LDQ3Mi45ODE4LDMxNy45NTI1LDQ3Ny4xNDg0LDMxMy43ODU4LDQ3Mi45ODE4IiBmaWxsPSIjMjE5NkYzIi8+PHRleHQgeT0iNDQzLjk5MjEiIHg9IjMyNC4yMDI1IiB0ZXh0TGVuZ3RoPSIyODYuMzIyIiBsZW5ndGhBZGp1c3Q9InNwYWNpbmciIGZvbnQtc2l6ZT0iMTIuNSIgZm9udC1mYW1pbHk9IlZlcmRhbmEiIGZpbGw9IiMyMjIyMjIiPlZhbGlkYSByZXRvcm5vIGRlIGFjb3JkbyBjb20gYSBlc3BlY2lmaWNhw6fDo288L3RleHQ+PC9nPjxwYXRoIHN0eWxlPSJzdHJva2U6IzY2NjY2NjtzdHJva2Utd2lkdGg6MS4wNDE3OyIgZmlsbD0iI0ZGRkZGRiIgZD0iTTE3Ny4wNjkxLDQ4OC42MDY4IEwyNzEuMDE4NSw0ODguNjA2OCBMMjcxLjAxODUsNTE1LjY1NzYgTDI2MC42MDE4LDUyNi4wNzQyIEwxNzIuOTAyNCw1MjYuMDc0MiBMMTcyLjkwMjQsNDkyLjc3MzQgQTQuMTY2Nyw0LjE2NjcgMCAwIDEgMTc3LjA2OTEsNDg4LjYwNjgiLz48cmVjdCB5PSI0ODguNjA2OCIgeD0iMTcyLjkwMjQiIHdpZHRoPSI4NzUuNTkyIiBzdHlsZT0ic3Ryb2tlOiMyMTk2RjM7c3Ryb2tlLXdpZHRoOjEuMDQxNzsiIHJ5PSI0LjE2NjciIHJ4PSI0LjE2NjciIGhlaWdodD0iMjIwLjY3MDYiIGZpbGw9Im5vbmUiLz48dGV4dCB5PSI1MTEuNjY3OSIgeD0iMTk4Ljk0NDEiIHRleHRMZW5ndGg9IjMwLjQwNzciIGxlbmd0aEFkanVzdD0ic3BhY2luZyIgZm9udC13ZWlnaHQ9ImJvbGQiIGZvbnQtc2l6ZT0iMTIuNSIgZm9udC1mYW1pbHk9IlZlcmRhbmEiIGZpbGw9IiM5QzI3QjAiPmxvb3A8L3RleHQ+PHRleHQgeT0iNTEyLjcwOTYiIHg9IjI5Ny4wNjAxIiB0ZXh0TGVuZ3RoPSIzMTkuODA1OSIgbGVuZ3RoQWRqdXN0PSJzcGFjaW5nIiBmb250LXdlaWdodD0iYm9sZCIgZm9udC1zaXplPSIxMi41IiBmb250LWZhbWlseT0iVmVyZGFuYSIgZmlsbD0iIzIyMjIyMiI+W1BhcmEgY2FkYSBjb250cmF0byBkbyB0aXBvIENQQyBpZGVudGlmaWNhZG9dPC90ZXh0PjxnIGRhdGEtcGFydGljaXBhbnQtMj0iQ3JlZG9yYSIgZGF0YS1wYXJ0aWNpcGFudC0xPSJNb3RvckNvbmZvcm1pZGFkZSIgY2xhc3M9Im1lc3NhZ2UiPjxwb2x5Z29uIHN0eWxlPSJzdHJva2U6IzIxOTZGMztzdHJva2Utd2lkdGg6MS4wNDE3OyIgcG9pbnRzPSI5MzkuNjcwOCw1ODMuMzAwOCw5NTAuMDg3NSw1ODcuNDY3NCw5MzkuNjcwOCw1OTEuNjM0MSw5NDMuODM3NSw1ODcuNDY3NCIgZmlsbD0iIzIxOTZGMyIvPjxsaW5lIHkyPSI1ODcuNDY3NCIgeTE9IjU4Ny40Njc0IiB4Mj0iOTQ1LjkyMDgiIHgxPSIzMDYuNDk0MSIgc3R5bGU9InN0cm9rZTojMjE5NkYzO3N0cm9rZS13aWR0aDozLjEyNTsiLz48dGV4dCB5PSI1NzIuMDE5NCIgeD0iMzI0LjIwMjUiIHRleHRMZW5ndGg9IjE4OS42NzkiIGxlbmd0aEFkanVzdD0ic3BhY2luZyIgZm9udC1zaXplPSIxMi41IiBmb250LWZhbWlseT0iVmVyZGFuYSIgZmlsbD0iIzIyMjIyMiI+R0VUIC9jb25jdXJyZW50LW1hbmFnZW1lbnQ8L3RleHQ+PC9nPjxnIGRhdGEtcGFydGljaXBhbnQtMj0iTW90b3JDb25mb3JtaWRhZGUiIGRhdGEtcGFydGljaXBhbnQtMT0iQ3JlZG9yYSIgY2xhc3M9Im1lc3NhZ2UiPjxwb2x5Z29uIHN0eWxlPSJzdHJva2U6IzIxOTZGMztzdHJva2Utd2lkdGg6MS4wNDE3OyIgcG9pbnRzPSIzMTcuOTUyNSw2MzMuMjY4MiwzMDcuNTM1OCw2MzcuNDM0OSwzMTcuOTUyNSw2NDEuNjAxNiwzMTMuNzg1OCw2MzcuNDM0OSIgZmlsbD0iIzIxOTZGMyIvPjxsaW5lIHkyPSI2MzcuNDM0OSIgeTE9IjYzNy40MzQ5IiB4Mj0iOTUxLjEyOTIiIHgxPSIzMTEuNzAyNSIgc3R5bGU9InN0cm9rZTojMjE5NkYzO3N0cm9rZS13aWR0aDozLjEyNTsiLz48dGV4dCB5PSI2MjEuOTg2OSIgeD0iMzM0LjYxOTEiIHRleHRMZW5ndGg9IjIzLjg1ODYiIGxlbmd0aEFkanVzdD0ic3BhY2luZyIgZm9udC1zaXplPSIxMi41IiBmb250LWZhbWlseT0iVmVyZGFuYSIgZmlsbD0iIzIyMjIyMiI+MjAwPC90ZXh0PjwvZz48ZyBkYXRhLXBhcnRpY2lwYW50LTI9Ik1vdG9yQ29uZm9ybWlkYWRlIiBkYXRhLXBhcnRpY2lwYW50LTE9Ik1vdG9yQ29uZm9ybWlkYWRlIiBjbGFzcz0ibWVzc2FnZSI+PGxpbmUgeTI9IjY4Ny40MDIzIiB5MT0iNjg3LjQwMjMiIHgyPSIzNTAuMjQ0MSIgeDE9IjMwNi40OTQxIiBzdHlsZT0ic3Ryb2tlOiMyMTk2RjM7c3Ryb2tlLXdpZHRoOjMuMTI1OyIvPjxsaW5lIHkyPSI3MDAuOTQ0IiB5MT0iNjg3LjQwMjMiIHgyPSIzNTAuMjQ0MSIgeDE9IjM1MC4yNDQxIiBzdHlsZT0ic3Ryb2tlOiMyMTk2RjM7c3Ryb2tlLXdpZHRoOjMuMTI1OyIvPjxsaW5lIHkyPSI3MDAuOTQ0IiB5MT0iNzAwLjk0NCIgeDI9IjM1MC4yNDQxIiB4MT0iMzA3LjUzNTgiIHN0eWxlPSJzdHJva2U6IzIxOTZGMztzdHJva2Utd2lkdGg6My4xMjU7Ii8+PHBvbHlnb24gc3R5bGU9InN0cm9rZTojMjE5NkYzO3N0cm9rZS13aWR0aDoxLjA0MTc7IiBwb2ludHM9IjMxNy45NTI1LDY5Ni43NzczLDMwNy41MzU4LDcwMC45NDQsMzE3Ljk1MjUsNzA1LjExMDcsMzEzLjc4NTgsNzAwLjk0NCIgZmlsbD0iIzIxOTZGMyIvPjx0ZXh0IHk9IjY3MS45NTQzIiB4PSIzMjQuMjAyNSIgdGV4dExlbmd0aD0iMjk0LjgzMDMiIGxlbmd0aEFkanVzdD0ic3BhY2luZyIgZm9udC1zaXplPSIxMi41IiBmb250LWZhbWlseT0iVmVyZGFuYSIgZmlsbD0iIzIyMjIyMiI+VmVyaWZpY2EgcmV0b3JubyBkZSBhY29yZG8gY29tIGEgZXNwZWNpZmljYcOnw6NvPC90ZXh0PjwvZz48ZyBkYXRhLXBhcnRpY2lwYW50LTI9Ik1vdG9yQ29uZm9ybWlkYWRlIiBkYXRhLXBhcnRpY2lwYW50LTE9Ik1vdG9yQ29uZm9ybWlkYWRlIiBjbGFzcz0ibWVzc2FnZSI+PGxpbmUgeTI9Ijc1OC4yMDMxIiB5MT0iNzU4LjIwMzEiIHgyPSIzNTAuMjQ0MSIgeDE9IjMwNi40OTQxIiBzdHlsZT0ic3Ryb2tlOiMyMTk2RjM7c3Ryb2tlLXdpZHRoOjMuMTI1OyIvPjxsaW5lIHkyPSI3NzEuNzQ0OCIgeTE9Ijc1OC4yMDMxIiB4Mj0iMzUwLjI0NDEiIHgxPSIzNTAuMjQ0MSIgc3R5bGU9InN0cm9rZTojMjE5NkYzO3N0cm9rZS13aWR0aDozLjEyNTsiLz48bGluZSB5Mj0iNzcxLjc0NDgiIHkxPSI3NzEuNzQ0OCIgeDI9IjM1MC4yNDQxIiB4MT0iMzA3LjUzNTgiIHN0eWxlPSJzdHJva2U6IzIxOTZGMztzdHJva2Utd2lkdGg6My4xMjU7Ii8+PHBvbHlnb24gc3R5bGU9InN0cm9rZTojMjE5NkYzO3N0cm9rZS13aWR0aDoxLjA0MTc7IiBwb2ludHM9IjMxNy45NTI1LDc2Ny41NzgxLDMwNy41MzU4LDc3MS43NDQ4LDMxNy45NTI1LDc3NS45MTE1LDMxMy43ODU4LDc3MS43NDQ4IiBmaWxsPSIjMjE5NkYzIi8+PHRleHQgeT0iNzQyLjc1NTEiIHg9IjMyNC4yMDI1IiB0ZXh0TGVuZ3RoPSIzNTMuMzc1MiIgbGVuZ3RoQWRqdXN0PSJzcGFjaW5nIiBmb250LXNpemU9IjEyLjUiIGZvbnQtZmFtaWx5PSJWZXJkYW5hIiBmaWxsPSIjMjIyMjIyIj5TZWxlY2lvbmEgdW0gY29udHJhdG8gY29tIHNpdHVhw6fDo28gaWd1YWwgIkRJU1BPTklWRUwiPC90ZXh0PjwvZz48ZyBkYXRhLXBhcnRpY2lwYW50LTI9IkNyZWRvcmEiIGRhdGEtcGFydGljaXBhbnQtMT0iTW90b3JDb25mb3JtaWRhZGUiIGNsYXNzPSJtZXNzYWdlIj48cG9seWdvbiBzdHlsZT0ic3Ryb2tlOiMyMTk2RjM7c3Ryb2tlLXdpZHRoOjEuMDQxNzsiIHBvaW50cz0iOTM5LjY3MDgsODE3LjU0NTYsOTUwLjA4NzUsODIxLjcxMjIsOTM5LjY3MDgsODI1Ljg3ODksOTQzLjgzNzUsODIxLjcxMjIiIGZpbGw9IiMyMTk2RjMiLz48bGluZSB5Mj0iODIxLjcxMjIiIHkxPSI4MjEuNzEyMiIgeDI9Ijk0NS45MjA4IiB4MT0iMzA2LjQ5NDEiIHN0eWxlPSJzdHJva2U6IzIxOTZGMztzdHJva2Utd2lkdGg6My4xMjU7Ii8+PHRleHQgeT0iODA2LjI2NDIiIHg9IjMyNC4yMDI1IiB0ZXh0TGVuZ3RoPSIxMTUuMzQ0MiIgbGVuZ3RoQWRqdXN0PSJzcGFjaW5nIiBmb250LXNpemU9IjEyLjUiIGZvbnQtZmFtaWx5PSJWZXJkYW5hIiBmaWxsPSIjMjIyMjIyIj5QT1NUIC9wb3J0YWJpbGl0aWVzPC90ZXh0PjwvZz48ZyBkYXRhLXBhcnRpY2lwYW50LTI9Ik1vdG9yQ29uZm9ybWlkYWRlIiBkYXRhLXBhcnRpY2lwYW50LTE9IkNyZWRvcmEiIGNsYXNzPSJtZXNzYWdlIj48cG9seWdvbiBzdHlsZT0ic3Ryb2tlOiMyMTk2RjM7c3Ryb2tlLXdpZHRoOjEuMDQxNzsiIHBvaW50cz0iMzE3Ljk1MjUsODY3LjUxMywzMDcuNTM1OCw4NzEuNjc5NywzMTcuOTUyNSw4NzUuODQ2NCwzMTMuNzg1OCw4NzEuNjc5NyIgZmlsbD0iIzIxOTZGMyIvPjxsaW5lIHkyPSI4NzEuNjc5NyIgeTE9Ijg3MS42Nzk3IiB4Mj0iOTUxLjEyOTIiIHgxPSIzMTEuNzAyNSIgc3R5bGU9InN0cm9rZTojMjE5NkYzO3N0cm9rZS13aWR0aDozLjEyNTsiLz48dGV4dCB5PSI4NTYuMjMxNyIgeD0iMzM0LjYxOTEiIHRleHRMZW5ndGg9IjIzLjg1ODYiIGxlbmd0aEFkanVzdD0ic3BhY2luZyIgZm9udC1zaXplPSIxMi41IiBmb250LWZhbWlseT0iVmVyZGFuYSIgZmlsbD0iIzIyMjIyMiI+MjAyPC90ZXh0PjwvZz48ZyBkYXRhLXBhcnRpY2lwYW50LTI9Ik1vdG9yQ29uZm9ybWlkYWRlIiBkYXRhLXBhcnRpY2lwYW50LTE9Ik1vdG9yQ29uZm9ybWlkYWRlIiBjbGFzcz0ibWVzc2FnZSI+PGxpbmUgeTI9IjkyMS42NDcxIiB5MT0iOTIxLjY0NzEiIHgyPSIzNTAuMjQ0MSIgeDE9IjMwNi40OTQxIiBzdHlsZT0ic3Ryb2tlOiMyMTk2RjM7c3Ryb2tlLXdpZHRoOjMuMTI1OyIvPjxsaW5lIHkyPSI5MzUuMTg4OCIgeTE9IjkyMS42NDcxIiB4Mj0iMzUwLjI0NDEiIHgxPSIzNTAuMjQ0MSIgc3R5bGU9InN0cm9rZTojMjE5NkYzO3N0cm9rZS13aWR0aDozLjEyNTsiLz48bGluZSB5Mj0iOTM1LjE4ODgiIHkxPSI5MzUuMTg4OCIgeDI9IjM1MC4yNDQxIiB4MT0iMzA3LjUzNTgiIHN0eWxlPSJzdHJva2U6IzIxOTZGMztzdHJva2Utd2lkdGg6My4xMjU7Ii8+PHBvbHlnb24gc3R5bGU9InN0cm9rZTojMjE5NkYzO3N0cm9rZS13aWR0aDoxLjA0MTc7IiBwb2ludHM9IjMxNy45NTI1LDkzMS4wMjIxLDMwNy41MzU4LDkzNS4xODg4LDMxNy45NTI1LDkzOS4zNTU1LDMxMy43ODU4LDkzNS4xODg4IiBmaWxsPSIjMjE5NkYzIi8+PHRleHQgeT0iOTA2LjE5OTEiIHg9IjMyNC4yMDI1IiB0ZXh0TGVuZ3RoPSIyODYuMzIyIiBsZW5ndGhBZGp1c3Q9InNwYWNpbmciIGZvbnQtc2l6ZT0iMTIuNSIgZm9udC1mYW1pbHk9IlZlcmRhbmEiIGZpbGw9IiMyMjIyMjIiPlZhbGlkYSByZXRvcm5vIGRlIGFjb3JkbyBjb20gYSBlc3BlY2lmaWNhw6fDo288L3RleHQ+PC9nPjxwYXRoIHN0eWxlPSJzdHJva2U6IzY2NjY2NjtzdHJva2Utd2lkdGg6MS4wNDE3OyIgZmlsbD0iI0ZGRkZGRiIgZD0iTTE3Ny4wNjkxLDk1MC44MTM4IEwyNzEuMDE4NSw5NTAuODEzOCBMMjcxLjAxODUsOTc3Ljg2NDYgTDI2MC42MDE4LDk4OC4yODEzIEwxNzIuOTAyNCw5ODguMjgxMyBMMTcyLjkwMjQsOTU0Ljk4MDUgQTQuMTY2Nyw0LjE2NjcgMCAwIDEgMTc3LjA2OTEsOTUwLjgxMzgiLz48cmVjdCB5PSI5NTAuODEzOCIgeD0iMTcyLjkwMjQiIHdpZHRoPSI4NzUuNTkyIiBzdHlsZT0ic3Ryb2tlOiMyMTk2RjM7c3Ryb2tlLXdpZHRoOjEuMDQxNzsiIHJ5PSI0LjE2NjciIHJ4PSI0LjE2NjciIGhlaWdodD0iMjIwLjY3MDYiIGZpbGw9Im5vbmUiLz48dGV4dCB5PSI5NzMuODc0OSIgeD0iMTk4Ljk0NDEiIHRleHRMZW5ndGg9IjMwLjQwNzciIGxlbmd0aEFkanVzdD0ic3BhY2luZyIgZm9udC13ZWlnaHQ9ImJvbGQiIGZvbnQtc2l6ZT0iMTIuNSIgZm9udC1mYW1pbHk9IlZlcmRhbmEiIGZpbGw9IiM5QzI3QjAiPmxvb3A8L3RleHQ+PHRleHQgeT0iOTc0LjkxNjYiIHg9IjI5Ny4wNjAxIiB0ZXh0TGVuZ3RoPSI0MzEuNTk3OSIgbGVuZ3RoQWRqdXN0PSJzcGFjaW5nIiBmb250LXdlaWdodD0iYm9sZCIgZm9udC1zaXplPSIxMi41IiBmb250LWZhbWlseT0iVmVyZGFuYSIgZmlsbD0iIzIyMjIyMiI+W0NoYW1hZGFzIGRlIHBvbGxpbmcgcGFyYSBHRVQgL3BvcnRhYmlsaXRpZXMve3BvcnRhYmlsaXR5SWR9XTwvdGV4dD48ZyBkYXRhLXBhcnRpY2lwYW50LTI9IkNyZWRvcmEiIGRhdGEtcGFydGljaXBhbnQtMT0iTW90b3JDb25mb3JtaWRhZGUiIGNsYXNzPSJtZXNzYWdlIj48cG9seWdvbiBzdHlsZT0ic3Ryb2tlOiMyMTk2RjM7c3Ryb2tlLXdpZHRoOjEuMDQxNzsiIHBvaW50cz0iOTM5LjY3MDgsMTA0NS41MDc4LDk1MC4wODc1LDEwNDkuNjc0NSw5MzkuNjcwOCwxMDUzLjg0MTEsOTQzLjgzNzUsMTA0OS42NzQ1IiBmaWxsPSIjMjE5NkYzIi8+PGxpbmUgeTI9IjEwNDkuNjc0NSIgeTE9IjEwNDkuNjc0NSIgeDI9Ijk0NS45MjA4IiB4MT0iMzA2LjQ5NDEiIHN0eWxlPSJzdHJva2U6IzIxOTZGMztzdHJva2Utd2lkdGg6My4xMjU7Ii8+PHRleHQgeT0iMTAzNC4yMjY1IiB4PSIzMjQuMjAyNSIgdGV4dExlbmd0aD0iMjAzLjI4OTgiIGxlbmd0aEFkanVzdD0ic3BhY2luZyIgZm9udC1zaXplPSIxMi41IiBmb250LWZhbWlseT0iVmVyZGFuYSIgZmlsbD0iIzIyMjIyMiI+R0VUIC9wb3J0YWJpbGl0aWVzL3twb3J0YWJpbGl0eUlkfTwvdGV4dD48L2c+PGcgZGF0YS1wYXJ0aWNpcGFudC0yPSJNb3RvckNvbmZvcm1pZGFkZSIgZGF0YS1wYXJ0aWNpcGFudC0xPSJDcmVkb3JhIiBjbGFzcz0ibWVzc2FnZSI+PHBvbHlnb24gc3R5bGU9InN0cm9rZTojMjE5NkYzO3N0cm9rZS13aWR0aDoxLjA0MTc7IiBwb2ludHM9IjMxNy45NTI1LDEwOTUuNDc1MywzMDcuNTM1OCwxMDk5LjY0MTksMzE3Ljk1MjUsMTEwMy44MDg2LDMxMy43ODU4LDEwOTkuNjQxOSIgZmlsbD0iIzIxOTZGMyIvPjxsaW5lIHkyPSIxMDk5LjY0MTkiIHkxPSIxMDk5LjY0MTkiIHgyPSI5NTEuMTI5MiIgeDE9IjMxMS43MDI1IiBzdHlsZT0ic3Ryb2tlOiMyMTk2RjM7c3Ryb2tlLXdpZHRoOjMuMTI1OyIvPjx0ZXh0IHk9IjEwODQuMTkzOSIgeD0iMzM0LjYxOTEiIHRleHRMZW5ndGg9IjIzLjg1ODYiIGxlbmd0aEFkanVzdD0ic3BhY2luZyIgZm9udC1zaXplPSIxMi41IiBmb250LWZhbWlseT0iVmVyZGFuYSIgZmlsbD0iIzIyMjIyMiI+MjAwPC90ZXh0PjwvZz48ZyBkYXRhLXBhcnRpY2lwYW50LTI9Ik1vdG9yQ29uZm9ybWlkYWRlIiBkYXRhLXBhcnRpY2lwYW50LTE9Ik1vdG9yQ29uZm9ybWlkYWRlIiBjbGFzcz0ibWVzc2FnZSI+PGxpbmUgeTI9IjExNDkuNjA5NCIgeTE9IjExNDkuNjA5NCIgeDI9IjM1MC4yNDQxIiB4MT0iMzA2LjQ5NDEiIHN0eWxlPSJzdHJva2U6IzIxOTZGMztzdHJva2Utd2lkdGg6My4xMjU7Ii8+PGxpbmUgeTI9IjExNjMuMTUxIiB5MT0iMTE0OS42MDk0IiB4Mj0iMzUwLjI0NDEiIHgxPSIzNTAuMjQ0MSIgc3R5bGU9InN0cm9rZTojMjE5NkYzO3N0cm9rZS13aWR0aDozLjEyNTsiLz48bGluZSB5Mj0iMTE2My4xNTEiIHkxPSIxMTYzLjE1MSIgeDI9IjM1MC4yNDQxIiB4MT0iMzA3LjUzNTgiIHN0eWxlPSJzdHJva2U6IzIxOTZGMztzdHJva2Utd2lkdGg6My4xMjU7Ii8+PHBvbHlnb24gc3R5bGU9InN0cm9rZTojMjE5NkYzO3N0cm9rZS13aWR0aDoxLjA0MTc7IiBwb2ludHM9IjMxNy45NTI1LDExNTguOTg0NCwzMDcuNTM1OCwxMTYzLjE1MSwzMTcuOTUyNSwxMTY3LjMxNzcsMzEzLjc4NTgsMTE2My4xNTEiIGZpbGw9IiMyMTk2RjMiLz48dGV4dCB5PSIxMTM0LjE2MTQiIHg9IjMyNC4yMDI1IiB0ZXh0TGVuZ3RoPSI0NTcuMzQ4NiIgbGVuZ3RoQWRqdXN0PSJzcGFjaW5nIiBmb250LXNpemU9IjEyLjUiIGZvbnQtZmFtaWx5PSJWZXJkYW5hIiBmaWxsPSIjMjIyMjIyIj5WYWxpZGEgc2UgbyBjYW1wbyBzdGF0dXMgw6kgaWd1YWwgIkFDQ0VQVEVEX1NFVFRMRU1FTlRfSU5fUFJPQ0VTUyI8L3RleHQ+PC9nPjxnIGRhdGEtcGFydGljaXBhbnQtMj0iQ3JlZG9yYSIgZGF0YS1wYXJ0aWNpcGFudC0xPSJNb3RvckNvbmZvcm1pZGFkZSIgY2xhc3M9Im1lc3NhZ2UiPjxwb2x5Z29uIHN0eWxlPSJzdHJva2U6IzIxOTZGMztzdHJva2Utd2lkdGg6MS4wNDE3OyIgcG9pbnRzPSI5MzkuNjcwOCwxMjE2LjI0MzUsOTUwLjA4NzUsMTIyMC40MTAyLDkzOS42NzA4LDEyMjQuNTc2OCw5NDMuODM3NSwxMjIwLjQxMDIiIGZpbGw9IiMyMTk2RjMiLz48bGluZSB5Mj0iMTIyMC40MTAyIiB5MT0iMTIyMC40MTAyIiB4Mj0iOTQ1LjkyMDgiIHgxPSIzMDYuNDk0MSIgc3R5bGU9InN0cm9rZTojMjE5NkYzO3N0cm9rZS13aWR0aDozLjEyNTsiLz48dGV4dCB5PSIxMjA0Ljk2MjIiIHg9IjMyNC4yMDI1IiB0ZXh0TGVuZ3RoPSIxODIuODY3NCIgbGVuZ3RoQWRqdXN0PSJzcGFjaW5nIiBmb250LXNpemU9IjEyLjUiIGZvbnQtZmFtaWx5PSJWZXJkYW5hIiBmaWxsPSIjMjIyMjIyIj5HRVQgTG9hbnMgQ29udHJhY3RzIEFQSSAtIFYyPC90ZXh0PjwvZz48ZyBkYXRhLXBhcnRpY2lwYW50LTI9Ik1vdG9yQ29uZm9ybWlkYWRlIiBkYXRhLXBhcnRpY2lwYW50LTE9IkNyZWRvcmEiIGNsYXNzPSJtZXNzYWdlIj48cG9seWdvbiBzdHlsZT0ic3Ryb2tlOiMyMTk2RjM7c3Ryb2tlLXdpZHRoOjEuMDQxNzsiIHBvaW50cz0iMzE3Ljk1MjUsMTI2Ni4yMTA5LDMwNy41MzU4LDEyNzAuMzc3NiwzMTcuOTUyNSwxMjc0LjU0NDMsMzEzLjc4NTgsMTI3MC4zNzc2IiBmaWxsPSIjMjE5NkYzIi8+PGxpbmUgeTI9IjEyNzAuMzc3NiIgeTE9IjEyNzAuMzc3NiIgeDI9Ijk1MS4xMjkyIiB4MT0iMzExLjcwMjUiIHN0eWxlPSJzdHJva2U6IzIxOTZGMztzdHJva2Utd2lkdGg6My4xMjU7Ii8+PHRleHQgeT0iMTI1NC45Mjk2IiB4PSIzMzQuNjE5MSIgdGV4dExlbmd0aD0iMjMuODU4NiIgbGVuZ3RoQWRqdXN0PSJzcGFjaW5nIiBmb250LXNpemU9IjEyLjUiIGZvbnQtZmFtaWx5PSJWZXJkYW5hIiBmaWxsPSIjMjIyMjIyIj4yMDA8L3RleHQ+PC9nPjxnIGRhdGEtcGFydGljaXBhbnQtMj0iTW90b3JDb25mb3JtaWRhZGUiIGRhdGEtcGFydGljaXBhbnQtMT0iTW90b3JDb25mb3JtaWRhZGUiIGNsYXNzPSJtZXNzYWdlIj48bGluZSB5Mj0iMTMyMC4zNDUxIiB5MT0iMTMyMC4zNDUxIiB4Mj0iMzUwLjI0NDEiIHgxPSIzMDYuNDk0MSIgc3R5bGU9InN0cm9rZTojMjE5NkYzO3N0cm9rZS13aWR0aDozLjEyNTsiLz48bGluZSB5Mj0iMTMzMy44ODY3IiB5MT0iMTMyMC4zNDUxIiB4Mj0iMzUwLjI0NDEiIHgxPSIzNTAuMjQ0MSIgc3R5bGU9InN0cm9rZTojMjE5NkYzO3N0cm9rZS13aWR0aDozLjEyNTsiLz48bGluZSB5Mj0iMTMzMy44ODY3IiB5MT0iMTMzMy44ODY3IiB4Mj0iMzUwLjI0NDEiIHgxPSIzMDcuNTM1OCIgc3R5bGU9InN0cm9rZTojMjE5NkYzO3N0cm9rZS13aWR0aDozLjEyNTsiLz48cG9seWdvbiBzdHlsZT0ic3Ryb2tlOiMyMTk2RjM7c3Ryb2tlLXdpZHRoOjEuMDQxNzsiIHBvaW50cz0iMzE3Ljk1MjUsMTMyOS43MjAxLDMwNy41MzU4LDEzMzMuODg2NywzMTcuOTUyNSwxMzM4LjA1MzQsMzEzLjc4NTgsMTMzMy44ODY3IiBmaWxsPSIjMjE5NkYzIi8+PHRleHQgeT0iMTMwNC44OTcxIiB4PSIzMjQuMjAyNSIgdGV4dExlbmd0aD0iNDQxLjk2NzgiIGxlbmd0aEFkanVzdD0ic3BhY2luZyIgZm9udC1zaXplPSIxMi41IiBmb250LWZhbWlseT0iVmVyZGFuYSIgZmlsbD0iIzIyMjIyMiI+VmFsaWRhIHJldG9ybm8gZGUgYWNvcmRvIGNvbSBhIGVzcGVjaWZpY2HDp8OjbyAoYXR1YWxpemEgc2FsZG8gZGV2ZWRvcik8L3RleHQ+PC9nPjxnIGRhdGEtcGFydGljaXBhbnQtMj0iQ3JlZG9yYSIgZGF0YS1wYXJ0aWNpcGFudC0xPSJNb3RvckNvbmZvcm1pZGFkZSIgY2xhc3M9Im1lc3NhZ2UiPjxwb2x5Z29uIHN0eWxlPSJzdHJva2U6IzIxOTZGMztzdHJva2Utd2lkdGg6MS4wNDE3OyIgcG9pbnRzPSI5MzkuNjcwOCwxMzc5LjY4NzUsOTUwLjA4NzUsMTM4My44NTQyLDkzOS42NzA4LDEzODguMDIwOCw5NDMuODM3NSwxMzgzLjg1NDIiIGZpbGw9IiMyMTk2RjMiLz48bGluZSB5Mj0iMTM4My44NTQyIiB5MT0iMTM4My44NTQyIiB4Mj0iOTQ1LjkyMDgiIHgxPSIzMDYuNDk0MSIgc3R5bGU9InN0cm9rZTojMjE5NkYzO3N0cm9rZS13aWR0aDozLjEyNTsiLz48dGV4dCB5PSIxMzY4LjQwNjIiIHg9IjMyNC4yMDI1IiB0ZXh0TGVuZ3RoPSIxMTUuODY5MSIgbGVuZ3RoQWRqdXN0PSJzcGFjaW5nIiBmb250LXNpemU9IjEyLjUiIGZvbnQtZmFtaWx5PSJWZXJkYW5hIiBmaWxsPSIjMjIyMjIyIj5HRVQgL2FjY291bnQtZGF0YTwvdGV4dD48L2c+PGcgZGF0YS1wYXJ0aWNpcGFudC0yPSJNb3RvckNvbmZvcm1pZGFkZSIgZGF0YS1wYXJ0aWNpcGFudC0xPSJDcmVkb3JhIiBjbGFzcz0ibWVzc2FnZSI+PHBvbHlnb24gc3R5bGU9InN0cm9rZTojMjE5NkYzO3N0cm9rZS13aWR0aDoxLjA0MTc7IiBwb2ludHM9IjMxNy45NTI1LDE0MjkuNjU0OSwzMDcuNTM1OCwxNDMzLjgyMTYsMzE3Ljk1MjUsMTQzNy45ODgzLDMxMy43ODU4LDE0MzMuODIxNiIgZmlsbD0iIzIxOTZGMyIvPjxsaW5lIHkyPSIxNDMzLjgyMTYiIHkxPSIxNDMzLjgyMTYiIHgyPSI5NTEuMTI5MiIgeDE9IjMxMS43MDI1IiBzdHlsZT0ic3Ryb2tlOiMyMTk2RjM7c3Ryb2tlLXdpZHRoOjMuMTI1OyIvPjx0ZXh0IHk9IjE0MTguMzczNiIgeD0iMzM0LjYxOTEiIHRleHRMZW5ndGg9IjIzLjg1ODYiIGxlbmd0aEFkanVzdD0ic3BhY2luZyIgZm9udC1zaXplPSIxMi41IiBmb250LWZhbWlseT0iVmVyZGFuYSIgZmlsbD0iIzIyMjIyMiI+MjAwPC90ZXh0PjwvZz48ZyBkYXRhLXBhcnRpY2lwYW50LTI9Ik1vdG9yQ29uZm9ybWlkYWRlIiBkYXRhLXBhcnRpY2lwYW50LTE9Ik1vdG9yQ29uZm9ybWlkYWRlIiBjbGFzcz0ibWVzc2FnZSI+PGxpbmUgeTI9IjE0ODMuNzg5MSIgeTE9IjE0ODMuNzg5MSIgeDI9IjM1MC4yNDQxIiB4MT0iMzA2LjQ5NDEiIHN0eWxlPSJzdHJva2U6IzIxOTZGMztzdHJva2Utd2lkdGg6My4xMjU7Ii8+PGxpbmUgeTI9IjE0OTcuMzMwNyIgeTE9IjE0ODMuNzg5MSIgeDI9IjM1MC4yNDQxIiB4MT0iMzUwLjI0NDEiIHN0eWxlPSJzdHJva2U6IzIxOTZGMztzdHJva2Utd2lkdGg6My4xMjU7Ii8+PGxpbmUgeTI9IjE0OTcuMzMwNyIgeTE9IjE0OTcuMzMwNyIgeDI9IjM1MC4yNDQxIiB4MT0iMzA3LjUzNTgiIHN0eWxlPSJzdHJva2U6IzIxOTZGMztzdHJva2Utd2lkdGg6My4xMjU7Ii8+PHBvbHlnb24gc3R5bGU9InN0cm9rZTojMjE5NkYzO3N0cm9rZS13aWR0aDoxLjA0MTc7IiBwb2ludHM9IjMxNy45NTI1LDE0OTMuMTY0MSwzMDcuNTM1OCwxNDk3LjMzMDcsMzE3Ljk1MjUsMTUwMS40OTc0LDMxMy43ODU4LDE0OTcuMzMwNyIgZmlsbD0iIzIxOTZGMyIvPjx0ZXh0IHk9IjE0NjguMzQxMSIgeD0iMzI0LjIwMjUiIHRleHRMZW5ndGg9IjYxMC4yNiIgbGVuZ3RoQWRqdXN0PSJzcGFjaW5nIiBmb250LXNpemU9IjEyLjUiIGZvbnQtZmFtaWx5PSJWZXJkYW5hIiBmaWxsPSIjMjIyMjIyIj5WYWxpZGEgcmV0b3JubyBkZSBhY29yZG8gY29tIGEgZXNwZWNpZmljYcOnw6NvIChjYXB0dXJhIGRhZG9zIGJhbmPDoXJpb3MgcGFyYSBwYWdhbWVudG8gZGEgU1RSKTwvdGV4dD48L2c+PGcgZGF0YS1wYXJ0aWNpcGFudC0yPSJDcmVkb3JhIiBkYXRhLXBhcnRpY2lwYW50LTE9Ik1vdG9yQ29uZm9ybWlkYWRlIiBjbGFzcz0ibWVzc2FnZSI+PHBvbHlnb24gc3R5bGU9InN0cm9rZTojMjE5NkYzO3N0cm9rZS13aWR0aDoxLjA0MTc7IiBwb2ludHM9IjkzOS42NzA4LDE1NDMuMTMxNSw5NTAuMDg3NSwxNTQ3LjI5ODIsOTM5LjY3MDgsMTU1MS40NjQ4LDk0My44Mzc1LDE1NDcuMjk4MiIgZmlsbD0iIzIxOTZGMyIvPjxsaW5lIHkyPSIxNTQ3LjI5ODIiIHkxPSIxNTQ3LjI5ODIiIHgyPSI5NDUuOTIwOCIgeDE9IjMwNi40OTQxIiBzdHlsZT0ic3Ryb2tlOiMyMTk2RjM7c3Ryb2tlLXdpZHRoOjMuMTI1OyIvPjx0ZXh0IHk9IjE1MzEuODUwMiIgeD0iMzI0LjIwMjUiIHRleHRMZW5ndGg9IjI3MC45MTA2IiBsZW5ndGhBZGp1c3Q9InNwYWNpbmciIGZvbnQtc2l6ZT0iMTIuNSIgZm9udC1mYW1pbHk9IlZlcmRhbmEiIGZpbGw9IiMyMjIyMjIiPlBPU1QgL3BvcnRhYmlsaXRpZXMve3BvcnRhYmlsaXR5SWR9L3BheW1lbnQ8L3RleHQ+PC9nPjxnIGRhdGEtcGFydGljaXBhbnQtMj0iTW90b3JDb25mb3JtaWRhZGUiIGRhdGEtcGFydGljaXBhbnQtMT0iQ3JlZG9yYSIgY2xhc3M9Im1lc3NhZ2UiPjxwb2x5Z29uIHN0eWxlPSJzdHJva2U6IzIxOTZGMztzdHJva2Utd2lkdGg6MS4wNDE3OyIgcG9pbnRzPSIzMTcuOTUyNSwxNTkzLjA5OSwzMDcuNTM1OCwxNTk3LjI2NTYsMzE3Ljk1MjUsMTYwMS40MzIzLDMxMy43ODU4LDE1OTcuMjY1NiIgZmlsbD0iIzIxOTZGMyIvPjxsaW5lIHkyPSIxNTk3LjI2NTYiIHkxPSIxNTk3LjI2NTYiIHgyPSI5NTEuMTI5MiIgeDE9IjMxMS43MDI1IiBzdHlsZT0ic3Ryb2tlOiMyMTk2RjM7c3Ryb2tlLXdpZHRoOjMuMTI1OyIvPjx0ZXh0IHk9IjE1ODEuODE3NiIgeD0iMzM0LjYxOTEiIHRleHRMZW5ndGg9IjIzLjg1ODYiIGxlbmd0aEFkanVzdD0ic3BhY2luZyIgZm9udC1zaXplPSIxMi41IiBmb250LWZhbWlseT0iVmVyZGFuYSIgZmlsbD0iIzIyMjIyMiI+MjAyPC90ZXh0PjwvZz48ZyBkYXRhLXBhcnRpY2lwYW50LTI9Ik1vdG9yQ29uZm9ybWlkYWRlIiBkYXRhLXBhcnRpY2lwYW50LTE9Ik1vdG9yQ29uZm9ybWlkYWRlIiBjbGFzcz0ibWVzc2FnZSI+PGxpbmUgeTI9IjE2NDcuMjMzMSIgeTE9IjE2NDcuMjMzMSIgeDI9IjM1MC4yNDQxIiB4MT0iMzA2LjQ5NDEiIHN0eWxlPSJzdHJva2U6IzIxOTZGMztzdHJva2Utd2lkdGg6My4xMjU7Ii8+PGxpbmUgeTI9IjE2NjAuNzc0NyIgeTE9IjE2NDcuMjMzMSIgeDI9IjM1MC4yNDQxIiB4MT0iMzUwLjI0NDEiIHN0eWxlPSJzdHJva2U6IzIxOTZGMztzdHJva2Utd2lkdGg6My4xMjU7Ii8+PGxpbmUgeTI9IjE2NjAuNzc0NyIgeTE9IjE2NjAuNzc0NyIgeDI9IjM1MC4yNDQxIiB4MT0iMzA3LjUzNTgiIHN0eWxlPSJzdHJva2U6IzIxOTZGMztzdHJva2Utd2lkdGg6My4xMjU7Ii8+PHBvbHlnb24gc3R5bGU9InN0cm9rZTojMjE5NkYzO3N0cm9rZS13aWR0aDoxLjA0MTc7IiBwb2ludHM9IjMxNy45NTI1LDE2NTYuNjA4MSwzMDcuNTM1OCwxNjYwLjc3NDcsMzE3Ljk1MjUsMTY2NC45NDE0LDMxMy43ODU4LDE2NjAuNzc0NyIgZmlsbD0iIzIxOTZGMyIvPjx0ZXh0IHk9IjE2MzEuNzg1MSIgeD0iMzI0LjIwMjUiIHRleHRMZW5ndGg9IjI4Ni4zMjIiIGxlbmd0aEFkanVzdD0ic3BhY2luZyIgZm9udC1zaXplPSIxMi41IiBmb250LWZhbWlseT0iVmVyZGFuYSIgZmlsbD0iIzIyMjIyMiI+VmFsaWRhIHJldG9ybm8gZGUgYWNvcmRvIGNvbSBhIGVzcGVjaWZpY2HDp8OjbzwvdGV4dD48L2c+PHBhdGggc3R5bGU9InN0cm9rZTojNjY2NjY2O3N0cm9rZS13aWR0aDoxLjA0MTc7IiBmaWxsPSIjRkZGRkZGIiBkPSJNMTc3LjA2OTEsMTY3Ni4zOTk3IEwyNzEuMDE4NSwxNjc2LjM5OTcgTDI3MS4wMTg1LDE3MDMuNDUwNSBMMjYwLjYwMTgsMTcxMy44NjcyIEwxNzIuOTAyNCwxNzEzLjg2NzIgTDE3Mi45MDI0LDE2ODAuNTY2NCBBNC4xNjY3LDQuMTY2NyAwIDAgMSAxNzcuMDY5MSwxNjc2LjM5OTciLz48cmVjdCB5PSIxNjc2LjM5OTciIHg9IjE3Mi45MDI0IiB3aWR0aD0iODc1LjU5MiIgc3R5bGU9InN0cm9rZTojMjE5NkYzO3N0cm9rZS13aWR0aDoxLjA0MTc7IiByeT0iNC4xNjY3IiByeD0iNC4xNjY3IiBoZWlnaHQ9IjIyMC42NzA2IiBmaWxsPSJub25lIi8+PHRleHQgeT0iMTY5OS40NjA5IiB4PSIxOTguOTQ0MSIgdGV4dExlbmd0aD0iMzAuNDA3NyIgbGVuZ3RoQWRqdXN0PSJzcGFjaW5nIiBmb250LXdlaWdodD0iYm9sZCIgZm9udC1zaXplPSIxMi41IiBmb250LWZhbWlseT0iVmVyZGFuYSIgZmlsbD0iIzlDMjdCMCI+bG9vcDwvdGV4dD48dGV4dCB5PSIxNzAwLjUwMjUiIHg9IjI5Ny4wNjAxIiB0ZXh0TGVuZ3RoPSI0MzEuNTk3OSIgbGVuZ3RoQWRqdXN0PSJzcGFjaW5nIiBmb250LXdlaWdodD0iYm9sZCIgZm9udC1zaXplPSIxMi41IiBmb250LWZhbWlseT0iVmVyZGFuYSIgZmlsbD0iIzIyMjIyMiI+W0NoYW1hZGFzIGRlIHBvbGxpbmcgcGFyYSBHRVQgL3BvcnRhYmlsaXRpZXMve3BvcnRhYmlsaXR5SWR9XTwvdGV4dD48ZyBkYXRhLXBhcnRpY2lwYW50LTI9IkNyZWRvcmEiIGRhdGEtcGFydGljaXBhbnQtMT0iTW90b3JDb25mb3JtaWRhZGUiIGNsYXNzPSJtZXNzYWdlIj48cG9seWdvbiBzdHlsZT0ic3Ryb2tlOiMyMTk2RjM7c3Ryb2tlLXdpZHRoOjEuMDQxNzsiIHBvaW50cz0iOTM5LjY3MDgsMTc3MS4wOTM4LDk1MC4wODc1LDE3NzUuMjYwNCw5MzkuNjcwOCwxNzc5LjQyNzEsOTQzLjgzNzUsMTc3NS4yNjA0IiBmaWxsPSIjMjE5NkYzIi8+PGxpbmUgeTI9IjE3NzUuMjYwNCIgeTE9IjE3NzUuMjYwNCIgeDI9Ijk0NS45MjA4IiB4MT0iMzA2LjQ5NDEiIHN0eWxlPSJzdHJva2U6IzIxOTZGMztzdHJva2Utd2lkdGg6My4xMjU7Ii8+PHRleHQgeT0iMTc1OS44MTI0IiB4PSIzMjQuMjAyNSIgdGV4dExlbmd0aD0iMjAzLjI4OTgiIGxlbmd0aEFkanVzdD0ic3BhY2luZyIgZm9udC1zaXplPSIxMi41IiBmb250LWZhbWlseT0iVmVyZGFuYSIgZmlsbD0iIzIyMjIyMiI+R0VUIC9wb3J0YWJpbGl0aWVzL3twb3J0YWJpbGl0eUlkfTwvdGV4dD48L2c+PGcgZGF0YS1wYXJ0aWNpcGFudC0yPSJNb3RvckNvbmZvcm1pZGFkZSIgZGF0YS1wYXJ0aWNpcGFudC0xPSJDcmVkb3JhIiBjbGFzcz0ibWVzc2FnZSI+PHBvbHlnb24gc3R5bGU9InN0cm9rZTojMjE5NkYzO3N0cm9rZS13aWR0aDoxLjA0MTc7IiBwb2ludHM9IjMxNy45NTI1LDE4MjEuMDYxMiwzMDcuNTM1OCwxODI1LjIyNzksMzE3Ljk1MjUsMTgyOS4zOTQ1LDMxMy43ODU4LDE4MjUuMjI3OSIgZmlsbD0iIzIxOTZGMyIvPjxsaW5lIHkyPSIxODI1LjIyNzkiIHkxPSIxODI1LjIyNzkiIHgyPSI5NTEuMTI5MiIgeDE9IjMxMS43MDI1IiBzdHlsZT0ic3Ryb2tlOiMyMTk2RjM7c3Ryb2tlLXdpZHRoOjMuMTI1OyIvPjx0ZXh0IHk9IjE4MDkuNzc5OSIgeD0iMzM0LjYxOTEiIHRleHRMZW5ndGg9IjIzLjg1ODYiIGxlbmd0aEFkanVzdD0ic3BhY2luZyIgZm9udC1zaXplPSIxMi41IiBmb250LWZhbWlseT0iVmVyZGFuYSIgZmlsbD0iIzIyMjIyMiI+MjAwPC90ZXh0PjwvZz48ZyBkYXRhLXBhcnRpY2lwYW50LTI9Ik1vdG9yQ29uZm9ybWlkYWRlIiBkYXRhLXBhcnRpY2lwYW50LTE9Ik1vdG9yQ29uZm9ybWlkYWRlIiBjbGFzcz0ibWVzc2FnZSI+PGxpbmUgeTI9IjE4NzUuMTk1MyIgeTE9IjE4NzUuMTk1MyIgeDI9IjM1MC4yNDQxIiB4MT0iMzA2LjQ5NDEiIHN0eWxlPSJzdHJva2U6IzIxOTZGMztzdHJva2Utd2lkdGg6My4xMjU7Ii8+PGxpbmUgeTI9IjE4ODguNzM3IiB5MT0iMTg3NS4xOTUzIiB4Mj0iMzUwLjI0NDEiIHgxPSIzNTAuMjQ0MSIgc3R5bGU9InN0cm9rZTojMjE5NkYzO3N0cm9rZS13aWR0aDozLjEyNTsiLz48bGluZSB5Mj0iMTg4OC43MzciIHkxPSIxODg4LjczNyIgeDI9IjM1MC4yNDQxIiB4MT0iMzA3LjUzNTgiIHN0eWxlPSJzdHJva2U6IzIxOTZGMztzdHJva2Utd2lkdGg6My4xMjU7Ii8+PHBvbHlnb24gc3R5bGU9InN0cm9rZTojMjE5NkYzO3N0cm9rZS13aWR0aDoxLjA0MTc7IiBwb2ludHM9IjMxNy45NTI1LDE4ODQuNTcwMywzMDcuNTM1OCwxODg4LjczNywzMTcuOTUyNSwxODkyLjkwMzYsMzEzLjc4NTgsMTg4OC43MzciIGZpbGw9IiMyMTk2RjMiLz48dGV4dCB5PSIxODU5Ljc0NzMiIHg9IjMyNC4yMDI1IiB0ZXh0TGVuZ3RoPSIzODIuMzYwOCIgbGVuZ3RoQWRqdXN0PSJzcGFjaW5nIiBmb250LXNpemU9IjEyLjUiIGZvbnQtZmFtaWx5PSJWZXJkYW5hIiBmaWxsPSIjMjIyMjIyIj5WYWxpZGEgc2UgbyBjYW1wbyBzdGF0dXMgw6kgaWd1YWwgIlBPUlRBQklMSVRZX0NPTVBMRVRFRCI8L3RleHQ+PC9nPjwvZz48L3N2Zz4=;" vertex="1" parent="1">
                    <mxGeometry x="20" y="260" width="728" height="1200" as="geometry"/>
                </mxCell>
            </root>
        </mxGraphModel>
    </diagram>
    <diagram id="Xfr9-wdIDGEUw8eThwiq" name="Gestão simultaneidade">
        <mxGraphModel grid="1" page="1" gridSize="10" guides="1" tooltips="1" connect="1" arrows="1" fold="1" pageScale="1" pageWidth="827" pageHeight="1169" math="0" shadow="0">
            <root>
                <mxCell id="0"/>
                <mxCell id="1" parent="0"/>
                <mxCell id="t_T32C0ScdmUhSLzPphI-1" value="" style="shape=image;verticalLabelPosition=bottom;labelBackgroundColor=default;verticalAlign=top;aspect=fixed;imageAspect=0;editableCssRules=.*;image=data:image/svg+xml,PHN2ZyB4bWxuczp4bGluaz0iaHR0cDovL3d3dy53My5vcmcvMTk5OS94bGluayIgeG1sbnM9Imh0dHA6Ly93d3cudzMub3JnLzIwMDAvc3ZnIiB6b29tQW5kUGFuPSJtYWduaWZ5IiB3aWR0aD0iMTAwNS4yNTk5OTIxNzQ1NjUiIHZpZXdCb3g9IjIwLjgzMzI5OTYzNjg0MDgyIDIwLjgzMzI5OTYzNjg0MDgyIDEwMDQuMzQxNjEzNzY5NTMxMiA5ODIuMDMxMTg4OTY0ODQzOCIgdmVyc2lvbj0iMS4xIiBzdHlsZT0id2lkdGg6MTA0OHB4O2hlaWdodDoxMDE5cHg7IiBwcmVzZXJ2ZUFzcGVjdFJhdGlvPSJub25lIiBoZWlnaHQ9Ijk4Mi43OTQxNjY0ODQyNzc5IiBkYXRhLWRpYWdyYW0tdHlwZT0iU0VRVUVOQ0UiPjx0aXRsZT5HZXN0w6NvIGRlIHNpbXVsdGFuZWlkYWRlIC0gQ29udHJhdG8gY29tIHNpdHVhw6fDo28g4oCcUG9ydGFiaWxpZGFkZSBlbSBhbmRhbWVudG/igJw8L3RpdGxlPjxkZWZzPjxsaW5lYXJHcmFkaWVudCB5Mj0iMTAwJSIgeTE9IjAlIiB4Mj0iNTAlIiB4MT0iNTAlIiBpZD0iZ3Vnc2hyMjZpajA5ODAiPjxzdG9wIHN0b3AtY29sb3I9IiNGRkZGRkYiIG9mZnNldD0iMCUiLz48c3RvcCBzdG9wLWNvbG9yPSIjRkZGRkZGIiBvZmZzZXQ9IjEwMCUiLz48L2xpbmVhckdyYWRpZW50PjxmaWx0ZXIgeT0iLTEiIHg9Ii0xIiB3aWR0aD0iMzAwJSIgaWQ9ImZ1Z3NocjI2aWowOTgiIGhlaWdodD0iMzAwJSI+PGZlR2F1c3NpYW5CbHVyIHN0ZERldmlhdGlvbj0iMi4wODMzIiByZXN1bHQ9ImJsdXJPdXQiLz48ZmVDb2xvck1hdHJpeCB2YWx1ZXM9IjAgMCAwIDAgMCAwIDAgMCAwIDAgMCAwIDAgMCAwIDAgMCAwIC40IDAiIHR5cGU9Im1hdHJpeCIgcmVzdWx0PSJibHVyT3V0MiIgaW49ImJsdXJPdXQiLz48ZmVPZmZzZXQgcmVzdWx0PSJibHVyT3V0MyIgaW49ImJsdXJPdXQyIiBkeT0iNC4xNjY3IiBkeD0iNC4xNjY3Ii8+PGZlQmxlbmQgbW9kZT0ibm9ybWFsIiBpbjI9ImJsdXJPdXQzIiBpbj0iU291cmNlR3JhcGhpYyIvPjwvZmlsdGVyPjxsaW5lYXJHcmFkaWVudCB5Mj0iMTAwJSIgeTE9IjAlIiB4Mj0iNTAlIiB4MT0iNTAlIiBpZD0iZ3Vnc2hyMjZpajA5ODEiPjxzdG9wIHN0b3AtY29sb3I9IiM0REFCRjUiIG9mZnNldD0iMCUiLz48c3RvcCBzdG9wLWNvbG9yPSIjMjE5NkYzIiBvZmZzZXQ9IjEwMCUiLz48L2xpbmVhckdyYWRpZW50PjwvZGVmcz48Zz48cmVjdCB5PSIyMC44MzMzIiB4PSIyMC44MzMzIiB3aWR0aD0iMTAwNC4zNDE2IiBzdHlsZT0ic3Ryb2tlOiNDQ0NDQ0M7c3Ryb2tlLXdpZHRoOjEuMDQxNzsiIHJ5PSI0LjE2NjciIHJ4PSI0LjE2NjciIGhlaWdodD0iNTcuNTg0NiIgZmlsbD0idXJsKCNndWdzaHIyNmlqMDk4MCkiLz48dGV4dCB5PSI1Ni44MzgiIHg9IjM3LjUiIHRleHRMZW5ndGg9Ijk3MS4wMDgzIiBsZW5ndGhBZGp1c3Q9InNwYWNpbmciIGZvbnQtd2VpZ2h0PSJib2xkIiBmb250LXNpemU9IjIwLjgzMzMiIGZvbnQtZmFtaWx5PSJWZXJkYW5hIiBmaWxsPSIjMjE5NkYzIj5HZXN0w6NvIGRlIHNpbXVsdGFuZWlkYWRlIC0gQ29udHJhdG8gY29tIHNpdHVhw6fDo28g4oCcUG9ydGFiaWxpZGFkZSBlbSBhbmRhbWVudG/igJw8L3RleHQ+PHJlY3QgeT0iNDg4LjYwNjgiIHg9IjE4NC4zNjc5IiB3aWR0aD0iNjc4LjMxNDIiIHN0eWxlPSJzdHJva2U6IzIxOTZGMztzdHJva2Utd2lkdGg6MS4wNDE3OyIgcnk9IjQuMTY2NyIgcng9IjQuMTY2NyIgaGVpZ2h0PSIyMjAuNjcwNiIgZmlsdGVyPSJ1cmwoI2Z1Z3NocjI2aWowOTgpIiBmaWxsPSJ1cmwoI2d1Z3NocjI2aWowOTgwKSIvPjxnPjx0aXRsZT5Nb3RvckNvbmZvcm1pZGFkZTwvdGl0bGU+PHJlY3QgeT0iMTQ0LjAxMDQiIHg9IjMxMy43OTI5IiB3aWR0aD0iOC4zMzMzIiBoZWlnaHQ9IjgwOS45Mjg0IiBmaWxsLW9wYWNpdHk9IjAuMDAwMDAiIGZpbGw9IiMwMDAwMDAiLz48bGluZSB5Mj0iOTUzLjkzODgiIHkxPSIxNDQuMDEwNCIgeDI9IjMxNy43MDEyIiB4MT0iMzE3LjcwMTIiIHN0eWxlPSJzdHJva2U6I0NDQ0NDQztzdHJva2Utd2lkdGg6MS4wNDE3O3N0cm9rZS1kYXNoYXJyYXk6NS4wLDUuMDsiLz48L2c+PGc+PHRpdGxlPkNyZWRvcmE8L3RpdGxlPjxyZWN0IHk9IjE0NC4wMTA0IiB4PSI3NjIuMTkxOCIgd2lkdGg9IjguMzMzMyIgaGVpZ2h0PSI4MDkuOTI4NCIgZmlsbC1vcGFjaXR5PSIwLjAwMDAwIiBmaWxsPSIjMDAwMDAwIi8+PGxpbmUgeTI9Ijk1My45Mzg4IiB5MT0iMTQ0LjAxMDQiIHgyPSI3NjUuODY4MSIgeDE9Ijc2NS44NjgxIiBzdHlsZT0ic3Ryb2tlOiNDQ0NDQ0M7c3Ryb2tlLXdpZHRoOjEuMDQxNztzdHJva2UtZGFzaGFycmF5OjUuMCw1LjA7Ii8+PC9nPjxnIGRhdGEtcGFydGljaXBhbnQ9Ik1vdG9yQ29uZm9ybWlkYWRlIiBjbGFzcz0icGFydGljaXBhbnQgcGFydGljaXBhbnQtaGVhZCI+PHJlY3QgeT0iODkuODc2MyIgeD0iMjM2LjQ1MTIiIHdpZHRoPSIxNTkuODkxOCIgc3R5bGU9InN0cm9rZTojMjE5NkYzO3N0cm9rZS13aWR0aDoxLjA0MTc7IiByeT0iNC4xNjY3IiByeD0iNC4xNjY3IiBoZWlnaHQ9IjQ5Ljk2NzQiIGZpbHRlcj0idXJsKCNmdWdzaHIyNmlqMDk4KSIgZmlsbD0idXJsKCNndWdzaHIyNmlqMDk4MSkiLz48dGV4dCB5PSIxMTkuMTg3NCIgeD0iMjU0LjE1OTUiIHRleHRMZW5ndGg9IjEyNC40NzUxIiBsZW5ndGhBZGp1c3Q9InNwYWNpbmciIGZvbnQtc2l6ZT0iMTIuNSIgZm9udC1mYW1pbHk9IlZlcmRhbmEiIGZpbGw9IiNGRkZGRkYiPk1vdG9yQ29uZm9ybWlkYWRlPC90ZXh0PjwvZz48ZyBkYXRhLXBhcnRpY2lwYW50PSJNb3RvckNvbmZvcm1pZGFkZSIgY2xhc3M9InBhcnRpY2lwYW50IHBhcnRpY2lwYW50LXRhaWwiPjxyZWN0IHk9Ijk1Mi44OTcxIiB4PSIyMzYuNDUxMiIgd2lkdGg9IjE1OS44OTE4IiBzdHlsZT0ic3Ryb2tlOiMyMTk2RjM7c3Ryb2tlLXdpZHRoOjEuMDQxNzsiIHJ5PSI0LjE2NjciIHJ4PSI0LjE2NjciIGhlaWdodD0iNDkuOTY3NCIgZmlsdGVyPSJ1cmwoI2Z1Z3NocjI2aWowOTgpIiBmaWxsPSJ1cmwoI2d1Z3NocjI2aWowOTgxKSIvPjx0ZXh0IHk9Ijk4Mi4yMDgzIiB4PSIyNTQuMTU5NSIgdGV4dExlbmd0aD0iMTI0LjQ3NTEiIGxlbmd0aEFkanVzdD0ic3BhY2luZyIgZm9udC1zaXplPSIxMi41IiBmb250LWZhbWlseT0iVmVyZGFuYSIgZmlsbD0iI0ZGRkZGRiI+TW90b3JDb25mb3JtaWRhZGU8L3RleHQ+PC9nPjxnIGRhdGEtcGFydGljaXBhbnQ9IkNyZWRvcmEiIGNsYXNzPSJwYXJ0aWNpcGFudCBwYXJ0aWNpcGFudC1oZWFkIj48cmVjdCB5PSI4OS44NzYzIiB4PSI3MjIuMTE4MSIgd2lkdGg9Ijg1LjM1NTYiIHN0eWxlPSJzdHJva2U6IzIxOTZGMztzdHJva2Utd2lkdGg6MS4wNDE3OyIgcnk9IjQuMTY2NyIgcng9IjQuMTY2NyIgaGVpZ2h0PSI0OS45Njc0IiBmaWx0ZXI9InVybCgjZnVnc2hyMjZpajA5OCkiIGZpbGw9InVybCgjZ3Vnc2hyMjZpajA5ODEpIi8+PHRleHQgeT0iMTE5LjE4NzQiIHg9IjczOS44MjY1IiB0ZXh0TGVuZ3RoPSI0OS45MzkiIGxlbmd0aEFkanVzdD0ic3BhY2luZyIgZm9udC1zaXplPSIxMi41IiBmb250LWZhbWlseT0iVmVyZGFuYSIgZmlsbD0iI0ZGRkZGRiI+Q3JlZG9yYTwvdGV4dD48L2c+PGcgZGF0YS1wYXJ0aWNpcGFudD0iQ3JlZG9yYSIgY2xhc3M9InBhcnRpY2lwYW50IHBhcnRpY2lwYW50LXRhaWwiPjxyZWN0IHk9Ijk1Mi44OTcxIiB4PSI3MjIuMTE4MSIgd2lkdGg9Ijg1LjM1NTYiIHN0eWxlPSJzdHJva2U6IzIxOTZGMztzdHJva2Utd2lkdGg6MS4wNDE3OyIgcnk9IjQuMTY2NyIgcng9IjQuMTY2NyIgaGVpZ2h0PSI0OS45Njc0IiBmaWx0ZXI9InVybCgjZnVnc2hyMjZpajA5OCkiIGZpbGw9InVybCgjZ3Vnc2hyMjZpajA5ODEpIi8+PHRleHQgeT0iOTgyLjIwODMiIHg9IjczOS44MjY1IiB0ZXh0TGVuZ3RoPSI0OS45MzkiIGxlbmd0aEFkanVzdD0ic3BhY2luZyIgZm9udC1zaXplPSIxMi41IiBmb250LWZhbWlseT0iVmVyZGFuYSIgZmlsbD0iI0ZGRkZGRiI+Q3JlZG9yYTwvdGV4dD48L2c+PGcgZGF0YS1wYXJ0aWNpcGFudC0yPSJDcmVkb3JhIiBkYXRhLXBhcnRpY2lwYW50LTE9Ik1vdG9yQ29uZm9ybWlkYWRlIiBjbGFzcz0ibWVzc2FnZSI+PHBvbHlnb24gc3R5bGU9InN0cm9rZTojMjE5NkYzO3N0cm9rZS13aWR0aDoxLjA0MTc7IiBwb2ludHM9Ijc1My44NTg0LDE5MS44OTQ1LDc2NC4yNzUxLDE5Ni4wNjEyLDc1My44NTg0LDIwMC4yMjc5LDc1OC4wMjUxLDE5Ni4wNjEyIiBmaWxsPSIjMjE5NkYzIi8+PGxpbmUgeTI9IjE5Ni4wNjEyIiB5MT0iMTk2LjA2MTIiIHgyPSI3NjAuMTA4NCIgeDE9IjMxNy45NTk2IiBzdHlsZT0ic3Ryb2tlOiMyMTk2RjM7c3Ryb2tlLXdpZHRoOjMuMTI1OyIvPjx0ZXh0IHk9IjE4MC42MTMyIiB4PSIzMzUuNjY3OSIgdGV4dExlbmd0aD0iMTcwLjU5MzMiIGxlbmd0aEFkanVzdD0ic3BhY2luZyIgZm9udC1zaXplPSIxMi41IiBmb250LWZhbWlseT0iVmVyZGFuYSIgZmlsbD0iIzIyMjIyMiI+R0VUIC9jb25zZW50cy97Y29uc2VudElkfTwvdGV4dD48L2c+PGcgZGF0YS1wYXJ0aWNpcGFudC0yPSJNb3RvckNvbmZvcm1pZGFkZSIgZGF0YS1wYXJ0aWNpcGFudC0xPSJDcmVkb3JhIiBjbGFzcz0ibWVzc2FnZSI+PHBvbHlnb24gc3R5bGU9InN0cm9rZTojMjE5NkYzO3N0cm9rZS13aWR0aDoxLjA0MTc7IiBwb2ludHM9IjMyOS40MTc5LDI0MS44NjIsMzE5LjAwMTMsMjQ2LjAyODYsMzI5LjQxNzksMjUwLjE5NTMsMzI1LjI1MTMsMjQ2LjAyODYiIGZpbGw9IiMyMTk2RjMiLz48bGluZSB5Mj0iMjQ2LjAyODYiIHkxPSIyNDYuMDI4NiIgeDI9Ijc2NS4zMTY4IiB4MT0iMzIzLjE2NzkiIHN0eWxlPSJzdHJva2U6IzIxOTZGMztzdHJva2Utd2lkdGg6My4xMjU7Ii8+PHRleHQgeT0iMjMwLjU4MDYiIHg9IjM0Ni4wODQ2IiB0ZXh0TGVuZ3RoPSIyMy44NTg2IiBsZW5ndGhBZGp1c3Q9InNwYWNpbmciIGZvbnQtc2l6ZT0iMTIuNSIgZm9udC1mYW1pbHk9IlZlcmRhbmEiIGZpbGw9IiMyMjIyMjIiPjIwMDwvdGV4dD48L2c+PGcgZGF0YS1wYXJ0aWNpcGFudC0yPSJNb3RvckNvbmZvcm1pZGFkZSIgZGF0YS1wYXJ0aWNpcGFudC0xPSJNb3RvckNvbmZvcm1pZGFkZSIgY2xhc3M9Im1lc3NhZ2UiPjxsaW5lIHkyPSIyOTUuOTk2MSIgeTE9IjI5NS45OTYxIiB4Mj0iMzYxLjcwOTYiIHgxPSIzMTcuOTU5NiIgc3R5bGU9InN0cm9rZTojMjE5NkYzO3N0cm9rZS13aWR0aDozLjEyNTsiLz48bGluZSB5Mj0iMzA5LjUzNzgiIHkxPSIyOTUuOTk2MSIgeDI9IjM2MS43MDk2IiB4MT0iMzYxLjcwOTYiIHN0eWxlPSJzdHJva2U6IzIxOTZGMztzdHJva2Utd2lkdGg6My4xMjU7Ii8+PGxpbmUgeTI9IjMwOS41Mzc4IiB5MT0iMzA5LjUzNzgiIHgyPSIzNjEuNzA5NiIgeDE9IjMxOS4wMDEzIiBzdHlsZT0ic3Ryb2tlOiMyMTk2RjM7c3Ryb2tlLXdpZHRoOjMuMTI1OyIvPjxwb2x5Z29uIHN0eWxlPSJzdHJva2U6IzIxOTZGMztzdHJva2Utd2lkdGg6MS4wNDE3OyIgcG9pbnRzPSIzMjkuNDE3OSwzMDUuMzcxMSwzMTkuMDAxMywzMDkuNTM3OCwzMjkuNDE3OSwzMTMuNzA0NCwzMjUuMjUxMywzMDkuNTM3OCIgZmlsbD0iIzIxOTZGMyIvPjx0ZXh0IHk9IjI4MC41NDgxIiB4PSIzMzUuNjY3OSIgdGV4dExlbmd0aD0iNDEyLjk4MjIiIGxlbmd0aEFkanVzdD0ic3BhY2luZyIgZm9udC1zaXplPSIxMi41IiBmb250LWZhbWlseT0iVmVyZGFuYSIgZmlsbD0iIzIyMjIyMiI+VmFsaWRhIHNlIG8gb2JqZXRvIHBlcm1pc3Npb25zIHBvc3N1aSBhIHBlcm1pc3Npb25zIExPQU5TX1JFQUQ8L3RleHQ+PC9nPjxnIGRhdGEtcGFydGljaXBhbnQtMj0iQ3JlZG9yYSIgZGF0YS1wYXJ0aWNpcGFudC0xPSJNb3RvckNvbmZvcm1pZGFkZSIgY2xhc3M9Im1lc3NhZ2UiPjxwb2x5Z29uIHN0eWxlPSJzdHJva2U6IzIxOTZGMztzdHJva2Utd2lkdGg6MS4wNDE3OyIgcG9pbnRzPSI3NTMuODU4NCwzNTUuMzM4NSw3NjQuMjc1MSwzNTkuNTA1Miw3NTMuODU4NCwzNjMuNjcxOSw3NTguMDI1MSwzNTkuNTA1MiIgZmlsbD0iIzIxOTZGMyIvPjxsaW5lIHkyPSIzNTkuNTA1MiIgeTE9IjM1OS41MDUyIiB4Mj0iNzYwLjEwODQiIHgxPSIzMTcuOTU5NiIgc3R5bGU9InN0cm9rZTojMjE5NkYzO3N0cm9rZS13aWR0aDozLjEyNTsiLz48dGV4dCB5PSIzNDQuMDU3MiIgeD0iMzM1LjY2NzkiIHRleHRMZW5ndGg9IjE4Mi44Njc0IiBsZW5ndGhBZGp1c3Q9InNwYWNpbmciIGZvbnQtc2l6ZT0iMTIuNSIgZm9udC1mYW1pbHk9IlZlcmRhbmEiIGZpbGw9IiMyMjIyMjIiPkdFVCBMb2FucyBDb250cmFjdHMgQVBJIC0gVjI8L3RleHQ+PC9nPjxnIGRhdGEtcGFydGljaXBhbnQtMj0iTW90b3JDb25mb3JtaWRhZGUiIGRhdGEtcGFydGljaXBhbnQtMT0iQ3JlZG9yYSIgY2xhc3M9Im1lc3NhZ2UiPjxwb2x5Z29uIHN0eWxlPSJzdHJva2U6IzIxOTZGMztzdHJva2Utd2lkdGg6MS4wNDE3OyIgcG9pbnRzPSIzMjkuNDE3OSw0MDUuMzA2LDMxOS4wMDEzLDQwOS40NzI3LDMyOS40MTc5LDQxMy42MzkzLDMyNS4yNTEzLDQwOS40NzI3IiBmaWxsPSIjMjE5NkYzIi8+PGxpbmUgeTI9IjQwOS40NzI3IiB5MT0iNDA5LjQ3MjciIHgyPSI3NjUuMzE2OCIgeDE9IjMyMy4xNjc5IiBzdHlsZT0ic3Ryb2tlOiMyMTk2RjM7c3Ryb2tlLXdpZHRoOjMuMTI1OyIvPjx0ZXh0IHk9IjM5NC4wMjQ3IiB4PSIzNDYuMDg0NiIgdGV4dExlbmd0aD0iMjMuODU4NiIgbGVuZ3RoQWRqdXN0PSJzcGFjaW5nIiBmb250LXNpemU9IjEyLjUiIGZvbnQtZmFtaWx5PSJWZXJkYW5hIiBmaWxsPSIjMjIyMjIyIj4yMDA8L3RleHQ+PC9nPjxnIGRhdGEtcGFydGljaXBhbnQtMj0iTW90b3JDb25mb3JtaWRhZGUiIGRhdGEtcGFydGljaXBhbnQtMT0iTW90b3JDb25mb3JtaWRhZGUiIGNsYXNzPSJtZXNzYWdlIj48bGluZSB5Mj0iNDU5LjQ0MDEiIHkxPSI0NTkuNDQwMSIgeDI9IjM2MS43MDk2IiB4MT0iMzE3Ljk1OTYiIHN0eWxlPSJzdHJva2U6IzIxOTZGMztzdHJva2Utd2lkdGg6My4xMjU7Ii8+PGxpbmUgeTI9IjQ3Mi45ODE4IiB5MT0iNDU5LjQ0MDEiIHgyPSIzNjEuNzA5NiIgeDE9IjM2MS43MDk2IiBzdHlsZT0ic3Ryb2tlOiMyMTk2RjM7c3Ryb2tlLXdpZHRoOjMuMTI1OyIvPjxsaW5lIHkyPSI0NzIuOTgxOCIgeTE9IjQ3Mi45ODE4IiB4Mj0iMzYxLjcwOTYiIHgxPSIzMTkuMDAxMyIgc3R5bGU9InN0cm9rZTojMjE5NkYzO3N0cm9rZS13aWR0aDozLjEyNTsiLz48cG9seWdvbiBzdHlsZT0ic3Ryb2tlOiMyMTk2RjM7c3Ryb2tlLXdpZHRoOjEuMDQxNzsiIHBvaW50cz0iMzI5LjQxNzksNDY4LjgxNTEsMzE5LjAwMTMsNDcyLjk4MTgsMzI5LjQxNzksNDc3LjE0ODQsMzI1LjI1MTMsNDcyLjk4MTgiIGZpbGw9IiMyMTk2RjMiLz48dGV4dCB5PSI0NDMuOTkyMSIgeD0iMzM1LjY2NzkiIHRleHRMZW5ndGg9IjI4Ni4zMjIiIGxlbmd0aEFkanVzdD0ic3BhY2luZyIgZm9udC1zaXplPSIxMi41IiBmb250LWZhbWlseT0iVmVyZGFuYSIgZmlsbD0iIzIyMjIyMiI+VmFsaWRhIHJldG9ybm8gZGUgYWNvcmRvIGNvbSBhIGVzcGVjaWZpY2HDp8OjbzwvdGV4dD48L2c+PHBhdGggc3R5bGU9InN0cm9rZTojNjY2NjY2O3N0cm9rZS13aWR0aDoxLjA0MTc7IiBmaWxsPSIjRkZGRkZGIiBkPSJNMTg4LjUzNDUsNDg4LjYwNjggTDI4Mi40ODM5LDQ4OC42MDY4IEwyODIuNDgzOSw1MTUuNjU3NiBMMjcyLjA2NzMsNTI2LjA3NDIgTDE4NC4zNjc5LDUyNi4wNzQyIEwxODQuMzY3OSw0OTIuNzczNCBBNC4xNjY3LDQuMTY2NyAwIDAgMSAxODguNTM0NSw0ODguNjA2OCIvPjxyZWN0IHk9IjQ4OC42MDY4IiB4PSIxODQuMzY3OSIgd2lkdGg9IjY3OC4zMTQyIiBzdHlsZT0ic3Ryb2tlOiMyMTk2RjM7c3Ryb2tlLXdpZHRoOjEuMDQxNzsiIHJ5PSI0LjE2NjciIHJ4PSI0LjE2NjciIGhlaWdodD0iMjIwLjY3MDYiIGZpbGw9Im5vbmUiLz48dGV4dCB5PSI1MTEuNjY3OSIgeD0iMjEwLjQwOTUiIHRleHRMZW5ndGg9IjMwLjQwNzciIGxlbmd0aEFkanVzdD0ic3BhY2luZyIgZm9udC13ZWlnaHQ9ImJvbGQiIGZvbnQtc2l6ZT0iMTIuNSIgZm9udC1mYW1pbHk9IlZlcmRhbmEiIGZpbGw9IiM5QzI3QjAiPmxvb3A8L3RleHQ+PHRleHQgeT0iNTEyLjcwOTYiIHg9IjMwOC41MjU2IiB0ZXh0TGVuZ3RoPSIzMTkuODA1OSIgbGVuZ3RoQWRqdXN0PSJzcGFjaW5nIiBmb250LXdlaWdodD0iYm9sZCIgZm9udC1zaXplPSIxMi41IiBmb250LWZhbWlseT0iVmVyZGFuYSIgZmlsbD0iIzIyMjIyMiI+W1BhcmEgY2FkYSBjb250cmF0byBkbyB0aXBvIENQQyBpZGVudGlmaWNhZG9dPC90ZXh0PjxnIGRhdGEtcGFydGljaXBhbnQtMj0iQ3JlZG9yYSIgZGF0YS1wYXJ0aWNpcGFudC0xPSJNb3RvckNvbmZvcm1pZGFkZSIgY2xhc3M9Im1lc3NhZ2UiPjxwb2x5Z29uIHN0eWxlPSJzdHJva2U6IzIxOTZGMztzdHJva2Utd2lkdGg6MS4wNDE3OyIgcG9pbnRzPSI3NTMuODU4NCw1ODMuMzAwOCw3NjQuMjc1MSw1ODcuNDY3NCw3NTMuODU4NCw1OTEuNjM0MSw3NTguMDI1MSw1ODcuNDY3NCIgZmlsbD0iIzIxOTZGMyIvPjxsaW5lIHkyPSI1ODcuNDY3NCIgeTE9IjU4Ny40Njc0IiB4Mj0iNzYwLjEwODQiIHgxPSIzMTcuOTU5NiIgc3R5bGU9InN0cm9rZTojMjE5NkYzO3N0cm9rZS13aWR0aDozLjEyNTsiLz48dGV4dCB5PSI1NzIuMDE5NCIgeD0iMzM1LjY2NzkiIHRleHRMZW5ndGg9IjE4OS42NzkiIGxlbmd0aEFkanVzdD0ic3BhY2luZyIgZm9udC1zaXplPSIxMi41IiBmb250LWZhbWlseT0iVmVyZGFuYSIgZmlsbD0iIzIyMjIyMiI+R0VUIC9jb25jdXJyZW50LW1hbmFnZW1lbnQ8L3RleHQ+PC9nPjxnIGRhdGEtcGFydGljaXBhbnQtMj0iTW90b3JDb25mb3JtaWRhZGUiIGRhdGEtcGFydGljaXBhbnQtMT0iQ3JlZG9yYSIgY2xhc3M9Im1lc3NhZ2UiPjxwb2x5Z29uIHN0eWxlPSJzdHJva2U6IzIxOTZGMztzdHJva2Utd2lkdGg6MS4wNDE3OyIgcG9pbnRzPSIzMjkuNDE3OSw2MzMuMjY4MiwzMTkuMDAxMyw2MzcuNDM0OSwzMjkuNDE3OSw2NDEuNjAxNiwzMjUuMjUxMyw2MzcuNDM0OSIgZmlsbD0iIzIxOTZGMyIvPjxsaW5lIHkyPSI2MzcuNDM0OSIgeTE9IjYzNy40MzQ5IiB4Mj0iNzY1LjMxNjgiIHgxPSIzMjMuMTY3OSIgc3R5bGU9InN0cm9rZTojMjE5NkYzO3N0cm9rZS13aWR0aDozLjEyNTsiLz48dGV4dCB5PSI2MjEuOTg2OSIgeD0iMzQ2LjA4NDYiIHRleHRMZW5ndGg9IjIzLjg1ODYiIGxlbmd0aEFkanVzdD0ic3BhY2luZyIgZm9udC1zaXplPSIxMi41IiBmb250LWZhbWlseT0iVmVyZGFuYSIgZmlsbD0iIzIyMjIyMiI+MjAwPC90ZXh0PjwvZz48ZyBkYXRhLXBhcnRpY2lwYW50LTI9Ik1vdG9yQ29uZm9ybWlkYWRlIiBkYXRhLXBhcnRpY2lwYW50LTE9Ik1vdG9yQ29uZm9ybWlkYWRlIiBjbGFzcz0ibWVzc2FnZSI+PGxpbmUgeTI9IjY4Ny40MDIzIiB5MT0iNjg3LjQwMjMiIHgyPSIzNjEuNzA5NiIgeDE9IjMxNy45NTk2IiBzdHlsZT0ic3Ryb2tlOiMyMTk2RjM7c3Ryb2tlLXdpZHRoOjMuMTI1OyIvPjxsaW5lIHkyPSI3MDAuOTQ0IiB5MT0iNjg3LjQwMjMiIHgyPSIzNjEuNzA5NiIgeDE9IjM2MS43MDk2IiBzdHlsZT0ic3Ryb2tlOiMyMTk2RjM7c3Ryb2tlLXdpZHRoOjMuMTI1OyIvPjxsaW5lIHkyPSI3MDAuOTQ0IiB5MT0iNzAwLjk0NCIgeDI9IjM2MS43MDk2IiB4MT0iMzE5LjAwMTMiIHN0eWxlPSJzdHJva2U6IzIxOTZGMztzdHJva2Utd2lkdGg6My4xMjU7Ii8+PHBvbHlnb24gc3R5bGU9InN0cm9rZTojMjE5NkYzO3N0cm9rZS13aWR0aDoxLjA0MTc7IiBwb2ludHM9IjMyOS40MTc5LDY5Ni43NzczLDMxOS4wMDEzLDcwMC45NDQsMzI5LjQxNzksNzA1LjExMDcsMzI1LjI1MTMsNzAwLjk0NCIgZmlsbD0iIzIxOTZGMyIvPjx0ZXh0IHk9IjY3MS45NTQzIiB4PSIzMzUuNjY3OSIgdGV4dExlbmd0aD0iMjk0LjgzMDMiIGxlbmd0aEFkanVzdD0ic3BhY2luZyIgZm9udC1zaXplPSIxMi41IiBmb250LWZhbWlseT0iVmVyZGFuYSIgZmlsbD0iIzIyMjIyMiI+VmVyaWZpY2EgcmV0b3JubyBkZSBhY29yZG8gY29tIGEgZXNwZWNpZmljYcOnw6NvPC90ZXh0PjwvZz48ZyBkYXRhLXBhcnRpY2lwYW50LTI9Ik1vdG9yQ29uZm9ybWlkYWRlIiBkYXRhLXBhcnRpY2lwYW50LTE9Ik1vdG9yQ29uZm9ybWlkYWRlIiBjbGFzcz0ibWVzc2FnZSI+PGxpbmUgeTI9Ijc1OC4yMDMxIiB5MT0iNzU4LjIwMzEiIHgyPSIzNjEuNzA5NiIgeDE9IjMxNy45NTk2IiBzdHlsZT0ic3Ryb2tlOiMyMTk2RjM7c3Ryb2tlLXdpZHRoOjMuMTI1OyIvPjxsaW5lIHkyPSI3NzEuNzQ0OCIgeTE9Ijc1OC4yMDMxIiB4Mj0iMzYxLjcwOTYiIHgxPSIzNjEuNzA5NiIgc3R5bGU9InN0cm9rZTojMjE5NkYzO3N0cm9rZS13aWR0aDozLjEyNTsiLz48bGluZSB5Mj0iNzcxLjc0NDgiIHkxPSI3NzEuNzQ0OCIgeDI9IjM2MS43MDk2IiB4MT0iMzE5LjAwMTMiIHN0eWxlPSJzdHJva2U6IzIxOTZGMztzdHJva2Utd2lkdGg6My4xMjU7Ii8+PHBvbHlnb24gc3R5bGU9InN0cm9rZTojMjE5NkYzO3N0cm9rZS13aWR0aDoxLjA0MTc7IiBwb2ludHM9IjMyOS40MTc5LDc2Ny41NzgxLDMxOS4wMDEzLDc3MS43NDQ4LDMyOS40MTc5LDc3NS45MTE1LDMyNS4yNTEzLDc3MS43NDQ4IiBmaWxsPSIjMjE5NkYzIi8+PHRleHQgeT0iNzQyLjc1NTEiIHg9IjMzNS42Njc5IiB0ZXh0TGVuZ3RoPSIzODQuODIwNiIgbGVuZ3RoQWRqdXN0PSJzcGFjaW5nIiBmb250LXNpemU9IjEyLjUiIGZvbnQtZmFtaWx5PSJWZXJkYW5hIiBmaWxsPSIjMjIyMjIyIj5TZWxlY2lvbmEgdW0gY29udHJhdG8gY29tIHNpdHVhw6fDo28gaWd1YWwgIkVNX0FOREFNRU5UTyI8L3RleHQ+PC9nPjxnIGRhdGEtcGFydGljaXBhbnQtMj0iQ3JlZG9yYSIgZGF0YS1wYXJ0aWNpcGFudC0xPSJNb3RvckNvbmZvcm1pZGFkZSIgY2xhc3M9Im1lc3NhZ2UiPjxwb2x5Z29uIHN0eWxlPSJzdHJva2U6IzIxOTZGMztzdHJva2Utd2lkdGg6MS4wNDE3OyIgcG9pbnRzPSI3NTMuODU4NCw4MTcuNTQ1Niw3NjQuMjc1MSw4MjEuNzEyMiw3NTMuODU4NCw4MjUuODc4OSw3NTguMDI1MSw4MjEuNzEyMiIgZmlsbD0iIzIxOTZGMyIvPjxsaW5lIHkyPSI4MjEuNzEyMiIgeTE9IjgyMS43MTIyIiB4Mj0iNzYwLjEwODQiIHgxPSIzMTcuOTU5NiIgc3R5bGU9InN0cm9rZTojMjE5NkYzO3N0cm9rZS13aWR0aDozLjEyNTsiLz48dGV4dCB5PSI4MDYuMjY0MiIgeD0iMzM1LjY2NzkiIHRleHRMZW5ndGg9IjExNS4zNDQyIiBsZW5ndGhBZGp1c3Q9InNwYWNpbmciIGZvbnQtc2l6ZT0iMTIuNSIgZm9udC1mYW1pbHk9IlZlcmRhbmEiIGZpbGw9IiMyMjIyMjIiPlBPU1QgL3BvcnRhYmlsaXRpZXM8L3RleHQ+PC9nPjxnIGRhdGEtcGFydGljaXBhbnQtMj0iTW90b3JDb25mb3JtaWRhZGUiIGRhdGEtcGFydGljaXBhbnQtMT0iQ3JlZG9yYSIgY2xhc3M9Im1lc3NhZ2UiPjxwb2x5Z29uIHN0eWxlPSJzdHJva2U6IzIxOTZGMztzdHJva2Utd2lkdGg6MS4wNDE3OyIgcG9pbnRzPSIzMjkuNDE3OSw4NjcuNTEzLDMxOS4wMDEzLDg3MS42Nzk3LDMyOS40MTc5LDg3NS44NDY0LDMyNS4yNTEzLDg3MS42Nzk3IiBmaWxsPSIjMjE5NkYzIi8+PGxpbmUgeTI9Ijg3MS42Nzk3IiB5MT0iODcxLjY3OTciIHgyPSI3NjUuMzE2OCIgeDE9IjMyMy4xNjc5IiBzdHlsZT0ic3Ryb2tlOiMyMTk2RjM7c3Ryb2tlLXdpZHRoOjMuMTI1OyIvPjx0ZXh0IHk9Ijg1Ni4yMzE3IiB4PSIzNDYuMDg0NiIgdGV4dExlbmd0aD0iMjMuODU4NiIgbGVuZ3RoQWRqdXN0PSJzcGFjaW5nIiBmb250LXNpemU9IjEyLjUiIGZvbnQtZmFtaWx5PSJWZXJkYW5hIiBmaWxsPSIjMjIyMjIyIj40MjI8L3RleHQ+PC9nPjxnIGRhdGEtcGFydGljaXBhbnQtMj0iTW90b3JDb25mb3JtaWRhZGUiIGRhdGEtcGFydGljaXBhbnQtMT0iTW90b3JDb25mb3JtaWRhZGUiIGNsYXNzPSJtZXNzYWdlIj48bGluZSB5Mj0iOTIxLjY0NzEiIHkxPSI5MjEuNjQ3MSIgeDI9IjM2MS43MDk2IiB4MT0iMzE3Ljk1OTYiIHN0eWxlPSJzdHJva2U6IzIxOTZGMztzdHJva2Utd2lkdGg6My4xMjU7Ii8+PGxpbmUgeTI9IjkzNS4xODg4IiB5MT0iOTIxLjY0NzEiIHgyPSIzNjEuNzA5NiIgeDE9IjM2MS43MDk2IiBzdHlsZT0ic3Ryb2tlOiMyMTk2RjM7c3Ryb2tlLXdpZHRoOjMuMTI1OyIvPjxsaW5lIHkyPSI5MzUuMTg4OCIgeTE9IjkzNS4xODg4IiB4Mj0iMzYxLjcwOTYiIHgxPSIzMTkuMDAxMyIgc3R5bGU9InN0cm9rZTojMjE5NkYzO3N0cm9rZS13aWR0aDozLjEyNTsiLz48cG9seWdvbiBzdHlsZT0ic3Ryb2tlOiMyMTk2RjM7c3Ryb2tlLXdpZHRoOjEuMDQxNzsiIHBvaW50cz0iMzI5LjQxNzksOTMxLjAyMjEsMzE5LjAwMTMsOTM1LjE4ODgsMzI5LjQxNzksOTM5LjM1NTUsMzI1LjI1MTMsOTM1LjE4ODgiIGZpbGw9IiMyMTk2RjMiLz48dGV4dCB5PSI5MDYuMTk5MSIgeD0iMzM1LjY2NzkiIHRleHRMZW5ndGg9IjI4Ni4zMjIiIGxlbmd0aEFkanVzdD0ic3BhY2luZyIgZm9udC1zaXplPSIxMi41IiBmb250LWZhbWlseT0iVmVyZGFuYSIgZmlsbD0iIzIyMjIyMiI+VmFsaWRhIHJldG9ybm8gZGUgYWNvcmRvIGNvbSBhIGVzcGVjaWZpY2HDp8OjbzwvdGV4dD48L2c+PC9nPjwvc3ZnPg==;" vertex="1" parent="1">
                    <mxGeometry width="1005" height="983" as="geometry"/>
                </mxCell>
            </root>
        </mxGraphModel>
    </diagram>
    <diagram id="IIrE53sSL8qvb3i7A8T_" name="Validação do prazo da proposta">
        <mxGraphModel grid="1" page="1" gridSize="10" guides="1" tooltips="1" connect="1" arrows="1" fold="1" pageScale="1" pageWidth="827" pageHeight="1169" math="0" shadow="0">
            <root>
                <mxCell id="0"/>
                <mxCell id="1" parent="0"/>
                <mxCell id="qsl9yZpBVN8xCddretQb-1" value="" style="shape=image;verticalLabelPosition=bottom;labelBackgroundColor=default;verticalAlign=top;aspect=fixed;imageAspect=0;editableCssRules=.*;image=data:image/svg+xml,PHN2ZyB4bWxuczp4bGluaz0iaHR0cDovL3d3dy53My5vcmcvMTk5OS94bGluayIgeG1sbnM9Imh0dHA6Ly93d3cudzMub3JnLzIwMDAvc3ZnIiB6b29tQW5kUGFuPSJtYWduaWZ5IiB3aWR0aD0iMTAwOC4zNDc5NjQ2NDE5OTE3IiB2aWV3Qm94PSIyMC44MzMyOTk2MzY4NDA4MiAyMC44MzMyOTk2MzY4NDA4MiAxMDA4LjI2ODEyNzQ0MTQwNjIgOTgyLjAzMTE4ODk2NDg0MzgiIHZlcnNpb249IjEuMSIgc3R5bGU9IndpZHRoOjEwNTJweDtoZWlnaHQ6MTAxOXB4OyIgcHJlc2VydmVBc3BlY3RSYXRpbz0ibm9uZSIgaGVpZ2h0PSI5ODIuNzk0MTY2NDg0Mjc3OSIgZGF0YS1kaWFncmFtLXR5cGU9IlNFUVVFTkNFIj48dGl0bGU+VmFsaWRhw6fDo28gZG8gcHJhem8gZGEgcHJvcG9zdGEgLSBQcm9wb3N0YSBjb20gcHJhem8gc3VwZXJpb3IgYW8gY29udHJhdG8gb3JpZ2luYWw8L3RpdGxlPjxkZWZzPjxsaW5lYXJHcmFkaWVudCB5Mj0iMTAwJSIgeTE9IjAlIiB4Mj0iNTAlIiB4MT0iNTAlIiBpZD0iZzE0aGRya2MycGZjMWkwIj48c3RvcCBzdG9wLWNvbG9yPSIjRkZGRkZGIiBvZmZzZXQ9IjAlIi8+PHN0b3Agc3RvcC1jb2xvcj0iI0ZGRkZGRiIgb2Zmc2V0PSIxMDAlIi8+PC9saW5lYXJHcmFkaWVudD48ZmlsdGVyIHk9Ii0xIiB4PSItMSIgd2lkdGg9IjMwMCUiIGlkPSJmMTRoZHJrYzJwZmMxaSIgaGVpZ2h0PSIzMDAlIj48ZmVHYXVzc2lhbkJsdXIgc3RkRGV2aWF0aW9uPSIyLjA4MzMiIHJlc3VsdD0iYmx1ck91dCIvPjxmZUNvbG9yTWF0cml4IHZhbHVlcz0iMCAwIDAgMCAwIDAgMCAwIDAgMCAwIDAgMCAwIDAgMCAwIDAgLjQgMCIgdHlwZT0ibWF0cml4IiByZXN1bHQ9ImJsdXJPdXQyIiBpbj0iYmx1ck91dCIvPjxmZU9mZnNldCByZXN1bHQ9ImJsdXJPdXQzIiBpbj0iYmx1ck91dDIiIGR5PSI0LjE2NjciIGR4PSI0LjE2NjciLz48ZmVCbGVuZCBtb2RlPSJub3JtYWwiIGluMj0iYmx1ck91dDMiIGluPSJTb3VyY2VHcmFwaGljIi8+PC9maWx0ZXI+PGxpbmVhckdyYWRpZW50IHkyPSIxMDAlIiB5MT0iMCUiIHgyPSI1MCUiIHgxPSI1MCUiIGlkPSJnMTRoZHJrYzJwZmMxaTEiPjxzdG9wIHN0b3AtY29sb3I9IiM0REFCRjUiIG9mZnNldD0iMCUiLz48c3RvcCBzdG9wLWNvbG9yPSIjMjE5NkYzIiBvZmZzZXQ9IjEwMCUiLz48L2xpbmVhckdyYWRpZW50PjwvZGVmcz48Zz48cmVjdCB5PSIyMC44MzMzIiB4PSIyMC44MzMzIiB3aWR0aD0iMTAwOC4yNjgyIiBzdHlsZT0ic3Ryb2tlOiNDQ0NDQ0M7c3Ryb2tlLXdpZHRoOjEuMDQxNzsiIHJ5PSI0LjE2NjciIHJ4PSI0LjE2NjciIGhlaWdodD0iNTcuNTg0NiIgZmlsbD0idXJsKCNnMTRoZHJrYzJwZmMxaTApIi8+PHRleHQgeT0iNTYuODM4IiB4PSIzNy41IiB0ZXh0TGVuZ3RoPSI5NzQuOTM0OSIgbGVuZ3RoQWRqdXN0PSJzcGFjaW5nIiBmb250LXdlaWdodD0iYm9sZCIgZm9udC1zaXplPSIyMC44MzMzIiBmb250LWZhbWlseT0iVmVyZGFuYSIgZmlsbD0iIzIxOTZGMyI+VmFsaWRhw6fDo28gZG8gcHJhem8gZGEgcHJvcG9zdGEgLSBQcm9wb3N0YSBjb20gcHJhem8gc3VwZXJpb3IgYW8gY29udHJhdG8gb3JpZ2luYWw8L3RleHQ+PHJlY3QgeT0iNDg4LjYwNjgiIHg9IjE4Ni4zMzEyIiB3aWR0aD0iNjc4LjMxNDIiIHN0eWxlPSJzdHJva2U6IzIxOTZGMztzdHJva2Utd2lkdGg6MS4wNDE3OyIgcnk9IjQuMTY2NyIgcng9IjQuMTY2NyIgaGVpZ2h0PSIyMjAuNjcwNiIgZmlsdGVyPSJ1cmwoI2YxNGhkcmtjMnBmYzFpKSIgZmlsbD0idXJsKCNnMTRoZHJrYzJwZmMxaTApIi8+PGc+PHRpdGxlPk1vdG9yQ29uZm9ybWlkYWRlPC90aXRsZT48cmVjdCB5PSIxNDQuMDEwNCIgeD0iMzE1Ljc1NjIiIHdpZHRoPSI4LjMzMzMiIGhlaWdodD0iODA5LjkyODQiIGZpbGwtb3BhY2l0eT0iMC4wMDAwMCIgZmlsbD0iIzAwMDAwMCIvPjxsaW5lIHkyPSI5NTMuOTM4OCIgeTE9IjE0NC4wMTA0IiB4Mj0iMzE5LjY2NDUiIHgxPSIzMTkuNjY0NSIgc3R5bGU9InN0cm9rZTojQ0NDQ0NDO3N0cm9rZS13aWR0aDoxLjA0MTc7c3Ryb2tlLWRhc2hhcnJheTo1LjAsNS4wOyIvPjwvZz48Zz48dGl0bGU+Q3JlZG9yYTwvdGl0bGU+PHJlY3QgeT0iMTQ0LjAxMDQiIHg9Ijc2NC4xNTUxIiB3aWR0aD0iOC4zMzMzIiBoZWlnaHQ9IjgwOS45Mjg0IiBmaWxsLW9wYWNpdHk9IjAuMDAwMDAiIGZpbGw9IiMwMDAwMDAiLz48bGluZSB5Mj0iOTUzLjkzODgiIHkxPSIxNDQuMDEwNCIgeDI9Ijc2Ny44MzE0IiB4MT0iNzY3LjgzMTQiIHN0eWxlPSJzdHJva2U6I0NDQ0NDQztzdHJva2Utd2lkdGg6MS4wNDE3O3N0cm9rZS1kYXNoYXJyYXk6NS4wLDUuMDsiLz48L2c+PGcgZGF0YS1wYXJ0aWNpcGFudD0iTW90b3JDb25mb3JtaWRhZGUiIGNsYXNzPSJwYXJ0aWNpcGFudCBwYXJ0aWNpcGFudC1oZWFkIj48cmVjdCB5PSI4OS44NzYzIiB4PSIyMzguNDE0NSIgd2lkdGg9IjE1OS44OTE4IiBzdHlsZT0ic3Ryb2tlOiMyMTk2RjM7c3Ryb2tlLXdpZHRoOjEuMDQxNzsiIHJ5PSI0LjE2NjciIHJ4PSI0LjE2NjciIGhlaWdodD0iNDkuOTY3NCIgZmlsdGVyPSJ1cmwoI2YxNGhkcmtjMnBmYzFpKSIgZmlsbD0idXJsKCNnMTRoZHJrYzJwZmMxaTEpIi8+PHRleHQgeT0iMTE5LjE4NzQiIHg9IjI1Ni4xMjI4IiB0ZXh0TGVuZ3RoPSIxMjQuNDc1MSIgbGVuZ3RoQWRqdXN0PSJzcGFjaW5nIiBmb250LXNpemU9IjEyLjUiIGZvbnQtZmFtaWx5PSJWZXJkYW5hIiBmaWxsPSIjRkZGRkZGIj5Nb3RvckNvbmZvcm1pZGFkZTwvdGV4dD48L2c+PGcgZGF0YS1wYXJ0aWNpcGFudD0iTW90b3JDb25mb3JtaWRhZGUiIGNsYXNzPSJwYXJ0aWNpcGFudCBwYXJ0aWNpcGFudC10YWlsIj48cmVjdCB5PSI5NTIuODk3MSIgeD0iMjM4LjQxNDUiIHdpZHRoPSIxNTkuODkxOCIgc3R5bGU9InN0cm9rZTojMjE5NkYzO3N0cm9rZS13aWR0aDoxLjA0MTc7IiByeT0iNC4xNjY3IiByeD0iNC4xNjY3IiBoZWlnaHQ9IjQ5Ljk2NzQiIGZpbHRlcj0idXJsKCNmMTRoZHJrYzJwZmMxaSkiIGZpbGw9InVybCgjZzE0aGRya2MycGZjMWkxKSIvPjx0ZXh0IHk9Ijk4Mi4yMDgzIiB4PSIyNTYuMTIyOCIgdGV4dExlbmd0aD0iMTI0LjQ3NTEiIGxlbmd0aEFkanVzdD0ic3BhY2luZyIgZm9udC1zaXplPSIxMi41IiBmb250LWZhbWlseT0iVmVyZGFuYSIgZmlsbD0iI0ZGRkZGRiI+TW90b3JDb25mb3JtaWRhZGU8L3RleHQ+PC9nPjxnIGRhdGEtcGFydGljaXBhbnQ9IkNyZWRvcmEiIGNsYXNzPSJwYXJ0aWNpcGFudCBwYXJ0aWNpcGFudC1oZWFkIj48cmVjdCB5PSI4OS44NzYzIiB4PSI3MjQuMDgxNCIgd2lkdGg9Ijg1LjM1NTYiIHN0eWxlPSJzdHJva2U6IzIxOTZGMztzdHJva2Utd2lkdGg6MS4wNDE3OyIgcnk9IjQuMTY2NyIgcng9IjQuMTY2NyIgaGVpZ2h0PSI0OS45Njc0IiBmaWx0ZXI9InVybCgjZjE0aGRya2MycGZjMWkpIiBmaWxsPSJ1cmwoI2cxNGhkcmtjMnBmYzFpMSkiLz48dGV4dCB5PSIxMTkuMTg3NCIgeD0iNzQxLjc4OTgiIHRleHRMZW5ndGg9IjQ5LjkzOSIgbGVuZ3RoQWRqdXN0PSJzcGFjaW5nIiBmb250LXNpemU9IjEyLjUiIGZvbnQtZmFtaWx5PSJWZXJkYW5hIiBmaWxsPSIjRkZGRkZGIj5DcmVkb3JhPC90ZXh0PjwvZz48ZyBkYXRhLXBhcnRpY2lwYW50PSJDcmVkb3JhIiBjbGFzcz0icGFydGljaXBhbnQgcGFydGljaXBhbnQtdGFpbCI+PHJlY3QgeT0iOTUyLjg5NzEiIHg9IjcyNC4wODE0IiB3aWR0aD0iODUuMzU1NiIgc3R5bGU9InN0cm9rZTojMjE5NkYzO3N0cm9rZS13aWR0aDoxLjA0MTc7IiByeT0iNC4xNjY3IiByeD0iNC4xNjY3IiBoZWlnaHQ9IjQ5Ljk2NzQiIGZpbHRlcj0idXJsKCNmMTRoZHJrYzJwZmMxaSkiIGZpbGw9InVybCgjZzE0aGRya2MycGZjMWkxKSIvPjx0ZXh0IHk9Ijk4Mi4yMDgzIiB4PSI3NDEuNzg5OCIgdGV4dExlbmd0aD0iNDkuOTM5IiBsZW5ndGhBZGp1c3Q9InNwYWNpbmciIGZvbnQtc2l6ZT0iMTIuNSIgZm9udC1mYW1pbHk9IlZlcmRhbmEiIGZpbGw9IiNGRkZGRkYiPkNyZWRvcmE8L3RleHQ+PC9nPjxnIGRhdGEtcGFydGljaXBhbnQtMj0iQ3JlZG9yYSIgZGF0YS1wYXJ0aWNpcGFudC0xPSJNb3RvckNvbmZvcm1pZGFkZSIgY2xhc3M9Im1lc3NhZ2UiPjxwb2x5Z29uIHN0eWxlPSJzdHJva2U6IzIxOTZGMztzdHJva2Utd2lkdGg6MS4wNDE3OyIgcG9pbnRzPSI3NTUuODIxNywxOTEuODk0NSw3NjYuMjM4NCwxOTYuMDYxMiw3NTUuODIxNywyMDAuMjI3OSw3NTkuOTg4NCwxOTYuMDYxMiIgZmlsbD0iIzIxOTZGMyIvPjxsaW5lIHkyPSIxOTYuMDYxMiIgeTE9IjE5Ni4wNjEyIiB4Mj0iNzYyLjA3MTciIHgxPSIzMTkuOTIyOSIgc3R5bGU9InN0cm9rZTojMjE5NkYzO3N0cm9rZS13aWR0aDozLjEyNTsiLz48dGV4dCB5PSIxODAuNjEzMiIgeD0iMzM3LjYzMTIiIHRleHRMZW5ndGg9IjE3MC41OTMzIiBsZW5ndGhBZGp1c3Q9InNwYWNpbmciIGZvbnQtc2l6ZT0iMTIuNSIgZm9udC1mYW1pbHk9IlZlcmRhbmEiIGZpbGw9IiMyMjIyMjIiPkdFVCAvY29uc2VudHMve2NvbnNlbnRJZH08L3RleHQ+PC9nPjxnIGRhdGEtcGFydGljaXBhbnQtMj0iTW90b3JDb25mb3JtaWRhZGUiIGRhdGEtcGFydGljaXBhbnQtMT0iQ3JlZG9yYSIgY2xhc3M9Im1lc3NhZ2UiPjxwb2x5Z29uIHN0eWxlPSJzdHJva2U6IzIxOTZGMztzdHJva2Utd2lkdGg6MS4wNDE3OyIgcG9pbnRzPSIzMzEuMzgxMiwyNDEuODYyLDMyMC45NjQ2LDI0Ni4wMjg2LDMzMS4zODEyLDI1MC4xOTUzLDMyNy4yMTQ2LDI0Ni4wMjg2IiBmaWxsPSIjMjE5NkYzIi8+PGxpbmUgeTI9IjI0Ni4wMjg2IiB5MT0iMjQ2LjAyODYiIHgyPSI3NjcuMjgwMSIgeDE9IjMyNS4xMzEyIiBzdHlsZT0ic3Ryb2tlOiMyMTk2RjM7c3Ryb2tlLXdpZHRoOjMuMTI1OyIvPjx0ZXh0IHk9IjIzMC41ODA2IiB4PSIzNDguMDQ3OSIgdGV4dExlbmd0aD0iMjMuODU4NiIgbGVuZ3RoQWRqdXN0PSJzcGFjaW5nIiBmb250LXNpemU9IjEyLjUiIGZvbnQtZmFtaWx5PSJWZXJkYW5hIiBmaWxsPSIjMjIyMjIyIj4yMDA8L3RleHQ+PC9nPjxnIGRhdGEtcGFydGljaXBhbnQtMj0iTW90b3JDb25mb3JtaWRhZGUiIGRhdGEtcGFydGljaXBhbnQtMT0iTW90b3JDb25mb3JtaWRhZGUiIGNsYXNzPSJtZXNzYWdlIj48bGluZSB5Mj0iMjk1Ljk5NjEiIHkxPSIyOTUuOTk2MSIgeDI9IjM2My42NzI5IiB4MT0iMzE5LjkyMjkiIHN0eWxlPSJzdHJva2U6IzIxOTZGMztzdHJva2Utd2lkdGg6My4xMjU7Ii8+PGxpbmUgeTI9IjMwOS41Mzc4IiB5MT0iMjk1Ljk5NjEiIHgyPSIzNjMuNjcyOSIgeDE9IjM2My42NzI5IiBzdHlsZT0ic3Ryb2tlOiMyMTk2RjM7c3Ryb2tlLXdpZHRoOjMuMTI1OyIvPjxsaW5lIHkyPSIzMDkuNTM3OCIgeTE9IjMwOS41Mzc4IiB4Mj0iMzYzLjY3MjkiIHgxPSIzMjAuOTY0NiIgc3R5bGU9InN0cm9rZTojMjE5NkYzO3N0cm9rZS13aWR0aDozLjEyNTsiLz48cG9seWdvbiBzdHlsZT0ic3Ryb2tlOiMyMTk2RjM7c3Ryb2tlLXdpZHRoOjEuMDQxNzsiIHBvaW50cz0iMzMxLjM4MTIsMzA1LjM3MTEsMzIwLjk2NDYsMzA5LjUzNzgsMzMxLjM4MTIsMzEzLjcwNDQsMzI3LjIxNDYsMzA5LjUzNzgiIGZpbGw9IiMyMTk2RjMiLz48dGV4dCB5PSIyODAuNTQ4MSIgeD0iMzM3LjYzMTIiIHRleHRMZW5ndGg9IjQxMi45ODIyIiBsZW5ndGhBZGp1c3Q9InNwYWNpbmciIGZvbnQtc2l6ZT0iMTIuNSIgZm9udC1mYW1pbHk9IlZlcmRhbmEiIGZpbGw9IiMyMjIyMjIiPlZhbGlkYSBzZSBvIG9iamV0byBwZXJtaXNzaW9ucyBwb3NzdWkgYSBwZXJtaXNzaW9ucyBMT0FOU19SRUFEPC90ZXh0PjwvZz48ZyBkYXRhLXBhcnRpY2lwYW50LTI9IkNyZWRvcmEiIGRhdGEtcGFydGljaXBhbnQtMT0iTW90b3JDb25mb3JtaWRhZGUiIGNsYXNzPSJtZXNzYWdlIj48cG9seWdvbiBzdHlsZT0ic3Ryb2tlOiMyMTk2RjM7c3Ryb2tlLXdpZHRoOjEuMDQxNzsiIHBvaW50cz0iNzU1LjgyMTcsMzU1LjMzODUsNzY2LjIzODQsMzU5LjUwNTIsNzU1LjgyMTcsMzYzLjY3MTksNzU5Ljk4ODQsMzU5LjUwNTIiIGZpbGw9IiMyMTk2RjMiLz48bGluZSB5Mj0iMzU5LjUwNTIiIHkxPSIzNTkuNTA1MiIgeDI9Ijc2Mi4wNzE3IiB4MT0iMzE5LjkyMjkiIHN0eWxlPSJzdHJva2U6IzIxOTZGMztzdHJva2Utd2lkdGg6My4xMjU7Ii8+PHRleHQgeT0iMzQ0LjA1NzIiIHg9IjMzNy42MzEyIiB0ZXh0TGVuZ3RoPSIxODIuODY3NCIgbGVuZ3RoQWRqdXN0PSJzcGFjaW5nIiBmb250LXNpemU9IjEyLjUiIGZvbnQtZmFtaWx5PSJWZXJkYW5hIiBmaWxsPSIjMjIyMjIyIj5HRVQgTG9hbnMgQ29udHJhY3RzIEFQSSAtIFYyPC90ZXh0PjwvZz48ZyBkYXRhLXBhcnRpY2lwYW50LTI9Ik1vdG9yQ29uZm9ybWlkYWRlIiBkYXRhLXBhcnRpY2lwYW50LTE9IkNyZWRvcmEiIGNsYXNzPSJtZXNzYWdlIj48cG9seWdvbiBzdHlsZT0ic3Ryb2tlOiMyMTk2RjM7c3Ryb2tlLXdpZHRoOjEuMDQxNzsiIHBvaW50cz0iMzMxLjM4MTIsNDA1LjMwNiwzMjAuOTY0Niw0MDkuNDcyNywzMzEuMzgxMiw0MTMuNjM5MywzMjcuMjE0Niw0MDkuNDcyNyIgZmlsbD0iIzIxOTZGMyIvPjxsaW5lIHkyPSI0MDkuNDcyNyIgeTE9IjQwOS40NzI3IiB4Mj0iNzY3LjI4MDEiIHgxPSIzMjUuMTMxMiIgc3R5bGU9InN0cm9rZTojMjE5NkYzO3N0cm9rZS13aWR0aDozLjEyNTsiLz48dGV4dCB5PSIzOTQuMDI0NyIgeD0iMzQ4LjA0NzkiIHRleHRMZW5ndGg9IjIzLjg1ODYiIGxlbmd0aEFkanVzdD0ic3BhY2luZyIgZm9udC1zaXplPSIxMi41IiBmb250LWZhbWlseT0iVmVyZGFuYSIgZmlsbD0iIzIyMjIyMiI+MjAwPC90ZXh0PjwvZz48ZyBkYXRhLXBhcnRpY2lwYW50LTI9Ik1vdG9yQ29uZm9ybWlkYWRlIiBkYXRhLXBhcnRpY2lwYW50LTE9Ik1vdG9yQ29uZm9ybWlkYWRlIiBjbGFzcz0ibWVzc2FnZSI+PGxpbmUgeTI9IjQ1OS40NDAxIiB5MT0iNDU5LjQ0MDEiIHgyPSIzNjMuNjcyOSIgeDE9IjMxOS45MjI5IiBzdHlsZT0ic3Ryb2tlOiMyMTk2RjM7c3Ryb2tlLXdpZHRoOjMuMTI1OyIvPjxsaW5lIHkyPSI0NzIuOTgxOCIgeTE9IjQ1OS40NDAxIiB4Mj0iMzYzLjY3MjkiIHgxPSIzNjMuNjcyOSIgc3R5bGU9InN0cm9rZTojMjE5NkYzO3N0cm9rZS13aWR0aDozLjEyNTsiLz48bGluZSB5Mj0iNDcyLjk4MTgiIHkxPSI0NzIuOTgxOCIgeDI9IjM2My42NzI5IiB4MT0iMzIwLjk2NDYiIHN0eWxlPSJzdHJva2U6IzIxOTZGMztzdHJva2Utd2lkdGg6My4xMjU7Ii8+PHBvbHlnb24gc3R5bGU9InN0cm9rZTojMjE5NkYzO3N0cm9rZS13aWR0aDoxLjA0MTc7IiBwb2ludHM9IjMzMS4zODEyLDQ2OC44MTUxLDMyMC45NjQ2LDQ3Mi45ODE4LDMzMS4zODEyLDQ3Ny4xNDg0LDMyNy4yMTQ2LDQ3Mi45ODE4IiBmaWxsPSIjMjE5NkYzIi8+PHRleHQgeT0iNDQzLjk5MjEiIHg9IjMzNy42MzEyIiB0ZXh0TGVuZ3RoPSIyODYuMzIyIiBsZW5ndGhBZGp1c3Q9InNwYWNpbmciIGZvbnQtc2l6ZT0iMTIuNSIgZm9udC1mYW1pbHk9IlZlcmRhbmEiIGZpbGw9IiMyMjIyMjIiPlZhbGlkYSByZXRvcm5vIGRlIGFjb3JkbyBjb20gYSBlc3BlY2lmaWNhw6fDo288L3RleHQ+PC9nPjxwYXRoIHN0eWxlPSJzdHJva2U6IzY2NjY2NjtzdHJva2Utd2lkdGg6MS4wNDE3OyIgZmlsbD0iI0ZGRkZGRiIgZD0iTTE5MC40OTc4LDQ4OC42MDY4IEwyODQuNDQ3Miw0ODguNjA2OCBMMjg0LjQ0NzIsNTE1LjY1NzYgTDI3NC4wMzA2LDUyNi4wNzQyIEwxODYuMzMxMiw1MjYuMDc0MiBMMTg2LjMzMTIsNDkyLjc3MzQgQTQuMTY2Nyw0LjE2NjcgMCAwIDEgMTkwLjQ5NzgsNDg4LjYwNjgiLz48cmVjdCB5PSI0ODguNjA2OCIgeD0iMTg2LjMzMTIiIHdpZHRoPSI2NzguMzE0MiIgc3R5bGU9InN0cm9rZTojMjE5NkYzO3N0cm9rZS13aWR0aDoxLjA0MTc7IiByeT0iNC4xNjY3IiByeD0iNC4xNjY3IiBoZWlnaHQ9IjIyMC42NzA2IiBmaWxsPSJub25lIi8+PHRleHQgeT0iNTExLjY2NzkiIHg9IjIxMi4zNzI4IiB0ZXh0TGVuZ3RoPSIzMC40MDc3IiBsZW5ndGhBZGp1c3Q9InNwYWNpbmciIGZvbnQtd2VpZ2h0PSJib2xkIiBmb250LXNpemU9IjEyLjUiIGZvbnQtZmFtaWx5PSJWZXJkYW5hIiBmaWxsPSIjOUMyN0IwIj5sb29wPC90ZXh0Pjx0ZXh0IHk9IjUxMi43MDk2IiB4PSIzMTAuNDg4OSIgdGV4dExlbmd0aD0iMzE5LjgwNTkiIGxlbmd0aEFkanVzdD0ic3BhY2luZyIgZm9udC13ZWlnaHQ9ImJvbGQiIGZvbnQtc2l6ZT0iMTIuNSIgZm9udC1mYW1pbHk9IlZlcmRhbmEiIGZpbGw9IiMyMjIyMjIiPltQYXJhIGNhZGEgY29udHJhdG8gZG8gdGlwbyBDUEMgaWRlbnRpZmljYWRvXTwvdGV4dD48ZyBkYXRhLXBhcnRpY2lwYW50LTI9IkNyZWRvcmEiIGRhdGEtcGFydGljaXBhbnQtMT0iTW90b3JDb25mb3JtaWRhZGUiIGNsYXNzPSJtZXNzYWdlIj48cG9seWdvbiBzdHlsZT0ic3Ryb2tlOiMyMTk2RjM7c3Ryb2tlLXdpZHRoOjEuMDQxNzsiIHBvaW50cz0iNzU1LjgyMTcsNTgzLjMwMDgsNzY2LjIzODQsNTg3LjQ2NzQsNzU1LjgyMTcsNTkxLjYzNDEsNzU5Ljk4ODQsNTg3LjQ2NzQiIGZpbGw9IiMyMTk2RjMiLz48bGluZSB5Mj0iNTg3LjQ2NzQiIHkxPSI1ODcuNDY3NCIgeDI9Ijc2Mi4wNzE3IiB4MT0iMzE5LjkyMjkiIHN0eWxlPSJzdHJva2U6IzIxOTZGMztzdHJva2Utd2lkdGg6My4xMjU7Ii8+PHRleHQgeT0iNTcyLjAxOTQiIHg9IjMzNy42MzEyIiB0ZXh0TGVuZ3RoPSIxODkuNjc5IiBsZW5ndGhBZGp1c3Q9InNwYWNpbmciIGZvbnQtc2l6ZT0iMTIuNSIgZm9udC1mYW1pbHk9IlZlcmRhbmEiIGZpbGw9IiMyMjIyMjIiPkdFVCAvY29uY3VycmVudC1tYW5hZ2VtZW50PC90ZXh0PjwvZz48ZyBkYXRhLXBhcnRpY2lwYW50LTI9Ik1vdG9yQ29uZm9ybWlkYWRlIiBkYXRhLXBhcnRpY2lwYW50LTE9IkNyZWRvcmEiIGNsYXNzPSJtZXNzYWdlIj48cG9seWdvbiBzdHlsZT0ic3Ryb2tlOiMyMTk2RjM7c3Ryb2tlLXdpZHRoOjEuMDQxNzsiIHBvaW50cz0iMzMxLjM4MTIsNjMzLjI2ODIsMzIwLjk2NDYsNjM3LjQzNDksMzMxLjM4MTIsNjQxLjYwMTYsMzI3LjIxNDYsNjM3LjQzNDkiIGZpbGw9IiMyMTk2RjMiLz48bGluZSB5Mj0iNjM3LjQzNDkiIHkxPSI2MzcuNDM0OSIgeDI9Ijc2Ny4yODAxIiB4MT0iMzI1LjEzMTIiIHN0eWxlPSJzdHJva2U6IzIxOTZGMztzdHJva2Utd2lkdGg6My4xMjU7Ii8+PHRleHQgeT0iNjIxLjk4NjkiIHg9IjM0OC4wNDc5IiB0ZXh0TGVuZ3RoPSIyMy44NTg2IiBsZW5ndGhBZGp1c3Q9InNwYWNpbmciIGZvbnQtc2l6ZT0iMTIuNSIgZm9udC1mYW1pbHk9IlZlcmRhbmEiIGZpbGw9IiMyMjIyMjIiPjIwMDwvdGV4dD48L2c+PGcgZGF0YS1wYXJ0aWNpcGFudC0yPSJNb3RvckNvbmZvcm1pZGFkZSIgZGF0YS1wYXJ0aWNpcGFudC0xPSJNb3RvckNvbmZvcm1pZGFkZSIgY2xhc3M9Im1lc3NhZ2UiPjxsaW5lIHkyPSI2ODcuNDAyMyIgeTE9IjY4Ny40MDIzIiB4Mj0iMzYzLjY3MjkiIHgxPSIzMTkuOTIyOSIgc3R5bGU9InN0cm9rZTojMjE5NkYzO3N0cm9rZS13aWR0aDozLjEyNTsiLz48bGluZSB5Mj0iNzAwLjk0NCIgeTE9IjY4Ny40MDIzIiB4Mj0iMzYzLjY3MjkiIHgxPSIzNjMuNjcyOSIgc3R5bGU9InN0cm9rZTojMjE5NkYzO3N0cm9rZS13aWR0aDozLjEyNTsiLz48bGluZSB5Mj0iNzAwLjk0NCIgeTE9IjcwMC45NDQiIHgyPSIzNjMuNjcyOSIgeDE9IjMyMC45NjQ2IiBzdHlsZT0ic3Ryb2tlOiMyMTk2RjM7c3Ryb2tlLXdpZHRoOjMuMTI1OyIvPjxwb2x5Z29uIHN0eWxlPSJzdHJva2U6IzIxOTZGMztzdHJva2Utd2lkdGg6MS4wNDE3OyIgcG9pbnRzPSIzMzEuMzgxMiw2OTYuNzc3MywzMjAuOTY0Niw3MDAuOTQ0LDMzMS4zODEyLDcwNS4xMTA3LDMyNy4yMTQ2LDcwMC45NDQiIGZpbGw9IiMyMTk2RjMiLz48dGV4dCB5PSI2NzEuOTU0MyIgeD0iMzM3LjYzMTIiIHRleHRMZW5ndGg9IjI5NC44MzAzIiBsZW5ndGhBZGp1c3Q9InNwYWNpbmciIGZvbnQtc2l6ZT0iMTIuNSIgZm9udC1mYW1pbHk9IlZlcmRhbmEiIGZpbGw9IiMyMjIyMjIiPlZlcmlmaWNhIHJldG9ybm8gZGUgYWNvcmRvIGNvbSBhIGVzcGVjaWZpY2HDp8OjbzwvdGV4dD48L2c+PGcgZGF0YS1wYXJ0aWNpcGFudC0yPSJNb3RvckNvbmZvcm1pZGFkZSIgZGF0YS1wYXJ0aWNpcGFudC0xPSJNb3RvckNvbmZvcm1pZGFkZSIgY2xhc3M9Im1lc3NhZ2UiPjxsaW5lIHkyPSI3NTguMjAzMSIgeTE9Ijc1OC4yMDMxIiB4Mj0iMzYzLjY3MjkiIHgxPSIzMTkuOTIyOSIgc3R5bGU9InN0cm9rZTojMjE5NkYzO3N0cm9rZS13aWR0aDozLjEyNTsiLz48bGluZSB5Mj0iNzcxLjc0NDgiIHkxPSI3NTguMjAzMSIgeDI9IjM2My42NzI5IiB4MT0iMzYzLjY3MjkiIHN0eWxlPSJzdHJva2U6IzIxOTZGMztzdHJva2Utd2lkdGg6My4xMjU7Ii8+PGxpbmUgeTI9Ijc3MS43NDQ4IiB5MT0iNzcxLjc0NDgiIHgyPSIzNjMuNjcyOSIgeDE9IjMyMC45NjQ2IiBzdHlsZT0ic3Ryb2tlOiMyMTk2RjM7c3Ryb2tlLXdpZHRoOjMuMTI1OyIvPjxwb2x5Z29uIHN0eWxlPSJzdHJva2U6IzIxOTZGMztzdHJva2Utd2lkdGg6MS4wNDE3OyIgcG9pbnRzPSIzMzEuMzgxMiw3NjcuNTc4MSwzMjAuOTY0Niw3NzEuNzQ0OCwzMzEuMzgxMiw3NzUuOTExNSwzMjcuMjE0Niw3NzEuNzQ0OCIgZmlsbD0iIzIxOTZGMyIvPjx0ZXh0IHk9Ijc0Mi43NTUxIiB4PSIzMzcuNjMxMiIgdGV4dExlbmd0aD0iMzUzLjM3NTIiIGxlbmd0aEFkanVzdD0ic3BhY2luZyIgZm9udC1zaXplPSIxMi41IiBmb250LWZhbWlseT0iVmVyZGFuYSIgZmlsbD0iIzIyMjIyMiI+U2VsZWNpb25hIHVtIGNvbnRyYXRvIGNvbSBzaXR1YcOnw6NvIGlndWFsICJESVNQT05JVkVMIjwvdGV4dD48L2c+PGcgZGF0YS1wYXJ0aWNpcGFudC0yPSJDcmVkb3JhIiBkYXRhLXBhcnRpY2lwYW50LTE9Ik1vdG9yQ29uZm9ybWlkYWRlIiBjbGFzcz0ibWVzc2FnZSI+PHBvbHlnb24gc3R5bGU9InN0cm9rZTojMjE5NkYzO3N0cm9rZS13aWR0aDoxLjA0MTc7IiBwb2ludHM9Ijc1NS44MjE3LDgxNy41NDU2LDc2Ni4yMzg0LDgyMS43MTIyLDc1NS44MjE3LDgyNS44Nzg5LDc1OS45ODg0LDgyMS43MTIyIiBmaWxsPSIjMjE5NkYzIi8+PGxpbmUgeTI9IjgyMS43MTIyIiB5MT0iODIxLjcxMjIiIHgyPSI3NjIuMDcxNyIgeDE9IjMxOS45MjI5IiBzdHlsZT0ic3Ryb2tlOiMyMTk2RjM7c3Ryb2tlLXdpZHRoOjMuMTI1OyIvPjx0ZXh0IHk9IjgwNi4yNjQyIiB4PSIzMzcuNjMxMiIgdGV4dExlbmd0aD0iMzUwLjU4NTkiIGxlbmd0aEFkanVzdD0ic3BhY2luZyIgZm9udC1zaXplPSIxMi41IiBmb250LWZhbWlseT0iVmVyZGFuYSIgZmlsbD0iIzIyMjIyMiI+UE9TVCAvcG9ydGFiaWxpdGllcyAocHJhem8gbWFpb3IgcXVlIG8gY29udHJhdG8gb3JpZ2luYWwpPC90ZXh0PjwvZz48ZyBkYXRhLXBhcnRpY2lwYW50LTI9Ik1vdG9yQ29uZm9ybWlkYWRlIiBkYXRhLXBhcnRpY2lwYW50LTE9IkNyZWRvcmEiIGNsYXNzPSJtZXNzYWdlIj48cG9seWdvbiBzdHlsZT0ic3Ryb2tlOiMyMTk2RjM7c3Ryb2tlLXdpZHRoOjEuMDQxNzsiIHBvaW50cz0iMzMxLjM4MTIsODY3LjUxMywzMjAuOTY0Niw4NzEuNjc5NywzMzEuMzgxMiw4NzUuODQ2NCwzMjcuMjE0Niw4NzEuNjc5NyIgZmlsbD0iIzIxOTZGMyIvPjxsaW5lIHkyPSI4NzEuNjc5NyIgeTE9Ijg3MS42Nzk3IiB4Mj0iNzY3LjI4MDEiIHgxPSIzMjUuMTMxMiIgc3R5bGU9InN0cm9rZTojMjE5NkYzO3N0cm9rZS13aWR0aDozLjEyNTsiLz48dGV4dCB5PSI4NTYuMjMxNyIgeD0iMzQ4LjA0NzkiIHRleHRMZW5ndGg9IjIzLjg1ODYiIGxlbmd0aEFkanVzdD0ic3BhY2luZyIgZm9udC1zaXplPSIxMi41IiBmb250LWZhbWlseT0iVmVyZGFuYSIgZmlsbD0iIzIyMjIyMiI+NDIyPC90ZXh0PjwvZz48ZyBkYXRhLXBhcnRpY2lwYW50LTI9Ik1vdG9yQ29uZm9ybWlkYWRlIiBkYXRhLXBhcnRpY2lwYW50LTE9Ik1vdG9yQ29uZm9ybWlkYWRlIiBjbGFzcz0ibWVzc2FnZSI+PGxpbmUgeTI9IjkyMS42NDcxIiB5MT0iOTIxLjY0NzEiIHgyPSIzNjMuNjcyOSIgeDE9IjMxOS45MjI5IiBzdHlsZT0ic3Ryb2tlOiMyMTk2RjM7c3Ryb2tlLXdpZHRoOjMuMTI1OyIvPjxsaW5lIHkyPSI5MzUuMTg4OCIgeTE9IjkyMS42NDcxIiB4Mj0iMzYzLjY3MjkiIHgxPSIzNjMuNjcyOSIgc3R5bGU9InN0cm9rZTojMjE5NkYzO3N0cm9rZS13aWR0aDozLjEyNTsiLz48bGluZSB5Mj0iOTM1LjE4ODgiIHkxPSI5MzUuMTg4OCIgeDI9IjM2My42NzI5IiB4MT0iMzIwLjk2NDYiIHN0eWxlPSJzdHJva2U6IzIxOTZGMztzdHJva2Utd2lkdGg6My4xMjU7Ii8+PHBvbHlnb24gc3R5bGU9InN0cm9rZTojMjE5NkYzO3N0cm9rZS13aWR0aDoxLjA0MTc7IiBwb2ludHM9IjMzMS4zODEyLDkzMS4wMjIxLDMyMC45NjQ2LDkzNS4xODg4LDMzMS4zODEyLDkzOS4zNTU1LDMyNy4yMTQ2LDkzNS4xODg4IiBmaWxsPSIjMjE5NkYzIi8+PHRleHQgeT0iOTA2LjE5OTEiIHg9IjMzNy42MzEyIiB0ZXh0TGVuZ3RoPSIyODYuMzIyIiBsZW5ndGhBZGp1c3Q9InNwYWNpbmciIGZvbnQtc2l6ZT0iMTIuNSIgZm9udC1mYW1pbHk9IlZlcmRhbmEiIGZpbGw9IiMyMjIyMjIiPlZhbGlkYSByZXRvcm5vIGRlIGFjb3JkbyBjb20gYSBlc3BlY2lmaWNhw6fDo288L3RleHQ+PC9nPjwvZz48L3N2Zz4=;" vertex="1" parent="1">
                    <mxGeometry width="1008" height="983" as="geometry"/>
                </mxCell>
            </root>
        </mxGraphModel>
    </diagram>
    <diagram id="IFRNMcrW1_zLQhuPF3gk" name="Formalização">
        <mxGraphModel grid="1" page="1" gridSize="10" guides="1" tooltips="1" connect="1" arrows="1" fold="1" pageScale="1" pageWidth="827" pageHeight="1169" math="0" shadow="0">
            <root>
                <mxCell id="0"/>
                <mxCell id="1" parent="0"/>
                <mxCell id="e05TzUQi2w4bV1LV8lUM-1" value="" style="shape=image;verticalLabelPosition=bottom;labelBackgroundColor=default;verticalAlign=top;aspect=fixed;imageAspect=0;editableCssRules=.*;image=data:image/svg+xml,PHN2ZyB4bWxuczp4bGluaz0iaHR0cDovL3d3dy53My5vcmcvMTk5OS94bGluayIgeG1sbnM9Imh0dHA6Ly93d3cudzMub3JnLzIwMDAvc3ZnIiB6b29tQW5kUGFuPSJtYWduaWZ5IiB3aWR0aD0iMTAzNS45Mjk1MzE3NTgxODYiIHZpZXdCb3g9IjIwLjgzMzI5OTYzNjg0MDgyIDIwLjgzMzI5OTYzNjg0MDgyIDEwMzUuMDQ0NDMzNTkzNzUgOTgyLjAzMTE4ODk2NDg0MzgiIHZlcnNpb249IjEuMSIgc3R5bGU9IndpZHRoOjEwNzJweDtoZWlnaHQ6MTAxOXB4OyIgcHJlc2VydmVBc3BlY3RSYXRpbz0ibm9uZSIgaGVpZ2h0PSI5ODIuNzk0MTY2NDg0Mjc3OSIgZGF0YS1kaWFncmFtLXR5cGU9IlNFUVVFTkNFIj48dGl0bGU+Rm9ybWFsaXphw6fDo28gLSBDbGllbnRlIG7Do28gcmVhbGl6YSBmb3JtYWxpemHDp8OjbyBkYSBzb2xpY2l0YcOnw6NvIGRlIHBvcnRhYmlsaWRhZGU8L3RpdGxlPjxkZWZzPjxsaW5lYXJHcmFkaWVudCB5Mj0iMTAwJSIgeTE9IjAlIiB4Mj0iNTAlIiB4MT0iNTAlIiBpZD0iZzFydm5zODZicXpjY2YwIj48c3RvcCBzdG9wLWNvbG9yPSIjRkZGRkZGIiBvZmZzZXQ9IjAlIi8+PHN0b3Agc3RvcC1jb2xvcj0iI0ZGRkZGRiIgb2Zmc2V0PSIxMDAlIi8+PC9saW5lYXJHcmFkaWVudD48ZmlsdGVyIHk9Ii0xIiB4PSItMSIgd2lkdGg9IjMwMCUiIGlkPSJmMXJ2bnM4NmJxemNjZiIgaGVpZ2h0PSIzMDAlIj48ZmVHYXVzc2lhbkJsdXIgc3RkRGV2aWF0aW9uPSIyLjA4MzMiIHJlc3VsdD0iYmx1ck91dCIvPjxmZUNvbG9yTWF0cml4IHZhbHVlcz0iMCAwIDAgMCAwIDAgMCAwIDAgMCAwIDAgMCAwIDAgMCAwIDAgLjQgMCIgdHlwZT0ibWF0cml4IiByZXN1bHQ9ImJsdXJPdXQyIiBpbj0iYmx1ck91dCIvPjxmZU9mZnNldCByZXN1bHQ9ImJsdXJPdXQzIiBpbj0iYmx1ck91dDIiIGR5PSI0LjE2NjciIGR4PSI0LjE2NjciLz48ZmVCbGVuZCBtb2RlPSJub3JtYWwiIGluMj0iYmx1ck91dDMiIGluPSJTb3VyY2VHcmFwaGljIi8+PC9maWx0ZXI+PGxpbmVhckdyYWRpZW50IHkyPSIxMDAlIiB5MT0iMCUiIHgyPSI1MCUiIHgxPSI1MCUiIGlkPSJnMXJ2bnM4NmJxemNjZjEiPjxzdG9wIHN0b3AtY29sb3I9IiM0REFCRjUiIG9mZnNldD0iMCUiLz48c3RvcCBzdG9wLWNvbG9yPSIjMjE5NkYzIiBvZmZzZXQ9IjEwMCUiLz48L2xpbmVhckdyYWRpZW50PjwvZGVmcz48Zz48cmVjdCB5PSIyMC44MzMzIiB4PSI1OC4wODkyIiB3aWR0aD0iOTU5LjQ5MSIgc3R5bGU9InN0cm9rZTojQ0NDQ0NDO3N0cm9rZS13aWR0aDoxLjA0MTc7IiByeT0iNC4xNjY3IiByeD0iNC4xNjY3IiBoZWlnaHQ9IjU3LjU4NDYiIGZpbGw9InVybCgjZzFydm5zODZicXpjY2YwKSIvPjx0ZXh0IHk9IjU2LjgzOCIgeD0iNzQuNzU1OSIgdGV4dExlbmd0aD0iOTI2LjE1NzYiIGxlbmd0aEFkanVzdD0ic3BhY2luZyIgZm9udC13ZWlnaHQ9ImJvbGQiIGZvbnQtc2l6ZT0iMjAuODMzMyIgZm9udC1mYW1pbHk9IlZlcmRhbmEiIGZpbGw9IiMyMTk2RjMiPkZvcm1hbGl6YcOnw6NvIC0gQ2xpZW50ZSBuw6NvIHJlYWxpemEgZm9ybWFsaXphw6fDo28gZGEgc29saWNpdGHDp8OjbyBkZSBwb3J0YWJpbGlkYWRlPC90ZXh0PjxyZWN0IHk9IjQ4OC42MDY4IiB4PSIyMC44MzMzIiB3aWR0aD0iMTAzNS4wNDQ0IiBzdHlsZT0ic3Ryb2tlOiMyMTk2RjM7c3Ryb2tlLXdpZHRoOjEuMDQxNzsiIHJ5PSI0LjE2NjciIHJ4PSI0LjE2NjciIGhlaWdodD0iMjIwLjY3MDYiIGZpbHRlcj0idXJsKCNmMXJ2bnM4NmJxemNjZikiIGZpbGw9InVybCgjZzFydm5zODZicXpjY2YwKSIvPjxnPjx0aXRsZT5Nb3RvckNvbmZvcm1pZGFkZTwvdGl0bGU+PHJlY3QgeT0iMTQ0LjAxMDQiIHg9IjE1MC4yNTg0IiB3aWR0aD0iOC4zMzMzIiBoZWlnaHQ9IjgwOS45Mjg0IiBmaWxsLW9wYWNpdHk9IjAuMDAwMDAiIGZpbGw9IiMwMDAwMDAiLz48bGluZSB5Mj0iOTUzLjkzODgiIHkxPSIxNDQuMDEwNCIgeDI9IjE1NC4xNjY3IiB4MT0iMTU0LjE2NjciIHN0eWxlPSJzdHJva2U6I0NDQ0NDQztzdHJva2Utd2lkdGg6MS4wNDE3O3N0cm9rZS1kYXNoYXJyYXk6NS4wLDUuMDsiLz48L2c+PGc+PHRpdGxlPkNyZWRvcmE8L3RpdGxlPjxyZWN0IHk9IjE0NC4wMTA0IiB4PSI5NTUuMzg3NCIgd2lkdGg9IjguMzMzMyIgaGVpZ2h0PSI4MDkuOTI4NCIgZmlsbC1vcGFjaXR5PSIwLjAwMDAwIiBmaWxsPSIjMDAwMDAwIi8+PGxpbmUgeTI9Ijk1My45Mzg4IiB5MT0iMTQ0LjAxMDQiIHgyPSI5NTkuMDYzNyIgeDE9Ijk1OS4wNjM3IiBzdHlsZT0ic3Ryb2tlOiNDQ0NDQ0M7c3Ryb2tlLXdpZHRoOjEuMDQxNztzdHJva2UtZGFzaGFycmF5OjUuMCw1LjA7Ii8+PC9nPjxnIGRhdGEtcGFydGljaXBhbnQ9Ik1vdG9yQ29uZm9ybWlkYWRlIiBjbGFzcz0icGFydGljaXBhbnQgcGFydGljaXBhbnQtaGVhZCI+PHJlY3QgeT0iODkuODc2MyIgeD0iNzIuOTE2NyIgd2lkdGg9IjE1OS44OTE4IiBzdHlsZT0ic3Ryb2tlOiMyMTk2RjM7c3Ryb2tlLXdpZHRoOjEuMDQxNzsiIHJ5PSI0LjE2NjciIHJ4PSI0LjE2NjciIGhlaWdodD0iNDkuOTY3NCIgZmlsdGVyPSJ1cmwoI2YxcnZuczg2YnF6Y2NmKSIgZmlsbD0idXJsKCNnMXJ2bnM4NmJxemNjZjEpIi8+PHRleHQgeT0iMTE5LjE4NzQiIHg9IjkwLjYyNSIgdGV4dExlbmd0aD0iMTI0LjQ3NTEiIGxlbmd0aEFkanVzdD0ic3BhY2luZyIgZm9udC1zaXplPSIxMi41IiBmb250LWZhbWlseT0iVmVyZGFuYSIgZmlsbD0iI0ZGRkZGRiI+TW90b3JDb25mb3JtaWRhZGU8L3RleHQ+PC9nPjxnIGRhdGEtcGFydGljaXBhbnQ9Ik1vdG9yQ29uZm9ybWlkYWRlIiBjbGFzcz0icGFydGljaXBhbnQgcGFydGljaXBhbnQtdGFpbCI+PHJlY3QgeT0iOTUyLjg5NzEiIHg9IjcyLjkxNjciIHdpZHRoPSIxNTkuODkxOCIgc3R5bGU9InN0cm9rZTojMjE5NkYzO3N0cm9rZS13aWR0aDoxLjA0MTc7IiByeT0iNC4xNjY3IiByeD0iNC4xNjY3IiBoZWlnaHQ9IjQ5Ljk2NzQiIGZpbHRlcj0idXJsKCNmMXJ2bnM4NmJxemNjZikiIGZpbGw9InVybCgjZzFydm5zODZicXpjY2YxKSIvPjx0ZXh0IHk9Ijk4Mi4yMDgzIiB4PSI5MC42MjUiIHRleHRMZW5ndGg9IjEyNC40NzUxIiBsZW5ndGhBZGp1c3Q9InNwYWNpbmciIGZvbnQtc2l6ZT0iMTIuNSIgZm9udC1mYW1pbHk9IlZlcmRhbmEiIGZpbGw9IiNGRkZGRkYiPk1vdG9yQ29uZm9ybWlkYWRlPC90ZXh0PjwvZz48ZyBkYXRhLXBhcnRpY2lwYW50PSJDcmVkb3JhIiBjbGFzcz0icGFydGljaXBhbnQgcGFydGljaXBhbnQtaGVhZCI+PHJlY3QgeT0iODkuODc2MyIgeD0iOTE1LjMxMzciIHdpZHRoPSI4NS4zNTU2IiBzdHlsZT0ic3Ryb2tlOiMyMTk2RjM7c3Ryb2tlLXdpZHRoOjEuMDQxNzsiIHJ5PSI0LjE2NjciIHJ4PSI0LjE2NjciIGhlaWdodD0iNDkuOTY3NCIgZmlsdGVyPSJ1cmwoI2YxcnZuczg2YnF6Y2NmKSIgZmlsbD0idXJsKCNnMXJ2bnM4NmJxemNjZjEpIi8+PHRleHQgeT0iMTE5LjE4NzQiIHg9IjkzMy4wMjIxIiB0ZXh0TGVuZ3RoPSI0OS45MzkiIGxlbmd0aEFkanVzdD0ic3BhY2luZyIgZm9udC1zaXplPSIxMi41IiBmb250LWZhbWlseT0iVmVyZGFuYSIgZmlsbD0iI0ZGRkZGRiI+Q3JlZG9yYTwvdGV4dD48L2c+PGcgZGF0YS1wYXJ0aWNpcGFudD0iQ3JlZG9yYSIgY2xhc3M9InBhcnRpY2lwYW50IHBhcnRpY2lwYW50LXRhaWwiPjxyZWN0IHk9Ijk1Mi44OTcxIiB4PSI5MTUuMzEzNyIgd2lkdGg9Ijg1LjM1NTYiIHN0eWxlPSJzdHJva2U6IzIxOTZGMztzdHJva2Utd2lkdGg6MS4wNDE3OyIgcnk9IjQuMTY2NyIgcng9IjQuMTY2NyIgaGVpZ2h0PSI0OS45Njc0IiBmaWx0ZXI9InVybCgjZjFydm5zODZicXpjY2YpIiBmaWxsPSJ1cmwoI2cxcnZuczg2YnF6Y2NmMSkiLz48dGV4dCB5PSI5ODIuMjA4MyIgeD0iOTMzLjAyMjEiIHRleHRMZW5ndGg9IjQ5LjkzOSIgbGVuZ3RoQWRqdXN0PSJzcGFjaW5nIiBmb250LXNpemU9IjEyLjUiIGZvbnQtZmFtaWx5PSJWZXJkYW5hIiBmaWxsPSIjRkZGRkZGIj5DcmVkb3JhPC90ZXh0PjwvZz48ZyBkYXRhLXBhcnRpY2lwYW50LTI9IkNyZWRvcmEiIGRhdGEtcGFydGljaXBhbnQtMT0iTW90b3JDb25mb3JtaWRhZGUiIGNsYXNzPSJtZXNzYWdlIj48cG9seWdvbiBzdHlsZT0ic3Ryb2tlOiMyMTk2RjM7c3Ryb2tlLXdpZHRoOjEuMDQxNzsiIHBvaW50cz0iOTQ3LjA1NCwxOTEuODk0NSw5NTcuNDcwNywxOTYuMDYxMiw5NDcuMDU0LDIwMC4yMjc5LDk1MS4yMjA3LDE5Ni4wNjEyIiBmaWxsPSIjMjE5NkYzIi8+PGxpbmUgeTI9IjE5Ni4wNjEyIiB5MT0iMTk2LjA2MTIiIHgyPSI5NTMuMzA0IiB4MT0iMTU0LjQyNSIgc3R5bGU9InN0cm9rZTojMjE5NkYzO3N0cm9rZS13aWR0aDozLjEyNTsiLz48dGV4dCB5PSIxODAuNjEzMiIgeD0iMTcyLjEzMzQiIHRleHRMZW5ndGg9IjE3MC41OTMzIiBsZW5ndGhBZGp1c3Q9InNwYWNpbmciIGZvbnQtc2l6ZT0iMTIuNSIgZm9udC1mYW1pbHk9IlZlcmRhbmEiIGZpbGw9IiMyMjIyMjIiPkdFVCAvY29uc2VudHMve2NvbnNlbnRJZH08L3RleHQ+PC9nPjxnIGRhdGEtcGFydGljaXBhbnQtMj0iTW90b3JDb25mb3JtaWRhZGUiIGRhdGEtcGFydGljaXBhbnQtMT0iQ3JlZG9yYSIgY2xhc3M9Im1lc3NhZ2UiPjxwb2x5Z29uIHN0eWxlPSJzdHJva2U6IzIxOTZGMztzdHJva2Utd2lkdGg6MS4wNDE3OyIgcG9pbnRzPSIxNjUuODgzNCwyNDEuODYyLDE1NS40NjY3LDI0Ni4wMjg2LDE2NS44ODM0LDI1MC4xOTUzLDE2MS43MTY3LDI0Ni4wMjg2IiBmaWxsPSIjMjE5NkYzIi8+PGxpbmUgeTI9IjI0Ni4wMjg2IiB5MT0iMjQ2LjAyODYiIHgyPSI5NTguNTEyNCIgeDE9IjE1OS42MzM0IiBzdHlsZT0ic3Ryb2tlOiMyMTk2RjM7c3Ryb2tlLXdpZHRoOjMuMTI1OyIvPjx0ZXh0IHk9IjIzMC41ODA2IiB4PSIxODIuNTUiIHRleHRMZW5ndGg9IjIzLjg1ODYiIGxlbmd0aEFkanVzdD0ic3BhY2luZyIgZm9udC1zaXplPSIxMi41IiBmb250LWZhbWlseT0iVmVyZGFuYSIgZmlsbD0iIzIyMjIyMiI+MjAwPC90ZXh0PjwvZz48ZyBkYXRhLXBhcnRpY2lwYW50LTI9Ik1vdG9yQ29uZm9ybWlkYWRlIiBkYXRhLXBhcnRpY2lwYW50LTE9Ik1vdG9yQ29uZm9ybWlkYWRlIiBjbGFzcz0ibWVzc2FnZSI+PGxpbmUgeTI9IjI5NS45OTYxIiB5MT0iMjk1Ljk5NjEiIHgyPSIxOTguMTc1IiB4MT0iMTU0LjQyNSIgc3R5bGU9InN0cm9rZTojMjE5NkYzO3N0cm9rZS13aWR0aDozLjEyNTsiLz48bGluZSB5Mj0iMzA5LjUzNzgiIHkxPSIyOTUuOTk2MSIgeDI9IjE5OC4xNzUiIHgxPSIxOTguMTc1IiBzdHlsZT0ic3Ryb2tlOiMyMTk2RjM7c3Ryb2tlLXdpZHRoOjMuMTI1OyIvPjxsaW5lIHkyPSIzMDkuNTM3OCIgeTE9IjMwOS41Mzc4IiB4Mj0iMTk4LjE3NSIgeDE9IjE1NS40NjY3IiBzdHlsZT0ic3Ryb2tlOiMyMTk2RjM7c3Ryb2tlLXdpZHRoOjMuMTI1OyIvPjxwb2x5Z29uIHN0eWxlPSJzdHJva2U6IzIxOTZGMztzdHJva2Utd2lkdGg6MS4wNDE3OyIgcG9pbnRzPSIxNjUuODgzNCwzMDUuMzcxMSwxNTUuNDY2NywzMDkuNTM3OCwxNjUuODgzNCwzMTMuNzA0NCwxNjEuNzE2NywzMDkuNTM3OCIgZmlsbD0iIzIxOTZGMyIvPjx0ZXh0IHk9IjI4MC41NDgxIiB4PSIxNzIuMTMzNCIgdGV4dExlbmd0aD0iNDEyLjk4MjIiIGxlbmd0aEFkanVzdD0ic3BhY2luZyIgZm9udC1zaXplPSIxMi41IiBmb250LWZhbWlseT0iVmVyZGFuYSIgZmlsbD0iIzIyMjIyMiI+VmFsaWRhIHNlIG8gb2JqZXRvIHBlcm1pc3Npb25zIHBvc3N1aSBhIHBlcm1pc3Npb25zIExPQU5TX1JFQUQ8L3RleHQ+PC9nPjxnIGRhdGEtcGFydGljaXBhbnQtMj0iQ3JlZG9yYSIgZGF0YS1wYXJ0aWNpcGFudC0xPSJNb3RvckNvbmZvcm1pZGFkZSIgY2xhc3M9Im1lc3NhZ2UiPjxwb2x5Z29uIHN0eWxlPSJzdHJva2U6IzIxOTZGMztzdHJva2Utd2lkdGg6MS4wNDE3OyIgcG9pbnRzPSI5NDcuMDU0LDM1NS4zMzg1LDk1Ny40NzA3LDM1OS41MDUyLDk0Ny4wNTQsMzYzLjY3MTksOTUxLjIyMDcsMzU5LjUwNTIiIGZpbGw9IiMyMTk2RjMiLz48bGluZSB5Mj0iMzU5LjUwNTIiIHkxPSIzNTkuNTA1MiIgeDI9Ijk1My4zMDQiIHgxPSIxNTQuNDI1IiBzdHlsZT0ic3Ryb2tlOiMyMTk2RjM7c3Ryb2tlLXdpZHRoOjMuMTI1OyIvPjx0ZXh0IHk9IjM0NC4wNTcyIiB4PSIxNzIuMTMzNCIgdGV4dExlbmd0aD0iMTgyLjg2NzQiIGxlbmd0aEFkanVzdD0ic3BhY2luZyIgZm9udC1zaXplPSIxMi41IiBmb250LWZhbWlseT0iVmVyZGFuYSIgZmlsbD0iIzIyMjIyMiI+R0VUIExvYW5zIENvbnRyYWN0cyBBUEkgLSBWMjwvdGV4dD48L2c+PGcgZGF0YS1wYXJ0aWNpcGFudC0yPSJNb3RvckNvbmZvcm1pZGFkZSIgZGF0YS1wYXJ0aWNpcGFudC0xPSJDcmVkb3JhIiBjbGFzcz0ibWVzc2FnZSI+PHBvbHlnb24gc3R5bGU9InN0cm9rZTojMjE5NkYzO3N0cm9rZS13aWR0aDoxLjA0MTc7IiBwb2ludHM9IjE2NS44ODM0LDQwNS4zMDYsMTU1LjQ2NjcsNDA5LjQ3MjcsMTY1Ljg4MzQsNDEzLjYzOTMsMTYxLjcxNjcsNDA5LjQ3MjciIGZpbGw9IiMyMTk2RjMiLz48bGluZSB5Mj0iNDA5LjQ3MjciIHkxPSI0MDkuNDcyNyIgeDI9Ijk1OC41MTI0IiB4MT0iMTU5LjYzMzQiIHN0eWxlPSJzdHJva2U6IzIxOTZGMztzdHJva2Utd2lkdGg6My4xMjU7Ii8+PHRleHQgeT0iMzk0LjAyNDciIHg9IjE4Mi41NSIgdGV4dExlbmd0aD0iMjMuODU4NiIgbGVuZ3RoQWRqdXN0PSJzcGFjaW5nIiBmb250LXNpemU9IjEyLjUiIGZvbnQtZmFtaWx5PSJWZXJkYW5hIiBmaWxsPSIjMjIyMjIyIj4yMDA8L3RleHQ+PC9nPjxnIGRhdGEtcGFydGljaXBhbnQtMj0iTW90b3JDb25mb3JtaWRhZGUiIGRhdGEtcGFydGljaXBhbnQtMT0iTW90b3JDb25mb3JtaWRhZGUiIGNsYXNzPSJtZXNzYWdlIj48bGluZSB5Mj0iNDU5LjQ0MDEiIHkxPSI0NTkuNDQwMSIgeDI9IjE5OC4xNzUiIHgxPSIxNTQuNDI1IiBzdHlsZT0ic3Ryb2tlOiMyMTk2RjM7c3Ryb2tlLXdpZHRoOjMuMTI1OyIvPjxsaW5lIHkyPSI0NzIuOTgxOCIgeTE9IjQ1OS40NDAxIiB4Mj0iMTk4LjE3NSIgeDE9IjE5OC4xNzUiIHN0eWxlPSJzdHJva2U6IzIxOTZGMztzdHJva2Utd2lkdGg6My4xMjU7Ii8+PGxpbmUgeTI9IjQ3Mi45ODE4IiB5MT0iNDcyLjk4MTgiIHgyPSIxOTguMTc1IiB4MT0iMTU1LjQ2NjciIHN0eWxlPSJzdHJva2U6IzIxOTZGMztzdHJva2Utd2lkdGg6My4xMjU7Ii8+PHBvbHlnb24gc3R5bGU9InN0cm9rZTojMjE5NkYzO3N0cm9rZS13aWR0aDoxLjA0MTc7IiBwb2ludHM9IjE2NS44ODM0LDQ2OC44MTUxLDE1NS40NjY3LDQ3Mi45ODE4LDE2NS44ODM0LDQ3Ny4xNDg0LDE2MS43MTY3LDQ3Mi45ODE4IiBmaWxsPSIjMjE5NkYzIi8+PHRleHQgeT0iNDQzLjk5MjEiIHg9IjE3Mi4xMzM0IiB0ZXh0TGVuZ3RoPSIyODYuMzIyIiBsZW5ndGhBZGp1c3Q9InNwYWNpbmciIGZvbnQtc2l6ZT0iMTIuNSIgZm9udC1mYW1pbHk9IlZlcmRhbmEiIGZpbGw9IiMyMjIyMjIiPlZhbGlkYSByZXRvcm5vIGRlIGFjb3JkbyBjb20gYSBlc3BlY2lmaWNhw6fDo288L3RleHQ+PC9nPjxwYXRoIHN0eWxlPSJzdHJva2U6IzY2NjY2NjtzdHJva2Utd2lkdGg6MS4wNDE3OyIgZmlsbD0iI0ZGRkZGRiIgZD0iTTI1LDQ4OC42MDY4IEwxMTguOTQ5NCw0ODguNjA2OCBMMTE4Ljk0OTQsNTE1LjY1NzYgTDEwOC41MzI3LDUyNi4wNzQyIEwyMC44MzMzLDUyNi4wNzQyIEwyMC44MzMzLDQ5Mi43NzM0IEE0LjE2NjcsNC4xNjY3IDAgMCAxIDI1LDQ4OC42MDY4Ii8+PHJlY3QgeT0iNDg4LjYwNjgiIHg9IjIwLjgzMzMiIHdpZHRoPSIxMDM1LjA0NDQiIHN0eWxlPSJzdHJva2U6IzIxOTZGMztzdHJva2Utd2lkdGg6MS4wNDE3OyIgcnk9IjQuMTY2NyIgcng9IjQuMTY2NyIgaGVpZ2h0PSIyMjAuNjcwNiIgZmlsbD0ibm9uZSIvPjx0ZXh0IHk9IjUxMS42Njc5IiB4PSI0Ni44NzUiIHRleHRMZW5ndGg9IjMwLjQwNzciIGxlbmd0aEFkanVzdD0ic3BhY2luZyIgZm9udC13ZWlnaHQ9ImJvbGQiIGZvbnQtc2l6ZT0iMTIuNSIgZm9udC1mYW1pbHk9IlZlcmRhbmEiIGZpbGw9IiM5QzI3QjAiPmxvb3A8L3RleHQ+PHRleHQgeT0iNTEyLjcwOTYiIHg9IjE0NC45OTEiIHRleHRMZW5ndGg9IjMxOS44MDU5IiBsZW5ndGhBZGp1c3Q9InNwYWNpbmciIGZvbnQtd2VpZ2h0PSJib2xkIiBmb250LXNpemU9IjEyLjUiIGZvbnQtZmFtaWx5PSJWZXJkYW5hIiBmaWxsPSIjMjIyMjIyIj5bUGFyYSBjYWRhIGNvbnRyYXRvIGRvIHRpcG8gQ1BDIGlkZW50aWZpY2Fkb108L3RleHQ+PGcgZGF0YS1wYXJ0aWNpcGFudC0yPSJDcmVkb3JhIiBkYXRhLXBhcnRpY2lwYW50LTE9Ik1vdG9yQ29uZm9ybWlkYWRlIiBjbGFzcz0ibWVzc2FnZSI+PHBvbHlnb24gc3R5bGU9InN0cm9rZTojMjE5NkYzO3N0cm9rZS13aWR0aDoxLjA0MTc7IiBwb2ludHM9Ijk0Ny4wNTQsNTgzLjMwMDgsOTU3LjQ3MDcsNTg3LjQ2NzQsOTQ3LjA1NCw1OTEuNjM0MSw5NTEuMjIwNyw1ODcuNDY3NCIgZmlsbD0iIzIxOTZGMyIvPjxsaW5lIHkyPSI1ODcuNDY3NCIgeTE9IjU4Ny40Njc0IiB4Mj0iOTUzLjMwNCIgeDE9IjE1NC40MjUiIHN0eWxlPSJzdHJva2U6IzIxOTZGMztzdHJva2Utd2lkdGg6My4xMjU7Ii8+PHRleHQgeT0iNTcyLjAxOTQiIHg9IjE3Mi4xMzM0IiB0ZXh0TGVuZ3RoPSIxODkuNjc5IiBsZW5ndGhBZGp1c3Q9InNwYWNpbmciIGZvbnQtc2l6ZT0iMTIuNSIgZm9udC1mYW1pbHk9IlZlcmRhbmEiIGZpbGw9IiMyMjIyMjIiPkdFVCAvY29uY3VycmVudC1tYW5hZ2VtZW50PC90ZXh0PjwvZz48ZyBkYXRhLXBhcnRpY2lwYW50LTI9Ik1vdG9yQ29uZm9ybWlkYWRlIiBkYXRhLXBhcnRpY2lwYW50LTE9IkNyZWRvcmEiIGNsYXNzPSJtZXNzYWdlIj48cG9seWdvbiBzdHlsZT0ic3Ryb2tlOiMyMTk2RjM7c3Ryb2tlLXdpZHRoOjEuMDQxNzsiIHBvaW50cz0iMTY1Ljg4MzQsNjMzLjI2ODIsMTU1LjQ2NjcsNjM3LjQzNDksMTY1Ljg4MzQsNjQxLjYwMTYsMTYxLjcxNjcsNjM3LjQzNDkiIGZpbGw9IiMyMTk2RjMiLz48bGluZSB5Mj0iNjM3LjQzNDkiIHkxPSI2MzcuNDM0OSIgeDI9Ijk1OC41MTI0IiB4MT0iMTU5LjYzMzQiIHN0eWxlPSJzdHJva2U6IzIxOTZGMztzdHJva2Utd2lkdGg6My4xMjU7Ii8+PHRleHQgeT0iNjIxLjk4NjkiIHg9IjE4Mi41NSIgdGV4dExlbmd0aD0iMjMuODU4NiIgbGVuZ3RoQWRqdXN0PSJzcGFjaW5nIiBmb250LXNpemU9IjEyLjUiIGZvbnQtZmFtaWx5PSJWZXJkYW5hIiBmaWxsPSIjMjIyMjIyIj4yMDA8L3RleHQ+PC9nPjxnIGRhdGEtcGFydGljaXBhbnQtMj0iTW90b3JDb25mb3JtaWRhZGUiIGRhdGEtcGFydGljaXBhbnQtMT0iTW90b3JDb25mb3JtaWRhZGUiIGNsYXNzPSJtZXNzYWdlIj48bGluZSB5Mj0iNjg3LjQwMjMiIHkxPSI2ODcuNDAyMyIgeDI9IjE5OC4xNzUiIHgxPSIxNTQuNDI1IiBzdHlsZT0ic3Ryb2tlOiMyMTk2RjM7c3Ryb2tlLXdpZHRoOjMuMTI1OyIvPjxsaW5lIHkyPSI3MDAuOTQ0IiB5MT0iNjg3LjQwMjMiIHgyPSIxOTguMTc1IiB4MT0iMTk4LjE3NSIgc3R5bGU9InN0cm9rZTojMjE5NkYzO3N0cm9rZS13aWR0aDozLjEyNTsiLz48bGluZSB5Mj0iNzAwLjk0NCIgeTE9IjcwMC45NDQiIHgyPSIxOTguMTc1IiB4MT0iMTU1LjQ2NjciIHN0eWxlPSJzdHJva2U6IzIxOTZGMztzdHJva2Utd2lkdGg6My4xMjU7Ii8+PHBvbHlnb24gc3R5bGU9InN0cm9rZTojMjE5NkYzO3N0cm9rZS13aWR0aDoxLjA0MTc7IiBwb2ludHM9IjE2NS44ODM0LDY5Ni43NzczLDE1NS40NjY3LDcwMC45NDQsMTY1Ljg4MzQsNzA1LjExMDcsMTYxLjcxNjcsNzAwLjk0NCIgZmlsbD0iIzIxOTZGMyIvPjx0ZXh0IHk9IjY3MS45NTQzIiB4PSIxNzIuMTMzNCIgdGV4dExlbmd0aD0iMjk0LjgzMDMiIGxlbmd0aEFkanVzdD0ic3BhY2luZyIgZm9udC1zaXplPSIxMi41IiBmb250LWZhbWlseT0iVmVyZGFuYSIgZmlsbD0iIzIyMjIyMiI+VmVyaWZpY2EgcmV0b3JubyBkZSBhY29yZG8gY29tIGEgZXNwZWNpZmljYcOnw6NvPC90ZXh0PjwvZz48ZyBkYXRhLXBhcnRpY2lwYW50LTI9Ik1vdG9yQ29uZm9ybWlkYWRlIiBkYXRhLXBhcnRpY2lwYW50LTE9Ik1vdG9yQ29uZm9ybWlkYWRlIiBjbGFzcz0ibWVzc2FnZSI+PGxpbmUgeTI9Ijc1OC4yMDMxIiB5MT0iNzU4LjIwMzEiIHgyPSIxOTguMTc1IiB4MT0iMTU0LjQyNSIgc3R5bGU9InN0cm9rZTojMjE5NkYzO3N0cm9rZS13aWR0aDozLjEyNTsiLz48bGluZSB5Mj0iNzcxLjc0NDgiIHkxPSI3NTguMjAzMSIgeDI9IjE5OC4xNzUiIHgxPSIxOTguMTc1IiBzdHlsZT0ic3Ryb2tlOiMyMTk2RjM7c3Ryb2tlLXdpZHRoOjMuMTI1OyIvPjxsaW5lIHkyPSI3NzEuNzQ0OCIgeTE9Ijc3MS43NDQ4IiB4Mj0iMTk4LjE3NSIgeDE9IjE1NS40NjY3IiBzdHlsZT0ic3Ryb2tlOiMyMTk2RjM7c3Ryb2tlLXdpZHRoOjMuMTI1OyIvPjxwb2x5Z29uIHN0eWxlPSJzdHJva2U6IzIxOTZGMztzdHJva2Utd2lkdGg6MS4wNDE3OyIgcG9pbnRzPSIxNjUuODgzNCw3NjcuNTc4MSwxNTUuNDY2Nyw3NzEuNzQ0OCwxNjUuODgzNCw3NzUuOTExNSwxNjEuNzE2Nyw3NzEuNzQ0OCIgZmlsbD0iIzIxOTZGMyIvPjx0ZXh0IHk9Ijc0Mi43NTUxIiB4PSIxNzIuMTMzNCIgdGV4dExlbmd0aD0iMzUzLjM3NTIiIGxlbmd0aEFkanVzdD0ic3BhY2luZyIgZm9udC1zaXplPSIxMi41IiBmb250LWZhbWlseT0iVmVyZGFuYSIgZmlsbD0iIzIyMjIyMiI+U2VsZWNpb25hIHVtIGNvbnRyYXRvIGNvbSBzaXR1YcOnw6NvIGlndWFsICJESVNQT05JVkVMIjwvdGV4dD48L2c+PGcgZGF0YS1wYXJ0aWNpcGFudC0yPSJDcmVkb3JhIiBkYXRhLXBhcnRpY2lwYW50LTE9Ik1vdG9yQ29uZm9ybWlkYWRlIiBjbGFzcz0ibWVzc2FnZSI+PHBvbHlnb24gc3R5bGU9InN0cm9rZTojMjE5NkYzO3N0cm9rZS13aWR0aDoxLjA0MTc7IiBwb2ludHM9Ijk0Ny4wNTQsODE3LjU0NTYsOTU3LjQ3MDcsODIxLjcxMjIsOTQ3LjA1NCw4MjUuODc4OSw5NTEuMjIwNyw4MjEuNzEyMiIgZmlsbD0iIzIxOTZGMyIvPjxsaW5lIHkyPSI4MjEuNzEyMiIgeTE9IjgyMS43MTIyIiB4Mj0iOTUzLjMwNCIgeDE9IjE1NC40MjUiIHN0eWxlPSJzdHJva2U6IzIxOTZGMztzdHJva2Utd2lkdGg6My4xMjU7Ii8+PHRleHQgeT0iODA2LjI2NDIiIHg9IjE3Mi4xMzM0IiB0ZXh0TGVuZ3RoPSI3NTkuMjk1NyIgbGVuZ3RoQWRqdXN0PSJzcGFjaW5nIiBmb250LXNpemU9IjEyLjUiIGZvbnQtZmFtaWx5PSJWZXJkYW5hIiBmaWxsPSIjMjIyMjIyIj5QT1NUIC9wb3J0YWJpbGl0aWVzIChTRU0gYSBldmlkw6puY2lhIGRhIGFzc2luYXR1cmEgZG8gY29udHJhdG8gcGVsbyBvYmpldG8gL2RhdGEvcHJvcG9zZWRDb250cmFjdC9kaWdpdGFsU2lnbmF0dXJlUHJvb2YpPC90ZXh0PjwvZz48ZyBkYXRhLXBhcnRpY2lwYW50LTI9Ik1vdG9yQ29uZm9ybWlkYWRlIiBkYXRhLXBhcnRpY2lwYW50LTE9IkNyZWRvcmEiIGNsYXNzPSJtZXNzYWdlIj48cG9seWdvbiBzdHlsZT0ic3Ryb2tlOiMyMTk2RjM7c3Ryb2tlLXdpZHRoOjEuMDQxNzsiIHBvaW50cz0iMTY1Ljg4MzQsODY3LjUxMywxNTUuNDY2Nyw4NzEuNjc5NywxNjUuODgzNCw4NzUuODQ2NCwxNjEuNzE2Nyw4NzEuNjc5NyIgZmlsbD0iIzIxOTZGMyIvPjxsaW5lIHkyPSI4NzEuNjc5NyIgeTE9Ijg3MS42Nzk3IiB4Mj0iOTU4LjUxMjQiIHgxPSIxNTkuNjMzNCIgc3R5bGU9InN0cm9rZTojMjE5NkYzO3N0cm9rZS13aWR0aDozLjEyNTsiLz48dGV4dCB5PSI4NTYuMjMxNyIgeD0iMTgyLjU1IiB0ZXh0TGVuZ3RoPSIyMy44NTg2IiBsZW5ndGhBZGp1c3Q9InNwYWNpbmciIGZvbnQtc2l6ZT0iMTIuNSIgZm9udC1mYW1pbHk9IlZlcmRhbmEiIGZpbGw9IiMyMjIyMjIiPjQyMjwvdGV4dD48L2c+PGcgZGF0YS1wYXJ0aWNpcGFudC0yPSJNb3RvckNvbmZvcm1pZGFkZSIgZGF0YS1wYXJ0aWNpcGFudC0xPSJNb3RvckNvbmZvcm1pZGFkZSIgY2xhc3M9Im1lc3NhZ2UiPjxsaW5lIHkyPSI5MjEuNjQ3MSIgeTE9IjkyMS42NDcxIiB4Mj0iMTk4LjE3NSIgeDE9IjE1NC40MjUiIHN0eWxlPSJzdHJva2U6IzIxOTZGMztzdHJva2Utd2lkdGg6My4xMjU7Ii8+PGxpbmUgeTI9IjkzNS4xODg4IiB5MT0iOTIxLjY0NzEiIHgyPSIxOTguMTc1IiB4MT0iMTk4LjE3NSIgc3R5bGU9InN0cm9rZTojMjE5NkYzO3N0cm9rZS13aWR0aDozLjEyNTsiLz48bGluZSB5Mj0iOTM1LjE4ODgiIHkxPSI5MzUuMTg4OCIgeDI9IjE5OC4xNzUiIHgxPSIxNTUuNDY2NyIgc3R5bGU9InN0cm9rZTojMjE5NkYzO3N0cm9rZS13aWR0aDozLjEyNTsiLz48cG9seWdvbiBzdHlsZT0ic3Ryb2tlOiMyMTk2RjM7c3Ryb2tlLXdpZHRoOjEuMDQxNzsiIHBvaW50cz0iMTY1Ljg4MzQsOTMxLjAyMjEsMTU1LjQ2NjcsOTM1LjE4ODgsMTY1Ljg4MzQsOTM5LjM1NTUsMTYxLjcxNjcsOTM1LjE4ODgiIGZpbGw9IiMyMTk2RjMiLz48dGV4dCB5PSI5MDYuMTk5MSIgeD0iMTcyLjEzMzQiIHRleHRMZW5ndGg9IjI4Ni4zMjIiIGxlbmd0aEFkanVzdD0ic3BhY2luZyIgZm9udC1zaXplPSIxMi41IiBmb250LWZhbWlseT0iVmVyZGFuYSIgZmlsbD0iIzIyMjIyMiI+VmFsaWRhIHJldG9ybm8gZGUgYWNvcmRvIGNvbSBhIGVzcGVjaWZpY2HDp8OjbzwvdGV4dD48L2c+PC9nPjwvc3ZnPg==;" vertex="1" parent="1">
                    <mxGeometry width="1036" height="983" as="geometry"/>
                </mxCell>
            </root>
        </mxGraphModel>
    </diagram>
    <diagram id="tEny0Z1z8rpMFlqN5hQg" name="Contraproposta - cenario 2">
        <mxGraphModel grid="1" page="1" gridSize="10" guides="1" tooltips="1" connect="1" arrows="1" fold="1" pageScale="1" pageWidth="827" pageHeight="1169" math="0" shadow="0">
            <root>
                <mxCell id="0"/>
                <mxCell id="1" parent="0"/>
                <mxCell id="e1XcI90WUqdavaliQsSu-1" value="" style="shape=image;verticalLabelPosition=bottom;labelBackgroundColor=default;verticalAlign=top;aspect=fixed;imageAspect=0;editableCssRules=.*;image=data:image/svg+xml,PHN2ZyB4bWxuczp4bGluaz0iaHR0cDovL3d3dy53My5vcmcvMTk5OS94bGluayIgeG1sbnM9Imh0dHA6Ly93d3cudzMub3JnLzIwMDAvc3ZnIiB6b29tQW5kUGFuPSJtYWduaWZ5IiB3aWR0aD0iODg1LjI0NzkzMTk0NjkxNzciIHZpZXdCb3g9IjIwLjgzMzI5OTYzNjg0MDgyIDIwLjgzMzI5OTYzNjg0MDgyIDg4NS4wODkxMTEzMjgxMjUgMTIxNy4yODUxNTYyNSIgdmVyc2lvbj0iMS4xIiBzdHlsZT0id2lkdGg6OTI5cHg7aGVpZ2h0OjEyNTVweDsiIHByZXNlcnZlQXNwZWN0UmF0aW89Im5vbmUiIGhlaWdodD0iMTIxNy40ODcxOTY0ODc0ODc2IiBkYXRhLWRpYWdyYW0tdHlwZT0iU0VRVUVOQ0UiPjx0aXRsZT5Db250cmFwcm9wb3N0YSAtIENsaWVudGUgYWNlaXRhIGNvbnRyYXByb3Bvc3RhIGRhIENyZWRvcmEgbm8gMsuaIGRpYSB1dGlsPC90aXRsZT48ZGVmcz48bGluZWFyR3JhZGllbnQgeTI9IjEwMCUiIHkxPSIwJSIgeDI9IjUwJSIgeDE9IjUwJSIgaWQ9ImdtN3hoNnU0OW0wb2UwIj48c3RvcCBzdG9wLWNvbG9yPSIjRkZGRkZGIiBvZmZzZXQ9IjAlIi8+PHN0b3Agc3RvcC1jb2xvcj0iI0ZGRkZGRiIgb2Zmc2V0PSIxMDAlIi8+PC9saW5lYXJHcmFkaWVudD48ZmlsdGVyIHk9Ii0xIiB4PSItMSIgd2lkdGg9IjMwMCUiIGlkPSJmbTd4aDZ1NDltMG9lIiBoZWlnaHQ9IjMwMCUiPjxmZUdhdXNzaWFuQmx1ciBzdGREZXZpYXRpb249IjIuMDgzMyIgcmVzdWx0PSJibHVyT3V0Ii8+PGZlQ29sb3JNYXRyaXggdmFsdWVzPSIwIDAgMCAwIDAgMCAwIDAgMCAwIDAgMCAwIDAgMCAwIDAgMCAuNCAwIiB0eXBlPSJtYXRyaXgiIHJlc3VsdD0iYmx1ck91dDIiIGluPSJibHVyT3V0Ii8+PGZlT2Zmc2V0IHJlc3VsdD0iYmx1ck91dDMiIGluPSJibHVyT3V0MiIgZHk9IjQuMTY2NyIgZHg9IjQuMTY2NyIvPjxmZUJsZW5kIG1vZGU9Im5vcm1hbCIgaW4yPSJibHVyT3V0MyIgaW49IlNvdXJjZUdyYXBoaWMiLz48L2ZpbHRlcj48bGluZWFyR3JhZGllbnQgeTI9IjEwMCUiIHkxPSIwJSIgeDI9IjUwJSIgeDE9IjUwJSIgaWQ9ImdtN3hoNnU0OW0wb2UxIj48c3RvcCBzdG9wLWNvbG9yPSIjNERBQkY1IiBvZmZzZXQ9IjAlIi8+PHN0b3Agc3RvcC1jb2xvcj0iIzIxOTZGMyIgb2Zmc2V0PSIxMDAlIi8+PC9saW5lYXJHcmFkaWVudD48L2RlZnM+PGc+PHJlY3QgeT0iMjAuODMzMyIgeD0iMjAuODMzMyIgd2lkdGg9Ijg4NS4wODkxIiBzdHlsZT0ic3Ryb2tlOiNDQ0NDQ0M7c3Ryb2tlLXdpZHRoOjEuMDQxNzsiIHJ5PSI0LjE2NjciIHJ4PSI0LjE2NjciIGhlaWdodD0iNTcuNTg0NiIgZmlsbD0idXJsKCNnbTd4aDZ1NDltMG9lMCkiLz48dGV4dCB5PSI1Ni44MzgiIHg9IjM3LjUiIHRleHRMZW5ndGg9Ijg1MS43NTU4IiBsZW5ndGhBZGp1c3Q9InNwYWNpbmciIGZvbnQtd2VpZ2h0PSJib2xkIiBmb250LXNpemU9IjIwLjgzMzMiIGZvbnQtZmFtaWx5PSJWZXJkYW5hIiBmaWxsPSIjMjE5NkYzIj5Db250cmFwcm9wb3N0YSAtIENsaWVudGUgYWNlaXRhIGNvbnRyYXByb3Bvc3RhIGRhIENyZWRvcmEgbm8gMsuaIGRpYSB1dGlsPC90ZXh0PjxyZWN0IHk9IjQ4OC42MDY4IiB4PSIxMjQuNzQxNiIgd2lkdGg9IjY3OC4zMTQyIiBzdHlsZT0ic3Ryb2tlOiMyMTk2RjM7c3Ryb2tlLXdpZHRoOjEuMDQxNzsiIHJ5PSI0LjE2NjciIHJ4PSI0LjE2NjciIGhlaWdodD0iMjIwLjY3MDYiIGZpbHRlcj0idXJsKCNmbTd4aDZ1NDltMG9lKSIgZmlsbD0idXJsKCNnbTd4aDZ1NDltMG9lMCkiLz48cmVjdCB5PSI5NTAuODEzOCIgeD0iMTI0Ljc0MTYiIHdpZHRoPSI2NzguMzE0MiIgc3R5bGU9InN0cm9rZTojMjE5NkYzO3N0cm9rZS13aWR0aDoxLjA0MTc7IiByeT0iNC4xNjY3IiByeD0iNC4xNjY3IiBoZWlnaHQ9IjIyMC42NzA2IiBmaWx0ZXI9InVybCgjZm03eGg2dTQ5bTBvZSkiIGZpbGw9InVybCgjZ203eGg2dTQ5bTBvZTApIi8+PGc+PHRpdGxlPk1vdG9yQ29uZm9ybWlkYWRlPC90aXRsZT48cmVjdCB5PSIxNDQuMDEwNCIgeD0iMjU0LjE2NjciIHdpZHRoPSI4LjMzMzMiIGhlaWdodD0iMTA0NS4xODIzIiBmaWxsLW9wYWNpdHk9IjAuMDAwMDAiIGZpbGw9IiMwMDAwMDAiLz48bGluZSB5Mj0iMTE4OS4xOTI3IiB5MT0iMTQ0LjAxMDQiIHgyPSIyNTguMDc1IiB4MT0iMjU4LjA3NSIgc3R5bGU9InN0cm9rZTojQ0NDQ0NDO3N0cm9rZS13aWR0aDoxLjA0MTc7c3Ryb2tlLWRhc2hhcnJheTo1LjAsNS4wOyIvPjwvZz48Zz48dGl0bGU+Q3JlZG9yYTwvdGl0bGU+PHJlY3QgeT0iMTQ0LjAxMDQiIHg9IjcwMi41NjU1IiB3aWR0aD0iOC4zMzMzIiBoZWlnaHQ9IjEwNDUuMTgyMyIgZmlsbC1vcGFjaXR5PSIwLjAwMDAwIiBmaWxsPSIjMDAwMDAwIi8+PGxpbmUgeTI9IjExODkuMTkyNyIgeTE9IjE0NC4wMTA0IiB4Mj0iNzA2LjI0MTkiIHgxPSI3MDYuMjQxOSIgc3R5bGU9InN0cm9rZTojQ0NDQ0NDO3N0cm9rZS13aWR0aDoxLjA0MTc7c3Ryb2tlLWRhc2hhcnJheTo1LjAsNS4wOyIvPjwvZz48ZyBkYXRhLXBhcnRpY2lwYW50PSJNb3RvckNvbmZvcm1pZGFkZSIgY2xhc3M9InBhcnRpY2lwYW50IHBhcnRpY2lwYW50LWhlYWQiPjxyZWN0IHk9Ijg5Ljg3NjMiIHg9IjE3Ni44MjUiIHdpZHRoPSIxNTkuODkxOCIgc3R5bGU9InN0cm9rZTojMjE5NkYzO3N0cm9rZS13aWR0aDoxLjA0MTc7IiByeT0iNC4xNjY3IiByeD0iNC4xNjY3IiBoZWlnaHQ9IjQ5Ljk2NzQiIGZpbHRlcj0idXJsKCNmbTd4aDZ1NDltMG9lKSIgZmlsbD0idXJsKCNnbTd4aDZ1NDltMG9lMSkiLz48dGV4dCB5PSIxMTkuMTg3NCIgeD0iMTk0LjUzMzMiIHRleHRMZW5ndGg9IjEyNC40NzUxIiBsZW5ndGhBZGp1c3Q9InNwYWNpbmciIGZvbnQtc2l6ZT0iMTIuNSIgZm9udC1mYW1pbHk9IlZlcmRhbmEiIGZpbGw9IiNGRkZGRkYiPk1vdG9yQ29uZm9ybWlkYWRlPC90ZXh0PjwvZz48ZyBkYXRhLXBhcnRpY2lwYW50PSJNb3RvckNvbmZvcm1pZGFkZSIgY2xhc3M9InBhcnRpY2lwYW50IHBhcnRpY2lwYW50LXRhaWwiPjxyZWN0IHk9IjExODguMTUxIiB4PSIxNzYuODI1IiB3aWR0aD0iMTU5Ljg5MTgiIHN0eWxlPSJzdHJva2U6IzIxOTZGMztzdHJva2Utd2lkdGg6MS4wNDE3OyIgcnk9IjQuMTY2NyIgcng9IjQuMTY2NyIgaGVpZ2h0PSI0OS45Njc0IiBmaWx0ZXI9InVybCgjZm03eGg2dTQ5bTBvZSkiIGZpbGw9InVybCgjZ203eGg2dTQ5bTBvZTEpIi8+PHRleHQgeT0iMTIxNy40NjIyIiB4PSIxOTQuNTMzMyIgdGV4dExlbmd0aD0iMTI0LjQ3NTEiIGxlbmd0aEFkanVzdD0ic3BhY2luZyIgZm9udC1zaXplPSIxMi41IiBmb250LWZhbWlseT0iVmVyZGFuYSIgZmlsbD0iI0ZGRkZGRiI+TW90b3JDb25mb3JtaWRhZGU8L3RleHQ+PC9nPjxnIGRhdGEtcGFydGljaXBhbnQ9IkNyZWRvcmEiIGNsYXNzPSJwYXJ0aWNpcGFudCBwYXJ0aWNpcGFudC1oZWFkIj48cmVjdCB5PSI4OS44NzYzIiB4PSI2NjIuNDkxOSIgd2lkdGg9Ijg1LjM1NTYiIHN0eWxlPSJzdHJva2U6IzIxOTZGMztzdHJva2Utd2lkdGg6MS4wNDE3OyIgcnk9IjQuMTY2NyIgcng9IjQuMTY2NyIgaGVpZ2h0PSI0OS45Njc0IiBmaWx0ZXI9InVybCgjZm03eGg2dTQ5bTBvZSkiIGZpbGw9InVybCgjZ203eGg2dTQ5bTBvZTEpIi8+PHRleHQgeT0iMTE5LjE4NzQiIHg9IjY4MC4yMDAyIiB0ZXh0TGVuZ3RoPSI0OS45MzkiIGxlbmd0aEFkanVzdD0ic3BhY2luZyIgZm9udC1zaXplPSIxMi41IiBmb250LWZhbWlseT0iVmVyZGFuYSIgZmlsbD0iI0ZGRkZGRiI+Q3JlZG9yYTwvdGV4dD48L2c+PGcgZGF0YS1wYXJ0aWNpcGFudD0iQ3JlZG9yYSIgY2xhc3M9InBhcnRpY2lwYW50IHBhcnRpY2lwYW50LXRhaWwiPjxyZWN0IHk9IjExODguMTUxIiB4PSI2NjIuNDkxOSIgd2lkdGg9Ijg1LjM1NTYiIHN0eWxlPSJzdHJva2U6IzIxOTZGMztzdHJva2Utd2lkdGg6MS4wNDE3OyIgcnk9IjQuMTY2NyIgcng9IjQuMTY2NyIgaGVpZ2h0PSI0OS45Njc0IiBmaWx0ZXI9InVybCgjZm03eGg2dTQ5bTBvZSkiIGZpbGw9InVybCgjZ203eGg2dTQ5bTBvZTEpIi8+PHRleHQgeT0iMTIxNy40NjIyIiB4PSI2ODAuMjAwMiIgdGV4dExlbmd0aD0iNDkuOTM5IiBsZW5ndGhBZGp1c3Q9InNwYWNpbmciIGZvbnQtc2l6ZT0iMTIuNSIgZm9udC1mYW1pbHk9IlZlcmRhbmEiIGZpbGw9IiNGRkZGRkYiPkNyZWRvcmE8L3RleHQ+PC9nPjxnIGRhdGEtcGFydGljaXBhbnQtMj0iQ3JlZG9yYSIgZGF0YS1wYXJ0aWNpcGFudC0xPSJNb3RvckNvbmZvcm1pZGFkZSIgY2xhc3M9Im1lc3NhZ2UiPjxwb2x5Z29uIHN0eWxlPSJzdHJva2U6IzIxOTZGMztzdHJva2Utd2lkdGg6MS4wNDE3OyIgcG9pbnRzPSI2OTQuMjMyMiwxOTEuODk0NSw3MDQuNjQ4OCwxOTYuMDYxMiw2OTQuMjMyMiwyMDAuMjI3OSw2OTguMzk4OCwxOTYuMDYxMiIgZmlsbD0iIzIxOTZGMyIvPjxsaW5lIHkyPSIxOTYuMDYxMiIgeTE9IjE5Ni4wNjEyIiB4Mj0iNzAwLjQ4MjIiIHgxPSIyNTguMzMzMyIgc3R5bGU9InN0cm9rZTojMjE5NkYzO3N0cm9rZS13aWR0aDozLjEyNTsiLz48dGV4dCB5PSIxODAuNjEzMiIgeD0iMjc2LjA0MTciIHRleHRMZW5ndGg9IjE3MC41OTMzIiBsZW5ndGhBZGp1c3Q9InNwYWNpbmciIGZvbnQtc2l6ZT0iMTIuNSIgZm9udC1mYW1pbHk9IlZlcmRhbmEiIGZpbGw9IiMyMjIyMjIiPkdFVCAvY29uc2VudHMve2NvbnNlbnRJZH08L3RleHQ+PC9nPjxnIGRhdGEtcGFydGljaXBhbnQtMj0iTW90b3JDb25mb3JtaWRhZGUiIGRhdGEtcGFydGljaXBhbnQtMT0iQ3JlZG9yYSIgY2xhc3M9Im1lc3NhZ2UiPjxwb2x5Z29uIHN0eWxlPSJzdHJva2U6IzIxOTZGMztzdHJva2Utd2lkdGg6MS4wNDE3OyIgcG9pbnRzPSIyNjkuNzkxNywyNDEuODYyLDI1OS4zNzUsMjQ2LjAyODYsMjY5Ljc5MTcsMjUwLjE5NTMsMjY1LjYyNSwyNDYuMDI4NiIgZmlsbD0iIzIxOTZGMyIvPjxsaW5lIHkyPSIyNDYuMDI4NiIgeTE9IjI0Ni4wMjg2IiB4Mj0iNzA1LjY5MDUiIHgxPSIyNjMuNTQxNyIgc3R5bGU9InN0cm9rZTojMjE5NkYzO3N0cm9rZS13aWR0aDozLjEyNTsiLz48dGV4dCB5PSIyMzAuNTgwNiIgeD0iMjg2LjQ1ODMiIHRleHRMZW5ndGg9IjIzLjg1ODYiIGxlbmd0aEFkanVzdD0ic3BhY2luZyIgZm9udC1zaXplPSIxMi41IiBmb250LWZhbWlseT0iVmVyZGFuYSIgZmlsbD0iIzIyMjIyMiI+MjAwPC90ZXh0PjwvZz48ZyBkYXRhLXBhcnRpY2lwYW50LTI9Ik1vdG9yQ29uZm9ybWlkYWRlIiBkYXRhLXBhcnRpY2lwYW50LTE9Ik1vdG9yQ29uZm9ybWlkYWRlIiBjbGFzcz0ibWVzc2FnZSI+PGxpbmUgeTI9IjI5NS45OTYxIiB5MT0iMjk1Ljk5NjEiIHgyPSIzMDIuMDgzMyIgeDE9IjI1OC4zMzMzIiBzdHlsZT0ic3Ryb2tlOiMyMTk2RjM7c3Ryb2tlLXdpZHRoOjMuMTI1OyIvPjxsaW5lIHkyPSIzMDkuNTM3OCIgeTE9IjI5NS45OTYxIiB4Mj0iMzAyLjA4MzMiIHgxPSIzMDIuMDgzMyIgc3R5bGU9InN0cm9rZTojMjE5NkYzO3N0cm9rZS13aWR0aDozLjEyNTsiLz48bGluZSB5Mj0iMzA5LjUzNzgiIHkxPSIzMDkuNTM3OCIgeDI9IjMwMi4wODMzIiB4MT0iMjU5LjM3NSIgc3R5bGU9InN0cm9rZTojMjE5NkYzO3N0cm9rZS13aWR0aDozLjEyNTsiLz48cG9seWdvbiBzdHlsZT0ic3Ryb2tlOiMyMTk2RjM7c3Ryb2tlLXdpZHRoOjEuMDQxNzsiIHBvaW50cz0iMjY5Ljc5MTcsMzA1LjM3MTEsMjU5LjM3NSwzMDkuNTM3OCwyNjkuNzkxNywzMTMuNzA0NCwyNjUuNjI1LDMwOS41Mzc4IiBmaWxsPSIjMjE5NkYzIi8+PHRleHQgeT0iMjgwLjU0ODEiIHg9IjI3Ni4wNDE3IiB0ZXh0TGVuZ3RoPSI0MTIuOTgyMiIgbGVuZ3RoQWRqdXN0PSJzcGFjaW5nIiBmb250LXNpemU9IjEyLjUiIGZvbnQtZmFtaWx5PSJWZXJkYW5hIiBmaWxsPSIjMjIyMjIyIj5WYWxpZGEgc2UgbyBvYmpldG8gcGVybWlzc2lvbnMgcG9zc3VpIGEgcGVybWlzc2lvbnMgTE9BTlNfUkVBRDwvdGV4dD48L2c+PGcgZGF0YS1wYXJ0aWNpcGFudC0yPSJDcmVkb3JhIiBkYXRhLXBhcnRpY2lwYW50LTE9Ik1vdG9yQ29uZm9ybWlkYWRlIiBjbGFzcz0ibWVzc2FnZSI+PHBvbHlnb24gc3R5bGU9InN0cm9rZTojMjE5NkYzO3N0cm9rZS13aWR0aDoxLjA0MTc7IiBwb2ludHM9IjY5NC4yMzIyLDM1NS4zMzg1LDcwNC42NDg4LDM1OS41MDUyLDY5NC4yMzIyLDM2My42NzE5LDY5OC4zOTg4LDM1OS41MDUyIiBmaWxsPSIjMjE5NkYzIi8+PGxpbmUgeTI9IjM1OS41MDUyIiB5MT0iMzU5LjUwNTIiIHgyPSI3MDAuNDgyMiIgeDE9IjI1OC4zMzMzIiBzdHlsZT0ic3Ryb2tlOiMyMTk2RjM7c3Ryb2tlLXdpZHRoOjMuMTI1OyIvPjx0ZXh0IHk9IjM0NC4wNTcyIiB4PSIyNzYuMDQxNyIgdGV4dExlbmd0aD0iMTgyLjg2NzQiIGxlbmd0aEFkanVzdD0ic3BhY2luZyIgZm9udC1zaXplPSIxMi41IiBmb250LWZhbWlseT0iVmVyZGFuYSIgZmlsbD0iIzIyMjIyMiI+R0VUIExvYW5zIENvbnRyYWN0cyBBUEkgLSBWMjwvdGV4dD48L2c+PGcgZGF0YS1wYXJ0aWNpcGFudC0yPSJNb3RvckNvbmZvcm1pZGFkZSIgZGF0YS1wYXJ0aWNpcGFudC0xPSJDcmVkb3JhIiBjbGFzcz0ibWVzc2FnZSI+PHBvbHlnb24gc3R5bGU9InN0cm9rZTojMjE5NkYzO3N0cm9rZS13aWR0aDoxLjA0MTc7IiBwb2ludHM9IjI2OS43OTE3LDQwNS4zMDYsMjU5LjM3NSw0MDkuNDcyNywyNjkuNzkxNyw0MTMuNjM5MywyNjUuNjI1LDQwOS40NzI3IiBmaWxsPSIjMjE5NkYzIi8+PGxpbmUgeTI9IjQwOS40NzI3IiB5MT0iNDA5LjQ3MjciIHgyPSI3MDUuNjkwNSIgeDE9IjI2My41NDE3IiBzdHlsZT0ic3Ryb2tlOiMyMTk2RjM7c3Ryb2tlLXdpZHRoOjMuMTI1OyIvPjx0ZXh0IHk9IjM5NC4wMjQ3IiB4PSIyODYuNDU4MyIgdGV4dExlbmd0aD0iMjMuODU4NiIgbGVuZ3RoQWRqdXN0PSJzcGFjaW5nIiBmb250LXNpemU9IjEyLjUiIGZvbnQtZmFtaWx5PSJWZXJkYW5hIiBmaWxsPSIjMjIyMjIyIj4yMDA8L3RleHQ+PC9nPjxnIGRhdGEtcGFydGljaXBhbnQtMj0iTW90b3JDb25mb3JtaWRhZGUiIGRhdGEtcGFydGljaXBhbnQtMT0iTW90b3JDb25mb3JtaWRhZGUiIGNsYXNzPSJtZXNzYWdlIj48bGluZSB5Mj0iNDU5LjQ0MDEiIHkxPSI0NTkuNDQwMSIgeDI9IjMwMi4wODMzIiB4MT0iMjU4LjMzMzMiIHN0eWxlPSJzdHJva2U6IzIxOTZGMztzdHJva2Utd2lkdGg6My4xMjU7Ii8+PGxpbmUgeTI9IjQ3Mi45ODE4IiB5MT0iNDU5LjQ0MDEiIHgyPSIzMDIuMDgzMyIgeDE9IjMwMi4wODMzIiBzdHlsZT0ic3Ryb2tlOiMyMTk2RjM7c3Ryb2tlLXdpZHRoOjMuMTI1OyIvPjxsaW5lIHkyPSI0NzIuOTgxOCIgeTE9IjQ3Mi45ODE4IiB4Mj0iMzAyLjA4MzMiIHgxPSIyNTkuMzc1IiBzdHlsZT0ic3Ryb2tlOiMyMTk2RjM7c3Ryb2tlLXdpZHRoOjMuMTI1OyIvPjxwb2x5Z29uIHN0eWxlPSJzdHJva2U6IzIxOTZGMztzdHJva2Utd2lkdGg6MS4wNDE3OyIgcG9pbnRzPSIyNjkuNzkxNyw0NjguODE1MSwyNTkuMzc1LDQ3Mi45ODE4LDI2OS43OTE3LDQ3Ny4xNDg0LDI2NS42MjUsNDcyLjk4MTgiIGZpbGw9IiMyMTk2RjMiLz48dGV4dCB5PSI0NDMuOTkyMSIgeD0iMjc2LjA0MTciIHRleHRMZW5ndGg9IjI4Ni4zMjIiIGxlbmd0aEFkanVzdD0ic3BhY2luZyIgZm9udC1zaXplPSIxMi41IiBmb250LWZhbWlseT0iVmVyZGFuYSIgZmlsbD0iIzIyMjIyMiI+VmFsaWRhIHJldG9ybm8gZGUgYWNvcmRvIGNvbSBhIGVzcGVjaWZpY2HDp8OjbzwvdGV4dD48L2c+PHBhdGggc3R5bGU9InN0cm9rZTojNjY2NjY2O3N0cm9rZS13aWR0aDoxLjA0MTc7IiBmaWxsPSIjRkZGRkZGIiBkPSJNMTI4LjkwODMsNDg4LjYwNjggTDIyMi44NTc3LDQ4OC42MDY4IEwyMjIuODU3Nyw1MTUuNjU3NiBMMjEyLjQ0MSw1MjYuMDc0MiBMMTI0Ljc0MTYsNTI2LjA3NDIgTDEyNC43NDE2LDQ5Mi43NzM0IEE0LjE2NjcsNC4xNjY3IDAgMCAxIDEyOC45MDgzLDQ4OC42MDY4Ii8+PHJlY3QgeT0iNDg4LjYwNjgiIHg9IjEyNC43NDE2IiB3aWR0aD0iNjc4LjMxNDIiIHN0eWxlPSJzdHJva2U6IzIxOTZGMztzdHJva2Utd2lkdGg6MS4wNDE3OyIgcnk9IjQuMTY2NyIgcng9IjQuMTY2NyIgaGVpZ2h0PSIyMjAuNjcwNiIgZmlsbD0ibm9uZSIvPjx0ZXh0IHk9IjUxMS42Njc5IiB4PSIxNTAuNzgzMyIgdGV4dExlbmd0aD0iMzAuNDA3NyIgbGVuZ3RoQWRqdXN0PSJzcGFjaW5nIiBmb250LXdlaWdodD0iYm9sZCIgZm9udC1zaXplPSIxMi41IiBmb250LWZhbWlseT0iVmVyZGFuYSIgZmlsbD0iIzlDMjdCMCI+bG9vcDwvdGV4dD48dGV4dCB5PSI1MTIuNzA5NiIgeD0iMjQ4Ljg5OTMiIHRleHRMZW5ndGg9IjMxOS44MDU5IiBsZW5ndGhBZGp1c3Q9InNwYWNpbmciIGZvbnQtd2VpZ2h0PSJib2xkIiBmb250LXNpemU9IjEyLjUiIGZvbnQtZmFtaWx5PSJWZXJkYW5hIiBmaWxsPSIjMjIyMjIyIj5bUGFyYSBjYWRhIGNvbnRyYXRvIGRvIHRpcG8gQ1BDIGlkZW50aWZpY2Fkb108L3RleHQ+PGcgZGF0YS1wYXJ0aWNpcGFudC0yPSJDcmVkb3JhIiBkYXRhLXBhcnRpY2lwYW50LTE9Ik1vdG9yQ29uZm9ybWlkYWRlIiBjbGFzcz0ibWVzc2FnZSI+PHBvbHlnb24gc3R5bGU9InN0cm9rZTojMjE5NkYzO3N0cm9rZS13aWR0aDoxLjA0MTc7IiBwb2ludHM9IjY5NC4yMzIyLDU4My4zMDA4LDcwNC42NDg4LDU4Ny40Njc0LDY5NC4yMzIyLDU5MS42MzQxLDY5OC4zOTg4LDU4Ny40Njc0IiBmaWxsPSIjMjE5NkYzIi8+PGxpbmUgeTI9IjU4Ny40Njc0IiB5MT0iNTg3LjQ2NzQiIHgyPSI3MDAuNDgyMiIgeDE9IjI1OC4zMzMzIiBzdHlsZT0ic3Ryb2tlOiMyMTk2RjM7c3Ryb2tlLXdpZHRoOjMuMTI1OyIvPjx0ZXh0IHk9IjU3Mi4wMTk0IiB4PSIyNzYuMDQxNyIgdGV4dExlbmd0aD0iMTg5LjY3OSIgbGVuZ3RoQWRqdXN0PSJzcGFjaW5nIiBmb250LXNpemU9IjEyLjUiIGZvbnQtZmFtaWx5PSJWZXJkYW5hIiBmaWxsPSIjMjIyMjIyIj5HRVQgL2NvbmN1cnJlbnQtbWFuYWdlbWVudDwvdGV4dD48L2c+PGcgZGF0YS1wYXJ0aWNpcGFudC0yPSJNb3RvckNvbmZvcm1pZGFkZSIgZGF0YS1wYXJ0aWNpcGFudC0xPSJDcmVkb3JhIiBjbGFzcz0ibWVzc2FnZSI+PHBvbHlnb24gc3R5bGU9InN0cm9rZTojMjE5NkYzO3N0cm9rZS13aWR0aDoxLjA0MTc7IiBwb2ludHM9IjI2OS43OTE3LDYzMy4yNjgyLDI1OS4zNzUsNjM3LjQzNDksMjY5Ljc5MTcsNjQxLjYwMTYsMjY1LjYyNSw2MzcuNDM0OSIgZmlsbD0iIzIxOTZGMyIvPjxsaW5lIHkyPSI2MzcuNDM0OSIgeTE9IjYzNy40MzQ5IiB4Mj0iNzA1LjY5MDUiIHgxPSIyNjMuNTQxNyIgc3R5bGU9InN0cm9rZTojMjE5NkYzO3N0cm9rZS13aWR0aDozLjEyNTsiLz48dGV4dCB5PSI2MjEuOTg2OSIgeD0iMjg2LjQ1ODMiIHRleHRMZW5ndGg9IjIzLjg1ODYiIGxlbmd0aEFkanVzdD0ic3BhY2luZyIgZm9udC1zaXplPSIxMi41IiBmb250LWZhbWlseT0iVmVyZGFuYSIgZmlsbD0iIzIyMjIyMiI+MjAwPC90ZXh0PjwvZz48ZyBkYXRhLXBhcnRpY2lwYW50LTI9Ik1vdG9yQ29uZm9ybWlkYWRlIiBkYXRhLXBhcnRpY2lwYW50LTE9Ik1vdG9yQ29uZm9ybWlkYWRlIiBjbGFzcz0ibWVzc2FnZSI+PGxpbmUgeTI9IjY4Ny40MDIzIiB5MT0iNjg3LjQwMjMiIHgyPSIzMDIuMDgzMyIgeDE9IjI1OC4zMzMzIiBzdHlsZT0ic3Ryb2tlOiMyMTk2RjM7c3Ryb2tlLXdpZHRoOjMuMTI1OyIvPjxsaW5lIHkyPSI3MDAuOTQ0IiB5MT0iNjg3LjQwMjMiIHgyPSIzMDIuMDgzMyIgeDE9IjMwMi4wODMzIiBzdHlsZT0ic3Ryb2tlOiMyMTk2RjM7c3Ryb2tlLXdpZHRoOjMuMTI1OyIvPjxsaW5lIHkyPSI3MDAuOTQ0IiB5MT0iNzAwLjk0NCIgeDI9IjMwMi4wODMzIiB4MT0iMjU5LjM3NSIgc3R5bGU9InN0cm9rZTojMjE5NkYzO3N0cm9rZS13aWR0aDozLjEyNTsiLz48cG9seWdvbiBzdHlsZT0ic3Ryb2tlOiMyMTk2RjM7c3Ryb2tlLXdpZHRoOjEuMDQxNzsiIHBvaW50cz0iMjY5Ljc5MTcsNjk2Ljc3NzMsMjU5LjM3NSw3MDAuOTQ0LDI2OS43OTE3LDcwNS4xMTA3LDI2NS42MjUsNzAwLjk0NCIgZmlsbD0iIzIxOTZGMyIvPjx0ZXh0IHk9IjY3MS45NTQzIiB4PSIyNzYuMDQxNyIgdGV4dExlbmd0aD0iMjk0LjgzMDMiIGxlbmd0aEFkanVzdD0ic3BhY2luZyIgZm9udC1zaXplPSIxMi41IiBmb250LWZhbWlseT0iVmVyZGFuYSIgZmlsbD0iIzIyMjIyMiI+VmVyaWZpY2EgcmV0b3JubyBkZSBhY29yZG8gY29tIGEgZXNwZWNpZmljYcOnw6NvPC90ZXh0PjwvZz48ZyBkYXRhLXBhcnRpY2lwYW50LTI9Ik1vdG9yQ29uZm9ybWlkYWRlIiBkYXRhLXBhcnRpY2lwYW50LTE9Ik1vdG9yQ29uZm9ybWlkYWRlIiBjbGFzcz0ibWVzc2FnZSI+PGxpbmUgeTI9Ijc1OC4yMDMxIiB5MT0iNzU4LjIwMzEiIHgyPSIzMDIuMDgzMyIgeDE9IjI1OC4zMzMzIiBzdHlsZT0ic3Ryb2tlOiMyMTk2RjM7c3Ryb2tlLXdpZHRoOjMuMTI1OyIvPjxsaW5lIHkyPSI3NzEuNzQ0OCIgeTE9Ijc1OC4yMDMxIiB4Mj0iMzAyLjA4MzMiIHgxPSIzMDIuMDgzMyIgc3R5bGU9InN0cm9rZTojMjE5NkYzO3N0cm9rZS13aWR0aDozLjEyNTsiLz48bGluZSB5Mj0iNzcxLjc0NDgiIHkxPSI3NzEuNzQ0OCIgeDI9IjMwMi4wODMzIiB4MT0iMjU5LjM3NSIgc3R5bGU9InN0cm9rZTojMjE5NkYzO3N0cm9rZS13aWR0aDozLjEyNTsiLz48cG9seWdvbiBzdHlsZT0ic3Ryb2tlOiMyMTk2RjM7c3Ryb2tlLXdpZHRoOjEuMDQxNzsiIHBvaW50cz0iMjY5Ljc5MTcsNzY3LjU3ODEsMjU5LjM3NSw3NzEuNzQ0OCwyNjkuNzkxNyw3NzUuOTExNSwyNjUuNjI1LDc3MS43NDQ4IiBmaWxsPSIjMjE5NkYzIi8+PHRleHQgeT0iNzQyLjc1NTEiIHg9IjI3Ni4wNDE3IiB0ZXh0TGVuZ3RoPSIzNTMuMzc1MiIgbGVuZ3RoQWRqdXN0PSJzcGFjaW5nIiBmb250LXNpemU9IjEyLjUiIGZvbnQtZmFtaWx5PSJWZXJkYW5hIiBmaWxsPSIjMjIyMjIyIj5TZWxlY2lvbmEgdW0gY29udHJhdG8gY29tIHNpdHVhw6fDo28gaWd1YWwgIkRJU1BPTklWRUwiPC90ZXh0PjwvZz48ZyBkYXRhLXBhcnRpY2lwYW50LTI9IkNyZWRvcmEiIGRhdGEtcGFydGljaXBhbnQtMT0iTW90b3JDb25mb3JtaWRhZGUiIGNsYXNzPSJtZXNzYWdlIj48cG9seWdvbiBzdHlsZT0ic3Ryb2tlOiMyMTk2RjM7c3Ryb2tlLXdpZHRoOjEuMDQxNzsiIHBvaW50cz0iNjk0LjIzMjIsODE3LjU0NTYsNzA0LjY0ODgsODIxLjcxMjIsNjk0LjIzMjIsODI1Ljg3ODksNjk4LjM5ODgsODIxLjcxMjIiIGZpbGw9IiMyMTk2RjMiLz48bGluZSB5Mj0iODIxLjcxMjIiIHkxPSI4MjEuNzEyMiIgeDI9IjcwMC40ODIyIiB4MT0iMjU4LjMzMzMiIHN0eWxlPSJzdHJva2U6IzIxOTZGMztzdHJva2Utd2lkdGg6My4xMjU7Ii8+PHRleHQgeT0iODA2LjI2NDIiIHg9IjI3Ni4wNDE3IiB0ZXh0TGVuZ3RoPSIzNDkuMDM1NiIgbGVuZ3RoQWRqdXN0PSJzcGFjaW5nIiBmb250LXNpemU9IjEyLjUiIGZvbnQtZmFtaWx5PSJWZXJkYW5hIiBmaWxsPSIjMjIyMjIyIj5QT1NUIC9wb3J0YWJpbGl0aWVzIChjb20gYSBwcm9wb3N0YSBvZmVydGFkYSBhbyBjbGllbnRlKTwvdGV4dD48L2c+PGcgZGF0YS1wYXJ0aWNpcGFudC0yPSJNb3RvckNvbmZvcm1pZGFkZSIgZGF0YS1wYXJ0aWNpcGFudC0xPSJDcmVkb3JhIiBjbGFzcz0ibWVzc2FnZSI+PHBvbHlnb24gc3R5bGU9InN0cm9rZTojMjE5NkYzO3N0cm9rZS13aWR0aDoxLjA0MTc7IiBwb2ludHM9IjI2OS43OTE3LDg2Ny41MTMsMjU5LjM3NSw4NzEuNjc5NywyNjkuNzkxNyw4NzUuODQ2NCwyNjUuNjI1LDg3MS42Nzk3IiBmaWxsPSIjMjE5NkYzIi8+PGxpbmUgeTI9Ijg3MS42Nzk3IiB5MT0iODcxLjY3OTciIHgyPSI3MDUuNjkwNSIgeDE9IjI2My41NDE3IiBzdHlsZT0ic3Ryb2tlOiMyMTk2RjM7c3Ryb2tlLXdpZHRoOjMuMTI1OyIvPjx0ZXh0IHk9Ijg1Ni4yMzE3IiB4PSIyODYuNDU4MyIgdGV4dExlbmd0aD0iMjMuODU4NiIgbGVuZ3RoQWRqdXN0PSJzcGFjaW5nIiBmb250LXNpemU9IjEyLjUiIGZvbnQtZmFtaWx5PSJWZXJkYW5hIiBmaWxsPSIjMjIyMjIyIj4yMDI8L3RleHQ+PC9nPjxnIGRhdGEtcGFydGljaXBhbnQtMj0iTW90b3JDb25mb3JtaWRhZGUiIGRhdGEtcGFydGljaXBhbnQtMT0iTW90b3JDb25mb3JtaWRhZGUiIGNsYXNzPSJtZXNzYWdlIj48bGluZSB5Mj0iOTIxLjY0NzEiIHkxPSI5MjEuNjQ3MSIgeDI9IjMwMi4wODMzIiB4MT0iMjU4LjMzMzMiIHN0eWxlPSJzdHJva2U6IzIxOTZGMztzdHJva2Utd2lkdGg6My4xMjU7Ii8+PGxpbmUgeTI9IjkzNS4xODg4IiB5MT0iOTIxLjY0NzEiIHgyPSIzMDIuMDgzMyIgeDE9IjMwMi4wODMzIiBzdHlsZT0ic3Ryb2tlOiMyMTk2RjM7c3Ryb2tlLXdpZHRoOjMuMTI1OyIvPjxsaW5lIHkyPSI5MzUuMTg4OCIgeTE9IjkzNS4xODg4IiB4Mj0iMzAyLjA4MzMiIHgxPSIyNTkuMzc1IiBzdHlsZT0ic3Ryb2tlOiMyMTk2RjM7c3Ryb2tlLXdpZHRoOjMuMTI1OyIvPjxwb2x5Z29uIHN0eWxlPSJzdHJva2U6IzIxOTZGMztzdHJva2Utd2lkdGg6MS4wNDE3OyIgcG9pbnRzPSIyNjkuNzkxNyw5MzEuMDIyMSwyNTkuMzc1LDkzNS4xODg4LDI2OS43OTE3LDkzOS4zNTU1LDI2NS42MjUsOTM1LjE4ODgiIGZpbGw9IiMyMTk2RjMiLz48dGV4dCB5PSI5MDYuMTk5MSIgeD0iMjc2LjA0MTciIHRleHRMZW5ndGg9IjI4Ni4zMjIiIGxlbmd0aEFkanVzdD0ic3BhY2luZyIgZm9udC1zaXplPSIxMi41IiBmb250LWZhbWlseT0iVmVyZGFuYSIgZmlsbD0iIzIyMjIyMiI+VmFsaWRhIHJldG9ybm8gZGUgYWNvcmRvIGNvbSBhIGVzcGVjaWZpY2HDp8OjbzwvdGV4dD48L2c+PHBhdGggc3R5bGU9InN0cm9rZTojNjY2NjY2O3N0cm9rZS13aWR0aDoxLjA0MTc7IiBmaWxsPSIjRkZGRkZGIiBkPSJNMTI4LjkwODMsOTUwLjgxMzggTDIyMi44NTc3LDk1MC44MTM4IEwyMjIuODU3Nyw5NzcuODY0NiBMMjEyLjQ0MSw5ODguMjgxMyBMMTI0Ljc0MTYsOTg4LjI4MTMgTDEyNC43NDE2LDk1NC45ODA1IEE0LjE2NjcsNC4xNjY3IDAgMCAxIDEyOC45MDgzLDk1MC44MTM4Ii8+PHJlY3QgeT0iOTUwLjgxMzgiIHg9IjEyNC43NDE2IiB3aWR0aD0iNjc4LjMxNDIiIHN0eWxlPSJzdHJva2U6IzIxOTZGMztzdHJva2Utd2lkdGg6MS4wNDE3OyIgcnk9IjQuMTY2NyIgcng9IjQuMTY2NyIgaGVpZ2h0PSIyMjAuNjcwNiIgZmlsbD0ibm9uZSIvPjx0ZXh0IHk9Ijk3My44NzQ5IiB4PSIxNTAuNzgzMyIgdGV4dExlbmd0aD0iMzAuNDA3NyIgbGVuZ3RoQWRqdXN0PSJzcGFjaW5nIiBmb250LXdlaWdodD0iYm9sZCIgZm9udC1zaXplPSIxMi41IiBmb250LWZhbWlseT0iVmVyZGFuYSIgZmlsbD0iIzlDMjdCMCI+bG9vcDwvdGV4dD48dGV4dCB5PSI5NzQuOTE2NiIgeD0iMjQ4Ljg5OTMiIHRleHRMZW5ndGg9IjQ0MS41MTYxIiBsZW5ndGhBZGp1c3Q9InNwYWNpbmciIGZvbnQtd2VpZ2h0PSJib2xkIiBmb250LXNpemU9IjEyLjUiIGZvbnQtZmFtaWx5PSJWZXJkYW5hIiBmaWxsPSIjMjIyMjIyIj5bQ2hhbWFkYXMgZGUgcG9sbGluZyBjb25mb3JtZSByZWNvbWVuZGHDp8OjbyBkbyBDb25mbHVlbmNlXTwvdGV4dD48ZyBkYXRhLXBhcnRpY2lwYW50LTI9IkNyZWRvcmEiIGRhdGEtcGFydGljaXBhbnQtMT0iTW90b3JDb25mb3JtaWRhZGUiIGNsYXNzPSJtZXNzYWdlIj48cG9seWdvbiBzdHlsZT0ic3Ryb2tlOiMyMTk2RjM7c3Ryb2tlLXdpZHRoOjEuMDQxNzsiIHBvaW50cz0iNjk0LjIzMjIsMTA0NS41MDc4LDcwNC42NDg4LDEwNDkuNjc0NSw2OTQuMjMyMiwxMDUzLjg0MTEsNjk4LjM5ODgsMTA0OS42NzQ1IiBmaWxsPSIjMjE5NkYzIi8+PGxpbmUgeTI9IjEwNDkuNjc0NSIgeTE9IjEwNDkuNjc0NSIgeDI9IjcwMC40ODIyIiB4MT0iMjU4LjMzMzMiIHN0eWxlPSJzdHJva2U6IzIxOTZGMztzdHJva2Utd2lkdGg6My4xMjU7Ii8+PHRleHQgeT0iMTAzNC4yMjY1IiB4PSIyNzYuMDQxNyIgdGV4dExlbmd0aD0iMjAzLjI4OTgiIGxlbmd0aEFkanVzdD0ic3BhY2luZyIgZm9udC1zaXplPSIxMi41IiBmb250LWZhbWlseT0iVmVyZGFuYSIgZmlsbD0iIzIyMjIyMiI+R0VUIC9wb3J0YWJpbGl0aWVzL3twb3J0YWJpbGl0eUlkfTwvdGV4dD48L2c+PGcgZGF0YS1wYXJ0aWNpcGFudC0yPSJNb3RvckNvbmZvcm1pZGFkZSIgZGF0YS1wYXJ0aWNpcGFudC0xPSJDcmVkb3JhIiBjbGFzcz0ibWVzc2FnZSI+PHBvbHlnb24gc3R5bGU9InN0cm9rZTojMjE5NkYzO3N0cm9rZS13aWR0aDoxLjA0MTc7IiBwb2ludHM9IjI2OS43OTE3LDEwOTUuNDc1MywyNTkuMzc1LDEwOTkuNjQxOSwyNjkuNzkxNywxMTAzLjgwODYsMjY1LjYyNSwxMDk5LjY0MTkiIGZpbGw9IiMyMTk2RjMiLz48bGluZSB5Mj0iMTA5OS42NDE5IiB5MT0iMTA5OS42NDE5IiB4Mj0iNzA1LjY5MDUiIHgxPSIyNjMuNTQxNyIgc3R5bGU9InN0cm9rZTojMjE5NkYzO3N0cm9rZS13aWR0aDozLjEyNTsiLz48dGV4dCB5PSIxMDg0LjE5MzkiIHg9IjI4Ni40NTgzIiB0ZXh0TGVuZ3RoPSIyMy44NTg2IiBsZW5ndGhBZGp1c3Q9InNwYWNpbmciIGZvbnQtc2l6ZT0iMTIuNSIgZm9udC1mYW1pbHk9IlZlcmRhbmEiIGZpbGw9IiMyMjIyMjIiPjIwMDwvdGV4dD48L2c+PGcgZGF0YS1wYXJ0aWNpcGFudC0yPSJNb3RvckNvbmZvcm1pZGFkZSIgZGF0YS1wYXJ0aWNpcGFudC0xPSJNb3RvckNvbmZvcm1pZGFkZSIgY2xhc3M9Im1lc3NhZ2UiPjxsaW5lIHkyPSIxMTQ5LjYwOTQiIHkxPSIxMTQ5LjYwOTQiIHgyPSIzMDIuMDgzMyIgeDE9IjI1OC4zMzMzIiBzdHlsZT0ic3Ryb2tlOiMyMTk2RjM7c3Ryb2tlLXdpZHRoOjMuMTI1OyIvPjxsaW5lIHkyPSIxMTYzLjE1MSIgeTE9IjExNDkuNjA5NCIgeDI9IjMwMi4wODMzIiB4MT0iMzAyLjA4MzMiIHN0eWxlPSJzdHJva2U6IzIxOTZGMztzdHJva2Utd2lkdGg6My4xMjU7Ii8+PGxpbmUgeTI9IjExNjMuMTUxIiB5MT0iMTE2My4xNTEiIHgyPSIzMDIuMDgzMyIgeDE9IjI1OS4zNzUiIHN0eWxlPSJzdHJva2U6IzIxOTZGMztzdHJva2Utd2lkdGg6My4xMjU7Ii8+PHBvbHlnb24gc3R5bGU9InN0cm9rZTojMjE5NkYzO3N0cm9rZS13aWR0aDoxLjA0MTc7IiBwb2ludHM9IjI2OS43OTE3LDExNTguOTg0NCwyNTkuMzc1LDExNjMuMTUxLDI2OS43OTE3LDExNjcuMzE3NywyNjUuNjI1LDExNjMuMTUxIiBmaWxsPSIjMjE5NkYzIi8+PHRleHQgeT0iMTEzNC4xNjE0IiB4PSIyNzYuMDQxNyIgdGV4dExlbmd0aD0iMjgwLjgyMjgiIGxlbmd0aEFkanVzdD0ic3BhY2luZyIgZm9udC1zaXplPSIxMi41IiBmb250LWZhbWlseT0iVmVyZGFuYSIgZmlsbD0iIzIyMjIyMiI+VmFsaWRhIHNlIG8gY2FtcG8gc3RhdHVzIMOpIGlndWFsICJSRUpFQ1RFRCI8L3RleHQ+PC9nPjwvZz48L3N2Zz4=;" vertex="1" parent="1">
                    <mxGeometry width="873" height="1200" as="geometry"/>
                </mxCell>
            </root>
        </mxGraphModel>
    </diagram>
    <diagram id="3tWkQC1Dw021tCHniNMT" name="Contraproposta - cenario 3">
        <mxGraphModel grid="1" page="1" gridSize="10" guides="1" tooltips="1" connect="1" arrows="1" fold="1" pageScale="1" pageWidth="827" pageHeight="1169" math="0" shadow="0">
            <root>
                <mxCell id="0"/>
                <mxCell id="1" parent="0"/>
                <mxCell id="dtkP_-Q5nwgR_DlnBM12-1" value="" style="shape=image;verticalLabelPosition=bottom;labelBackgroundColor=default;verticalAlign=top;aspect=fixed;imageAspect=0;editableCssRules=.*;image=data:image/svg+xml,PHN2ZyB4bWxuczp4bGluaz0iaHR0cDovL3d3dy53My5vcmcvMTk5OS94bGluayIgeG1sbnM9Imh0dHA6Ly93d3cudzMub3JnLzIwMDAvc3ZnIiB6b29tQW5kUGFuPSJtYWduaWZ5IiB3aWR0aD0iOTA1LjczOTMxODg0NzY1NjIiIHZpZXdCb3g9IjIwLjgzMzI5OTYzNjg0MDgyIDIwLjgzMzI5OTYzNjg0MDgyIDkwNS43MzkzMTg4NDc2NTYyIDEzODAuNzI5MjQ4MDQ2ODc1IiB2ZXJzaW9uPSIxLjEiIHN0eWxlPSJ3aWR0aDo5NTBweDtoZWlnaHQ6MTQxOHB4OyIgcHJlc2VydmVBc3BlY3RSYXRpbz0ibm9uZSIgaGVpZ2h0PSIxMzgxLjQ1OTUzNTAyNTc0MzIiIGRhdGEtZGlhZ3JhbS10eXBlPSJTRVFVRU5DRSI+PHRpdGxlPkNvbnRyYXByb3Bvc3RhIC0gQ2xpZW50ZSByZWFsaXphIGNhbmNlbGFtZW50byBkbyBwZWRpZG8gZGUgcG9ydGFiaWxpZGFkZTwvdGl0bGU+PGRlZnM+PGxpbmVhckdyYWRpZW50IHkyPSIxMDAlIiB5MT0iMCUiIHgyPSI1MCUiIHgxPSI1MCUiIGlkPSJndWNvaHdqbmZ4d3FuMCI+PHN0b3Agc3RvcC1jb2xvcj0iI0ZGRkZGRiIgb2Zmc2V0PSIwJSIvPjxzdG9wIHN0b3AtY29sb3I9IiNGRkZGRkYiIG9mZnNldD0iMTAwJSIvPjwvbGluZWFyR3JhZGllbnQ+PGZpbHRlciB5PSItMSIgeD0iLTEiIHdpZHRoPSIzMDAlIiBpZD0iZnVjb2h3am5meHdxbiIgaGVpZ2h0PSIzMDAlIj48ZmVHYXVzc2lhbkJsdXIgc3RkRGV2aWF0aW9uPSIyLjA4MzMiIHJlc3VsdD0iYmx1ck91dCIvPjxmZUNvbG9yTWF0cml4IHZhbHVlcz0iMCAwIDAgMCAwIDAgMCAwIDAgMCAwIDAgMCAwIDAgMCAwIDAgLjQgMCIgdHlwZT0ibWF0cml4IiByZXN1bHQ9ImJsdXJPdXQyIiBpbj0iYmx1ck91dCIvPjxmZU9mZnNldCByZXN1bHQ9ImJsdXJPdXQzIiBpbj0iYmx1ck91dDIiIGR5PSI0LjE2NjciIGR4PSI0LjE2NjciLz48ZmVCbGVuZCBtb2RlPSJub3JtYWwiIGluMj0iYmx1ck91dDMiIGluPSJTb3VyY2VHcmFwaGljIi8+PC9maWx0ZXI+PGxpbmVhckdyYWRpZW50IHkyPSIxMDAlIiB5MT0iMCUiIHgyPSI1MCUiIHgxPSI1MCUiIGlkPSJndWNvaHdqbmZ4d3FuMSI+PHN0b3Agc3RvcC1jb2xvcj0iIzREQUJGNSIgb2Zmc2V0PSIwJSIvPjxzdG9wIHN0b3AtY29sb3I9IiMyMTk2RjMiIG9mZnNldD0iMTAwJSIvPjwvbGluZWFyR3JhZGllbnQ+PC9kZWZzPjxnPjxyZWN0IHk9IjIwLjgzMzMiIHg9IjIwLjgzMzMiIHdpZHRoPSI5MDUuNzM5MyIgc3R5bGU9InN0cm9rZTojQ0NDQ0NDO3N0cm9rZS13aWR0aDoxLjA0MTc7IiByeT0iNC4xNjY3IiByeD0iNC4xNjY3IiBoZWlnaHQ9IjU3LjU4NDYiIGZpbGw9InVybCgjZ3Vjb2h3am5meHdxbjApIi8+PHRleHQgeT0iNTYuODM4IiB4PSIzNy41IiB0ZXh0TGVuZ3RoPSI4NzIuNDA2IiBsZW5ndGhBZGp1c3Q9InNwYWNpbmciIGZvbnQtd2VpZ2h0PSJib2xkIiBmb250LXNpemU9IjIwLjgzMzMiIGZvbnQtZmFtaWx5PSJWZXJkYW5hIiBmaWxsPSIjMjE5NkYzIj5Db250cmFwcm9wb3N0YSAtIENsaWVudGUgcmVhbGl6YSBjYW5jZWxhbWVudG8gZG8gcGVkaWRvIGRlIHBvcnRhYmlsaWRhZGU8L3RleHQ+PHJlY3QgeT0iNDg4LjYwNjgiIHg9IjEzNS4wNjY3IiB3aWR0aD0iNjc4LjMxNDIiIHN0eWxlPSJzdHJva2U6IzIxOTZGMztzdHJva2Utd2lkdGg6MS4wNDE3OyIgcnk9IjQuMTY2NyIgcng9IjQuMTY2NyIgaGVpZ2h0PSIyMjAuNjcwNiIgZmlsdGVyPSJ1cmwoI2Z1Y29od2puZnh3cW4pIiBmaWxsPSJ1cmwoI2d1Y29od2puZnh3cW4wKSIvPjxyZWN0IHk9IjExMTQuMjU3OCIgeD0iMTM1LjA2NjciIHdpZHRoPSI2NzguMzE0MiIgc3R5bGU9InN0cm9rZTojMjE5NkYzO3N0cm9rZS13aWR0aDoxLjA0MTc7IiByeT0iNC4xNjY3IiByeD0iNC4xNjY3IiBoZWlnaHQ9IjIyMC42NzA2IiBmaWx0ZXI9InVybCgjZnVjb2h3am5meHdxbikiIGZpbGw9InVybCgjZ3Vjb2h3am5meHdxbjApIi8+PGc+PHRpdGxlPk1vdG9yQ29uZm9ybWlkYWRlPC90aXRsZT48cmVjdCB5PSIxNDQuMDEwNCIgeD0iMjY0LjQ5MTgiIHdpZHRoPSI4LjMzMzMiIGhlaWdodD0iMTIwOC42MjYzIiBmaWxsLW9wYWNpdHk9IjAuMDAwMDAiIGZpbGw9IiMwMDAwMDAiLz48bGluZSB5Mj0iMTM1Mi42MzY3IiB5MT0iMTQ0LjAxMDQiIHgyPSIyNjguNDAwMSIgeDE9IjI2OC40MDAxIiBzdHlsZT0ic3Ryb2tlOiNDQ0NDQ0M7c3Ryb2tlLXdpZHRoOjEuMDQxNztzdHJva2UtZGFzaGFycmF5OjUuMCw1LjA7Ii8+PC9nPjxnPjx0aXRsZT5DcmVkb3JhPC90aXRsZT48cmVjdCB5PSIxNDQuMDEwNCIgeD0iNzEyLjg5MDYiIHdpZHRoPSI4LjMzMzMiIGhlaWdodD0iMTIwOC42MjYzIiBmaWxsLW9wYWNpdHk9IjAuMDAwMDAiIGZpbGw9IiMwMDAwMDAiLz48bGluZSB5Mj0iMTM1Mi42MzY3IiB5MT0iMTQ0LjAxMDQiIHgyPSI3MTYuNTY3IiB4MT0iNzE2LjU2NyIgc3R5bGU9InN0cm9rZTojQ0NDQ0NDO3N0cm9rZS13aWR0aDoxLjA0MTc7c3Ryb2tlLWRhc2hhcnJheTo1LjAsNS4wOyIvPjwvZz48ZyBkYXRhLXBhcnRpY2lwYW50PSJNb3RvckNvbmZvcm1pZGFkZSIgY2xhc3M9InBhcnRpY2lwYW50IHBhcnRpY2lwYW50LWhlYWQiPjxyZWN0IHk9Ijg5Ljg3NjMiIHg9IjE4Ny4xNTAxIiB3aWR0aD0iMTU5Ljg5MTgiIHN0eWxlPSJzdHJva2U6IzIxOTZGMztzdHJva2Utd2lkdGg6MS4wNDE3OyIgcnk9IjQuMTY2NyIgcng9IjQuMTY2NyIgaGVpZ2h0PSI0OS45Njc0IiBmaWx0ZXI9InVybCgjZnVjb2h3am5meHdxbikiIGZpbGw9InVybCgjZ3Vjb2h3am5meHdxbjEpIi8+PHRleHQgeT0iMTE5LjE4NzQiIHg9IjIwNC44NTg0IiB0ZXh0TGVuZ3RoPSIxMjQuNDc1MSIgbGVuZ3RoQWRqdXN0PSJzcGFjaW5nIiBmb250LXNpemU9IjEyLjUiIGZvbnQtZmFtaWx5PSJWZXJkYW5hIiBmaWxsPSIjRkZGRkZGIj5Nb3RvckNvbmZvcm1pZGFkZTwvdGV4dD48L2c+PGcgZGF0YS1wYXJ0aWNpcGFudD0iTW90b3JDb25mb3JtaWRhZGUiIGNsYXNzPSJwYXJ0aWNpcGFudCBwYXJ0aWNpcGFudC10YWlsIj48cmVjdCB5PSIxMzUxLjU5NTEiIHg9IjE4Ny4xNTAxIiB3aWR0aD0iMTU5Ljg5MTgiIHN0eWxlPSJzdHJva2U6IzIxOTZGMztzdHJva2Utd2lkdGg6MS4wNDE3OyIgcnk9IjQuMTY2NyIgcng9IjQuMTY2NyIgaGVpZ2h0PSI0OS45Njc0IiBmaWx0ZXI9InVybCgjZnVjb2h3am5meHdxbikiIGZpbGw9InVybCgjZ3Vjb2h3am5meHdxbjEpIi8+PHRleHQgeT0iMTM4MC45MDYyIiB4PSIyMDQuODU4NCIgdGV4dExlbmd0aD0iMTI0LjQ3NTEiIGxlbmd0aEFkanVzdD0ic3BhY2luZyIgZm9udC1zaXplPSIxMi41IiBmb250LWZhbWlseT0iVmVyZGFuYSIgZmlsbD0iI0ZGRkZGRiI+TW90b3JDb25mb3JtaWRhZGU8L3RleHQ+PC9nPjxnIGRhdGEtcGFydGljaXBhbnQ9IkNyZWRvcmEiIGNsYXNzPSJwYXJ0aWNpcGFudCBwYXJ0aWNpcGFudC1oZWFkIj48cmVjdCB5PSI4OS44NzYzIiB4PSI2NzIuODE3IiB3aWR0aD0iODUuMzU1NiIgc3R5bGU9InN0cm9rZTojMjE5NkYzO3N0cm9rZS13aWR0aDoxLjA0MTc7IiByeT0iNC4xNjY3IiByeD0iNC4xNjY3IiBoZWlnaHQ9IjQ5Ljk2NzQiIGZpbHRlcj0idXJsKCNmdWNvaHdqbmZ4d3FuKSIgZmlsbD0idXJsKCNndWNvaHdqbmZ4d3FuMSkiLz48dGV4dCB5PSIxMTkuMTg3NCIgeD0iNjkwLjUyNTMiIHRleHRMZW5ndGg9IjQ5LjkzOSIgbGVuZ3RoQWRqdXN0PSJzcGFjaW5nIiBmb250LXNpemU9IjEyLjUiIGZvbnQtZmFtaWx5PSJWZXJkYW5hIiBmaWxsPSIjRkZGRkZGIj5DcmVkb3JhPC90ZXh0PjwvZz48ZyBkYXRhLXBhcnRpY2lwYW50PSJDcmVkb3JhIiBjbGFzcz0icGFydGljaXBhbnQgcGFydGljaXBhbnQtdGFpbCI+PHJlY3QgeT0iMTM1MS41OTUxIiB4PSI2NzIuODE3IiB3aWR0aD0iODUuMzU1NiIgc3R5bGU9InN0cm9rZTojMjE5NkYzO3N0cm9rZS13aWR0aDoxLjA0MTc7IiByeT0iNC4xNjY3IiByeD0iNC4xNjY3IiBoZWlnaHQ9IjQ5Ljk2NzQiIGZpbHRlcj0idXJsKCNmdWNvaHdqbmZ4d3FuKSIgZmlsbD0idXJsKCNndWNvaHdqbmZ4d3FuMSkiLz48dGV4dCB5PSIxMzgwLjkwNjIiIHg9IjY5MC41MjUzIiB0ZXh0TGVuZ3RoPSI0OS45MzkiIGxlbmd0aEFkanVzdD0ic3BhY2luZyIgZm9udC1zaXplPSIxMi41IiBmb250LWZhbWlseT0iVmVyZGFuYSIgZmlsbD0iI0ZGRkZGRiI+Q3JlZG9yYTwvdGV4dD48L2c+PGcgZGF0YS1wYXJ0aWNpcGFudC0yPSJDcmVkb3JhIiBkYXRhLXBhcnRpY2lwYW50LTE9Ik1vdG9yQ29uZm9ybWlkYWRlIiBjbGFzcz0ibWVzc2FnZSI+PHBvbHlnb24gc3R5bGU9InN0cm9rZTojMjE5NkYzO3N0cm9rZS13aWR0aDoxLjA0MTc7IiBwb2ludHM9IjcwNC41NTczLDE5MS44OTQ1LDcxNC45NzQsMTk2LjA2MTIsNzA0LjU1NzMsMjAwLjIyNzksNzA4LjcyNCwxOTYuMDYxMiIgZmlsbD0iIzIxOTZGMyIvPjxsaW5lIHkyPSIxOTYuMDYxMiIgeTE9IjE5Ni4wNjEyIiB4Mj0iNzEwLjgwNzMiIHgxPSIyNjguNjU4NCIgc3R5bGU9InN0cm9rZTojMjE5NkYzO3N0cm9rZS13aWR0aDozLjEyNTsiLz48dGV4dCB5PSIxODAuNjEzMiIgeD0iMjg2LjM2NjgiIHRleHRMZW5ndGg9IjE3MC41OTMzIiBsZW5ndGhBZGp1c3Q9InNwYWNpbmciIGZvbnQtc2l6ZT0iMTIuNSIgZm9udC1mYW1pbHk9IlZlcmRhbmEiIGZpbGw9IiMyMjIyMjIiPkdFVCAvY29uc2VudHMve2NvbnNlbnRJZH08L3RleHQ+PC9nPjxnIGRhdGEtcGFydGljaXBhbnQtMj0iTW90b3JDb25mb3JtaWRhZGUiIGRhdGEtcGFydGljaXBhbnQtMT0iQ3JlZG9yYSIgY2xhc3M9Im1lc3NhZ2UiPjxwb2x5Z29uIHN0eWxlPSJzdHJva2U6IzIxOTZGMztzdHJva2Utd2lkdGg6MS4wNDE3OyIgcG9pbnRzPSIyODAuMTE2OCwyNDEuODYyLDI2OS43MDAxLDI0Ni4wMjg2LDI4MC4xMTY4LDI1MC4xOTUzLDI3NS45NTAxLDI0Ni4wMjg2IiBmaWxsPSIjMjE5NkYzIi8+PGxpbmUgeTI9IjI0Ni4wMjg2IiB5MT0iMjQ2LjAyODYiIHgyPSI3MTYuMDE1NiIgeDE9IjI3My44NjY4IiBzdHlsZT0ic3Ryb2tlOiMyMTk2RjM7c3Ryb2tlLXdpZHRoOjMuMTI1OyIvPjx0ZXh0IHk9IjIzMC41ODA2IiB4PSIyOTYuNzgzNCIgdGV4dExlbmd0aD0iMjMuODU4NiIgbGVuZ3RoQWRqdXN0PSJzcGFjaW5nIiBmb250LXNpemU9IjEyLjUiIGZvbnQtZmFtaWx5PSJWZXJkYW5hIiBmaWxsPSIjMjIyMjIyIj4yMDA8L3RleHQ+PC9nPjxnIGRhdGEtcGFydGljaXBhbnQtMj0iTW90b3JDb25mb3JtaWRhZGUiIGRhdGEtcGFydGljaXBhbnQtMT0iTW90b3JDb25mb3JtaWRhZGUiIGNsYXNzPSJtZXNzYWdlIj48bGluZSB5Mj0iMjk1Ljk5NjEiIHkxPSIyOTUuOTk2MSIgeDI9IjMxMi40MDg0IiB4MT0iMjY4LjY1ODQiIHN0eWxlPSJzdHJva2U6IzIxOTZGMztzdHJva2Utd2lkdGg6My4xMjU7Ii8+PGxpbmUgeTI9IjMwOS41Mzc4IiB5MT0iMjk1Ljk5NjEiIHgyPSIzMTIuNDA4NCIgeDE9IjMxMi40MDg0IiBzdHlsZT0ic3Ryb2tlOiMyMTk2RjM7c3Ryb2tlLXdpZHRoOjMuMTI1OyIvPjxsaW5lIHkyPSIzMDkuNTM3OCIgeTE9IjMwOS41Mzc4IiB4Mj0iMzEyLjQwODQiIHgxPSIyNjkuNzAwMSIgc3R5bGU9InN0cm9rZTojMjE5NkYzO3N0cm9rZS13aWR0aDozLjEyNTsiLz48cG9seWdvbiBzdHlsZT0ic3Ryb2tlOiMyMTk2RjM7c3Ryb2tlLXdpZHRoOjEuMDQxNzsiIHBvaW50cz0iMjgwLjExNjgsMzA1LjM3MTEsMjY5LjcwMDEsMzA5LjUzNzgsMjgwLjExNjgsMzEzLjcwNDQsMjc1Ljk1MDEsMzA5LjUzNzgiIGZpbGw9IiMyMTk2RjMiLz48dGV4dCB5PSIyODAuNTQ4MSIgeD0iMjg2LjM2NjgiIHRleHRMZW5ndGg9IjQxMi45ODIyIiBsZW5ndGhBZGp1c3Q9InNwYWNpbmciIGZvbnQtc2l6ZT0iMTIuNSIgZm9udC1mYW1pbHk9IlZlcmRhbmEiIGZpbGw9IiMyMjIyMjIiPlZhbGlkYSBzZSBvIG9iamV0byBwZXJtaXNzaW9ucyBwb3NzdWkgYSBwZXJtaXNzaW9ucyBMT0FOU19SRUFEPC90ZXh0PjwvZz48ZyBkYXRhLXBhcnRpY2lwYW50LTI9IkNyZWRvcmEiIGRhdGEtcGFydGljaXBhbnQtMT0iTW90b3JDb25mb3JtaWRhZGUiIGNsYXNzPSJtZXNzYWdlIj48cG9seWdvbiBzdHlsZT0ic3Ryb2tlOiMyMTk2RjM7c3Ryb2tlLXdpZHRoOjEuMDQxNzsiIHBvaW50cz0iNzA0LjU1NzMsMzU1LjMzODUsNzE0Ljk3NCwzNTkuNTA1Miw3MDQuNTU3MywzNjMuNjcxOSw3MDguNzI0LDM1OS41MDUyIiBmaWxsPSIjMjE5NkYzIi8+PGxpbmUgeTI9IjM1OS41MDUyIiB5MT0iMzU5LjUwNTIiIHgyPSI3MTAuODA3MyIgeDE9IjI2OC42NTg0IiBzdHlsZT0ic3Ryb2tlOiMyMTk2RjM7c3Ryb2tlLXdpZHRoOjMuMTI1OyIvPjx0ZXh0IHk9IjM0NC4wNTcyIiB4PSIyODYuMzY2OCIgdGV4dExlbmd0aD0iMTgyLjg2NzQiIGxlbmd0aEFkanVzdD0ic3BhY2luZyIgZm9udC1zaXplPSIxMi41IiBmb250LWZhbWlseT0iVmVyZGFuYSIgZmlsbD0iIzIyMjIyMiI+R0VUIExvYW5zIENvbnRyYWN0cyBBUEkgLSBWMjwvdGV4dD48L2c+PGcgZGF0YS1wYXJ0aWNpcGFudC0yPSJNb3RvckNvbmZvcm1pZGFkZSIgZGF0YS1wYXJ0aWNpcGFudC0xPSJDcmVkb3JhIiBjbGFzcz0ibWVzc2FnZSI+PHBvbHlnb24gc3R5bGU9InN0cm9rZTojMjE5NkYzO3N0cm9rZS13aWR0aDoxLjA0MTc7IiBwb2ludHM9IjI4MC4xMTY4LDQwNS4zMDYsMjY5LjcwMDEsNDA5LjQ3MjcsMjgwLjExNjgsNDEzLjYzOTMsMjc1Ljk1MDEsNDA5LjQ3MjciIGZpbGw9IiMyMTk2RjMiLz48bGluZSB5Mj0iNDA5LjQ3MjciIHkxPSI0MDkuNDcyNyIgeDI9IjcxNi4wMTU2IiB4MT0iMjczLjg2NjgiIHN0eWxlPSJzdHJva2U6IzIxOTZGMztzdHJva2Utd2lkdGg6My4xMjU7Ii8+PHRleHQgeT0iMzk0LjAyNDciIHg9IjI5Ni43ODM0IiB0ZXh0TGVuZ3RoPSIyMy44NTg2IiBsZW5ndGhBZGp1c3Q9InNwYWNpbmciIGZvbnQtc2l6ZT0iMTIuNSIgZm9udC1mYW1pbHk9IlZlcmRhbmEiIGZpbGw9IiMyMjIyMjIiPjIwMDwvdGV4dD48L2c+PGcgZGF0YS1wYXJ0aWNpcGFudC0yPSJNb3RvckNvbmZvcm1pZGFkZSIgZGF0YS1wYXJ0aWNpcGFudC0xPSJNb3RvckNvbmZvcm1pZGFkZSIgY2xhc3M9Im1lc3NhZ2UiPjxsaW5lIHkyPSI0NTkuNDQwMSIgeTE9IjQ1OS40NDAxIiB4Mj0iMzEyLjQwODQiIHgxPSIyNjguNjU4NCIgc3R5bGU9InN0cm9rZTojMjE5NkYzO3N0cm9rZS13aWR0aDozLjEyNTsiLz48bGluZSB5Mj0iNDcyLjk4MTgiIHkxPSI0NTkuNDQwMSIgeDI9IjMxMi40MDg0IiB4MT0iMzEyLjQwODQiIHN0eWxlPSJzdHJva2U6IzIxOTZGMztzdHJva2Utd2lkdGg6My4xMjU7Ii8+PGxpbmUgeTI9IjQ3Mi45ODE4IiB5MT0iNDcyLjk4MTgiIHgyPSIzMTIuNDA4NCIgeDE9IjI2OS43MDAxIiBzdHlsZT0ic3Ryb2tlOiMyMTk2RjM7c3Ryb2tlLXdpZHRoOjMuMTI1OyIvPjxwb2x5Z29uIHN0eWxlPSJzdHJva2U6IzIxOTZGMztzdHJva2Utd2lkdGg6MS4wNDE3OyIgcG9pbnRzPSIyODAuMTE2OCw0NjguODE1MSwyNjkuNzAwMSw0NzIuOTgxOCwyODAuMTE2OCw0NzcuMTQ4NCwyNzUuOTUwMSw0NzIuOTgxOCIgZmlsbD0iIzIxOTZGMyIvPjx0ZXh0IHk9IjQ0My45OTIxIiB4PSIyODYuMzY2OCIgdGV4dExlbmd0aD0iMjg2LjMyMiIgbGVuZ3RoQWRqdXN0PSJzcGFjaW5nIiBmb250LXNpemU9IjEyLjUiIGZvbnQtZmFtaWx5PSJWZXJkYW5hIiBmaWxsPSIjMjIyMjIyIj5WYWxpZGEgcmV0b3JubyBkZSBhY29yZG8gY29tIGEgZXNwZWNpZmljYcOnw6NvPC90ZXh0PjwvZz48cGF0aCBzdHlsZT0ic3Ryb2tlOiM2NjY2NjY7c3Ryb2tlLXdpZHRoOjEuMDQxNzsiIGZpbGw9IiNGRkZGRkYiIGQ9Ik0xMzkuMjMzNCw0ODguNjA2OCBMMjMzLjE4MjgsNDg4LjYwNjggTDIzMy4xODI4LDUxNS42NTc2IEwyMjIuNzY2MSw1MjYuMDc0MiBMMTM1LjA2NjcsNTI2LjA3NDIgTDEzNS4wNjY3LDQ5Mi43NzM0IEE0LjE2NjcsNC4xNjY3IDAgMCAxIDEzOS4yMzM0LDQ4OC42MDY4Ii8+PHJlY3QgeT0iNDg4LjYwNjgiIHg9IjEzNS4wNjY3IiB3aWR0aD0iNjc4LjMxNDIiIHN0eWxlPSJzdHJva2U6IzIxOTZGMztzdHJva2Utd2lkdGg6MS4wNDE3OyIgcnk9IjQuMTY2NyIgcng9IjQuMTY2NyIgaGVpZ2h0PSIyMjAuNjcwNiIgZmlsbD0ibm9uZSIvPjx0ZXh0IHk9IjUxMS42Njc5IiB4PSIxNjEuMTA4NCIgdGV4dExlbmd0aD0iMzAuNDA3NyIgbGVuZ3RoQWRqdXN0PSJzcGFjaW5nIiBmb250LXdlaWdodD0iYm9sZCIgZm9udC1zaXplPSIxMi41IiBmb250LWZhbWlseT0iVmVyZGFuYSIgZmlsbD0iIzlDMjdCMCI+bG9vcDwvdGV4dD48dGV4dCB5PSI1MTIuNzA5NiIgeD0iMjU5LjIyNDQiIHRleHRMZW5ndGg9IjMxOS44MDU5IiBsZW5ndGhBZGp1c3Q9InNwYWNpbmciIGZvbnQtd2VpZ2h0PSJib2xkIiBmb250LXNpemU9IjEyLjUiIGZvbnQtZmFtaWx5PSJWZXJkYW5hIiBmaWxsPSIjMjIyMjIyIj5bUGFyYSBjYWRhIGNvbnRyYXRvIGRvIHRpcG8gQ1BDIGlkZW50aWZpY2Fkb108L3RleHQ+PGcgZGF0YS1wYXJ0aWNpcGFudC0yPSJDcmVkb3JhIiBkYXRhLXBhcnRpY2lwYW50LTE9Ik1vdG9yQ29uZm9ybWlkYWRlIiBjbGFzcz0ibWVzc2FnZSI+PHBvbHlnb24gc3R5bGU9InN0cm9rZTojMjE5NkYzO3N0cm9rZS13aWR0aDoxLjA0MTc7IiBwb2ludHM9IjcwNC41NTczLDU4My4zMDA4LDcxNC45NzQsNTg3LjQ2NzQsNzA0LjU1NzMsNTkxLjYzNDEsNzA4LjcyNCw1ODcuNDY3NCIgZmlsbD0iIzIxOTZGMyIvPjxsaW5lIHkyPSI1ODcuNDY3NCIgeTE9IjU4Ny40Njc0IiB4Mj0iNzEwLjgwNzMiIHgxPSIyNjguNjU4NCIgc3R5bGU9InN0cm9rZTojMjE5NkYzO3N0cm9rZS13aWR0aDozLjEyNTsiLz48dGV4dCB5PSI1NzIuMDE5NCIgeD0iMjg2LjM2NjgiIHRleHRMZW5ndGg9IjE4OS42NzkiIGxlbmd0aEFkanVzdD0ic3BhY2luZyIgZm9udC1zaXplPSIxMi41IiBmb250LWZhbWlseT0iVmVyZGFuYSIgZmlsbD0iIzIyMjIyMiI+R0VUIC9jb25jdXJyZW50LW1hbmFnZW1lbnQ8L3RleHQ+PC9nPjxnIGRhdGEtcGFydGljaXBhbnQtMj0iTW90b3JDb25mb3JtaWRhZGUiIGRhdGEtcGFydGljaXBhbnQtMT0iQ3JlZG9yYSIgY2xhc3M9Im1lc3NhZ2UiPjxwb2x5Z29uIHN0eWxlPSJzdHJva2U6IzIxOTZGMztzdHJva2Utd2lkdGg6MS4wNDE3OyIgcG9pbnRzPSIyODAuMTE2OCw2MzMuMjY4MiwyNjkuNzAwMSw2MzcuNDM0OSwyODAuMTE2OCw2NDEuNjAxNiwyNzUuOTUwMSw2MzcuNDM0OSIgZmlsbD0iIzIxOTZGMyIvPjxsaW5lIHkyPSI2MzcuNDM0OSIgeTE9IjYzNy40MzQ5IiB4Mj0iNzE2LjAxNTYiIHgxPSIyNzMuODY2OCIgc3R5bGU9InN0cm9rZTojMjE5NkYzO3N0cm9rZS13aWR0aDozLjEyNTsiLz48dGV4dCB5PSI2MjEuOTg2OSIgeD0iMjk2Ljc4MzQiIHRleHRMZW5ndGg9IjIzLjg1ODYiIGxlbmd0aEFkanVzdD0ic3BhY2luZyIgZm9udC1zaXplPSIxMi41IiBmb250LWZhbWlseT0iVmVyZGFuYSIgZmlsbD0iIzIyMjIyMiI+MjAwPC90ZXh0PjwvZz48ZyBkYXRhLXBhcnRpY2lwYW50LTI9Ik1vdG9yQ29uZm9ybWlkYWRlIiBkYXRhLXBhcnRpY2lwYW50LTE9Ik1vdG9yQ29uZm9ybWlkYWRlIiBjbGFzcz0ibWVzc2FnZSI+PGxpbmUgeTI9IjY4Ny40MDIzIiB5MT0iNjg3LjQwMjMiIHgyPSIzMTIuNDA4NCIgeDE9IjI2OC42NTg0IiBzdHlsZT0ic3Ryb2tlOiMyMTk2RjM7c3Ryb2tlLXdpZHRoOjMuMTI1OyIvPjxsaW5lIHkyPSI3MDAuOTQ0IiB5MT0iNjg3LjQwMjMiIHgyPSIzMTIuNDA4NCIgeDE9IjMxMi40MDg0IiBzdHlsZT0ic3Ryb2tlOiMyMTk2RjM7c3Ryb2tlLXdpZHRoOjMuMTI1OyIvPjxsaW5lIHkyPSI3MDAuOTQ0IiB5MT0iNzAwLjk0NCIgeDI9IjMxMi40MDg0IiB4MT0iMjY5LjcwMDEiIHN0eWxlPSJzdHJva2U6IzIxOTZGMztzdHJva2Utd2lkdGg6My4xMjU7Ii8+PHBvbHlnb24gc3R5bGU9InN0cm9rZTojMjE5NkYzO3N0cm9rZS13aWR0aDoxLjA0MTc7IiBwb2ludHM9IjI4MC4xMTY4LDY5Ni43NzczLDI2OS43MDAxLDcwMC45NDQsMjgwLjExNjgsNzA1LjExMDcsMjc1Ljk1MDEsNzAwLjk0NCIgZmlsbD0iIzIxOTZGMyIvPjx0ZXh0IHk9IjY3MS45NTQzIiB4PSIyODYuMzY2OCIgdGV4dExlbmd0aD0iMjk0LjgzMDMiIGxlbmd0aEFkanVzdD0ic3BhY2luZyIgZm9udC1zaXplPSIxMi41IiBmb250LWZhbWlseT0iVmVyZGFuYSIgZmlsbD0iIzIyMjIyMiI+VmVyaWZpY2EgcmV0b3JubyBkZSBhY29yZG8gY29tIGEgZXNwZWNpZmljYcOnw6NvPC90ZXh0PjwvZz48ZyBkYXRhLXBhcnRpY2lwYW50LTI9Ik1vdG9yQ29uZm9ybWlkYWRlIiBkYXRhLXBhcnRpY2lwYW50LTE9Ik1vdG9yQ29uZm9ybWlkYWRlIiBjbGFzcz0ibWVzc2FnZSI+PGxpbmUgeTI9Ijc1OC4yMDMxIiB5MT0iNzU4LjIwMzEiIHgyPSIzMTIuNDA4NCIgeDE9IjI2OC42NTg0IiBzdHlsZT0ic3Ryb2tlOiMyMTk2RjM7c3Ryb2tlLXdpZHRoOjMuMTI1OyIvPjxsaW5lIHkyPSI3NzEuNzQ0OCIgeTE9Ijc1OC4yMDMxIiB4Mj0iMzEyLjQwODQiIHgxPSIzMTIuNDA4NCIgc3R5bGU9InN0cm9rZTojMjE5NkYzO3N0cm9rZS13aWR0aDozLjEyNTsiLz48bGluZSB5Mj0iNzcxLjc0NDgiIHkxPSI3NzEuNzQ0OCIgeDI9IjMxMi40MDg0IiB4MT0iMjY5LjcwMDEiIHN0eWxlPSJzdHJva2U6IzIxOTZGMztzdHJva2Utd2lkdGg6My4xMjU7Ii8+PHBvbHlnb24gc3R5bGU9InN0cm9rZTojMjE5NkYzO3N0cm9rZS13aWR0aDoxLjA0MTc7IiBwb2ludHM9IjI4MC4xMTY4LDc2Ny41NzgxLDI2OS43MDAxLDc3MS43NDQ4LDI4MC4xMTY4LDc3NS45MTE1LDI3NS45NTAxLDc3MS43NDQ4IiBmaWxsPSIjMjE5NkYzIi8+PHRleHQgeT0iNzQyLjc1NTEiIHg9IjI4Ni4zNjY4IiB0ZXh0TGVuZ3RoPSIzNTMuMzc1MiIgbGVuZ3RoQWRqdXN0PSJzcGFjaW5nIiBmb250LXNpemU9IjEyLjUiIGZvbnQtZmFtaWx5PSJWZXJkYW5hIiBmaWxsPSIjMjIyMjIyIj5TZWxlY2lvbmEgdW0gY29udHJhdG8gY29tIHNpdHVhw6fDo28gaWd1YWwgIkRJU1BPTklWRUwiPC90ZXh0PjwvZz48ZyBkYXRhLXBhcnRpY2lwYW50LTI9IkNyZWRvcmEiIGRhdGEtcGFydGljaXBhbnQtMT0iTW90b3JDb25mb3JtaWRhZGUiIGNsYXNzPSJtZXNzYWdlIj48cG9seWdvbiBzdHlsZT0ic3Ryb2tlOiMyMTk2RjM7c3Ryb2tlLXdpZHRoOjEuMDQxNzsiIHBvaW50cz0iNzA0LjU1NzMsODE3LjU0NTYsNzE0Ljk3NCw4MjEuNzEyMiw3MDQuNTU3Myw4MjUuODc4OSw3MDguNzI0LDgyMS43MTIyIiBmaWxsPSIjMjE5NkYzIi8+PGxpbmUgeTI9IjgyMS43MTIyIiB5MT0iODIxLjcxMjIiIHgyPSI3MTAuODA3MyIgeDE9IjI2OC42NTg0IiBzdHlsZT0ic3Ryb2tlOiMyMTk2RjM7c3Ryb2tlLXdpZHRoOjMuMTI1OyIvPjx0ZXh0IHk9IjgwNi4yNjQyIiB4PSIyODYuMzY2OCIgdGV4dExlbmd0aD0iMzQ5LjAzNTYiIGxlbmd0aEFkanVzdD0ic3BhY2luZyIgZm9udC1zaXplPSIxMi41IiBmb250LWZhbWlseT0iVmVyZGFuYSIgZmlsbD0iIzIyMjIyMiI+UE9TVCAvcG9ydGFiaWxpdGllcyAoY29tIGEgcHJvcG9zdGEgb2ZlcnRhZGEgYW8gY2xpZW50ZSk8L3RleHQ+PC9nPjxnIGRhdGEtcGFydGljaXBhbnQtMj0iTW90b3JDb25mb3JtaWRhZGUiIGRhdGEtcGFydGljaXBhbnQtMT0iQ3JlZG9yYSIgY2xhc3M9Im1lc3NhZ2UiPjxwb2x5Z29uIHN0eWxlPSJzdHJva2U6IzIxOTZGMztzdHJva2Utd2lkdGg6MS4wNDE3OyIgcG9pbnRzPSIyODAuMTE2OCw4NjcuNTEzLDI2OS43MDAxLDg3MS42Nzk3LDI4MC4xMTY4LDg3NS44NDY0LDI3NS45NTAxLDg3MS42Nzk3IiBmaWxsPSIjMjE5NkYzIi8+PGxpbmUgeTI9Ijg3MS42Nzk3IiB5MT0iODcxLjY3OTciIHgyPSI3MTYuMDE1NiIgeDE9IjI3My44NjY4IiBzdHlsZT0ic3Ryb2tlOiMyMTk2RjM7c3Ryb2tlLXdpZHRoOjMuMTI1OyIvPjx0ZXh0IHk9Ijg1Ni4yMzE3IiB4PSIyOTYuNzgzNCIgdGV4dExlbmd0aD0iMjMuODU4NiIgbGVuZ3RoQWRqdXN0PSJzcGFjaW5nIiBmb250LXNpemU9IjEyLjUiIGZvbnQtZmFtaWx5PSJWZXJkYW5hIiBmaWxsPSIjMjIyMjIyIj4yMDI8L3RleHQ+PC9nPjxnIGRhdGEtcGFydGljaXBhbnQtMj0iTW90b3JDb25mb3JtaWRhZGUiIGRhdGEtcGFydGljaXBhbnQtMT0iTW90b3JDb25mb3JtaWRhZGUiIGNsYXNzPSJtZXNzYWdlIj48bGluZSB5Mj0iOTIxLjY0NzEiIHkxPSI5MjEuNjQ3MSIgeDI9IjMxMi40MDg0IiB4MT0iMjY4LjY1ODQiIHN0eWxlPSJzdHJva2U6IzIxOTZGMztzdHJva2Utd2lkdGg6My4xMjU7Ii8+PGxpbmUgeTI9IjkzNS4xODg4IiB5MT0iOTIxLjY0NzEiIHgyPSIzMTIuNDA4NCIgeDE9IjMxMi40MDg0IiBzdHlsZT0ic3Ryb2tlOiMyMTk2RjM7c3Ryb2tlLXdpZHRoOjMuMTI1OyIvPjxsaW5lIHkyPSI5MzUuMTg4OCIgeTE9IjkzNS4xODg4IiB4Mj0iMzEyLjQwODQiIHgxPSIyNjkuNzAwMSIgc3R5bGU9InN0cm9rZTojMjE5NkYzO3N0cm9rZS13aWR0aDozLjEyNTsiLz48cG9seWdvbiBzdHlsZT0ic3Ryb2tlOiMyMTk2RjM7c3Ryb2tlLXdpZHRoOjEuMDQxNzsiIHBvaW50cz0iMjgwLjExNjgsOTMxLjAyMjEsMjY5LjcwMDEsOTM1LjE4ODgsMjgwLjExNjgsOTM5LjM1NTUsMjc1Ljk1MDEsOTM1LjE4ODgiIGZpbGw9IiMyMTk2RjMiLz48dGV4dCB5PSI5MDYuMTk5MSIgeD0iMjg2LjM2NjgiIHRleHRMZW5ndGg9IjI4Ni4zMjIiIGxlbmd0aEFkanVzdD0ic3BhY2luZyIgZm9udC1zaXplPSIxMi41IiBmb250LWZhbWlseT0iVmVyZGFuYSIgZmlsbD0iIzIyMjIyMiI+VmFsaWRhIHJldG9ybm8gZGUgYWNvcmRvIGNvbSBhIGVzcGVjaWZpY2HDp8OjbzwvdGV4dD48L2c+PGcgZGF0YS1wYXJ0aWNpcGFudC0yPSJDcmVkb3JhIiBkYXRhLXBhcnRpY2lwYW50LTE9Ik1vdG9yQ29uZm9ybWlkYWRlIiBjbGFzcz0ibWVzc2FnZSI+PHBvbHlnb24gc3R5bGU9InN0cm9rZTojMjE5NkYzO3N0cm9rZS13aWR0aDoxLjA0MTc7IiBwb2ludHM9IjcwNC41NTczLDk4MC45ODk2LDcxNC45NzQsOTg1LjE1NjMsNzA0LjU1NzMsOTg5LjMyMjksNzA4LjcyNCw5ODUuMTU2MyIgZmlsbD0iIzIxOTZGMyIvPjxsaW5lIHkyPSI5ODUuMTU2MyIgeTE9Ijk4NS4xNTYzIiB4Mj0iNzEwLjgwNzMiIHgxPSIyNjguNjU4NCIgc3R5bGU9InN0cm9rZTojMjE5NkYzO3N0cm9rZS13aWR0aDozLjEyNTsiLz48dGV4dCB5PSI5NjkuNzA4MyIgeD0iMjg2LjM2NjgiIHRleHRMZW5ndGg9IjI2NC42MjQiIGxlbmd0aEFkanVzdD0ic3BhY2luZyIgZm9udC1zaXplPSIxMi41IiBmb250LWZhbWlseT0iVmVyZGFuYSIgZmlsbD0iIzIyMjIyMiI+UEFUQ0ggL3BvcnRhYmlsaXRpZXMve3BvcnRhYmlsaXR5SWR9L2NhbmNlbDwvdGV4dD48L2c+PGcgZGF0YS1wYXJ0aWNpcGFudC0yPSJNb3RvckNvbmZvcm1pZGFkZSIgZGF0YS1wYXJ0aWNpcGFudC0xPSJDcmVkb3JhIiBjbGFzcz0ibWVzc2FnZSI+PHBvbHlnb24gc3R5bGU9InN0cm9rZTojMjE5NkYzO3N0cm9rZS13aWR0aDoxLjA0MTc7IiBwb2ludHM9IjI4MC4xMTY4LDEwMzAuOTU3LDI2OS43MDAxLDEwMzUuMTIzNywyODAuMTE2OCwxMDM5LjI5MDQsMjc1Ljk1MDEsMTAzNS4xMjM3IiBmaWxsPSIjMjE5NkYzIi8+PGxpbmUgeTI9IjEwMzUuMTIzNyIgeTE9IjEwMzUuMTIzNyIgeDI9IjcxNi4wMTU2IiB4MT0iMjczLjg2NjgiIHN0eWxlPSJzdHJva2U6IzIxOTZGMztzdHJva2Utd2lkdGg6My4xMjU7Ii8+PHRleHQgeT0iMTAxOS42NzU3IiB4PSIyOTYuNzgzNCIgdGV4dExlbmd0aD0iMjMuODU4NiIgbGVuZ3RoQWRqdXN0PSJzcGFjaW5nIiBmb250LXNpemU9IjEyLjUiIGZvbnQtZmFtaWx5PSJWZXJkYW5hIiBmaWxsPSIjMjIyMjIyIj4yMDA8L3RleHQ+PC9nPjxnIGRhdGEtcGFydGljaXBhbnQtMj0iTW90b3JDb25mb3JtaWRhZGUiIGRhdGEtcGFydGljaXBhbnQtMT0iTW90b3JDb25mb3JtaWRhZGUiIGNsYXNzPSJtZXNzYWdlIj48bGluZSB5Mj0iMTA4NS4wOTExIiB5MT0iMTA4NS4wOTExIiB4Mj0iMzEyLjQwODQiIHgxPSIyNjguNjU4NCIgc3R5bGU9InN0cm9rZTojMjE5NkYzO3N0cm9rZS13aWR0aDozLjEyNTsiLz48bGluZSB5Mj0iMTA5OC42MzI4IiB5MT0iMTA4NS4wOTExIiB4Mj0iMzEyLjQwODQiIHgxPSIzMTIuNDA4NCIgc3R5bGU9InN0cm9rZTojMjE5NkYzO3N0cm9rZS13aWR0aDozLjEyNTsiLz48bGluZSB5Mj0iMTA5OC42MzI4IiB5MT0iMTA5OC42MzI4IiB4Mj0iMzEyLjQwODQiIHgxPSIyNjkuNzAwMSIgc3R5bGU9InN0cm9rZTojMjE5NkYzO3N0cm9rZS13aWR0aDozLjEyNTsiLz48cG9seWdvbiBzdHlsZT0ic3Ryb2tlOiMyMTk2RjM7c3Ryb2tlLXdpZHRoOjEuMDQxNzsiIHBvaW50cz0iMjgwLjExNjgsMTA5NC40NjYxLDI2OS43MDAxLDEwOTguNjMyOCwyODAuMTE2OCwxMTAyLjc5OTUsMjc1Ljk1MDEsMTA5OC42MzI4IiBmaWxsPSIjMjE5NkYzIi8+PHRleHQgeT0iMTA2OS42NDMxIiB4PSIyODYuMzY2OCIgdGV4dExlbmd0aD0iMjg2LjMyMiIgbGVuZ3RoQWRqdXN0PSJzcGFjaW5nIiBmb250LXNpemU9IjEyLjUiIGZvbnQtZmFtaWx5PSJWZXJkYW5hIiBmaWxsPSIjMjIyMjIyIj5WYWxpZGEgcmV0b3JubyBkZSBhY29yZG8gY29tIGEgZXNwZWNpZmljYcOnw6NvPC90ZXh0PjwvZz48cGF0aCBzdHlsZT0ic3Ryb2tlOiM2NjY2NjY7c3Ryb2tlLXdpZHRoOjEuMDQxNzsiIGZpbGw9IiNGRkZGRkYiIGQ9Ik0xMzkuMjMzNCwxMTE0LjI1NzggTDIzMy4xODI4LDExMTQuMjU3OCBMMjMzLjE4MjgsMTE0MS4zMDg2IEwyMjIuNzY2MSwxMTUxLjcyNTMgTDEzNS4wNjY3LDExNTEuNzI1MyBMMTM1LjA2NjcsMTExOC40MjQ1IEE0LjE2NjcsNC4xNjY3IDAgMCAxIDEzOS4yMzM0LDExMTQuMjU3OCIvPjxyZWN0IHk9IjExMTQuMjU3OCIgeD0iMTM1LjA2NjciIHdpZHRoPSI2NzguMzE0MiIgc3R5bGU9InN0cm9rZTojMjE5NkYzO3N0cm9rZS13aWR0aDoxLjA0MTc7IiByeT0iNC4xNjY3IiByeD0iNC4xNjY3IiBoZWlnaHQ9IjIyMC42NzA2IiBmaWxsPSJub25lIi8+PHRleHQgeT0iMTEzNy4zMTg5IiB4PSIxNjEuMTA4NCIgdGV4dExlbmd0aD0iMzAuNDA3NyIgbGVuZ3RoQWRqdXN0PSJzcGFjaW5nIiBmb250LXdlaWdodD0iYm9sZCIgZm9udC1zaXplPSIxMi41IiBmb250LWZhbWlseT0iVmVyZGFuYSIgZmlsbD0iIzlDMjdCMCI+bG9vcDwvdGV4dD48dGV4dCB5PSIxMTM4LjM2MDYiIHg9IjI1OS4yMjQ0IiB0ZXh0TGVuZ3RoPSI0NDEuNTE2MSIgbGVuZ3RoQWRqdXN0PSJzcGFjaW5nIiBmb250LXdlaWdodD0iYm9sZCIgZm9udC1zaXplPSIxMi41IiBmb250LWZhbWlseT0iVmVyZGFuYSIgZmlsbD0iIzIyMjIyMiI+W0NoYW1hZGFzIGRlIHBvbGxpbmcgY29uZm9ybWUgcmVjb21lbmRhw6fDo28gZG8gQ29uZmx1ZW5jZV08L3RleHQ+PGcgZGF0YS1wYXJ0aWNpcGFudC0yPSJDcmVkb3JhIiBkYXRhLXBhcnRpY2lwYW50LTE9Ik1vdG9yQ29uZm9ybWlkYWRlIiBjbGFzcz0ibWVzc2FnZSI+PHBvbHlnb24gc3R5bGU9InN0cm9rZTojMjE5NkYzO3N0cm9rZS13aWR0aDoxLjA0MTc7IiBwb2ludHM9IjcwNC41NTczLDEyMDguOTUxOCw3MTQuOTc0LDEyMTMuMTE4NSw3MDQuNTU3MywxMjE3LjI4NTIsNzA4LjcyNCwxMjEzLjExODUiIGZpbGw9IiMyMTk2RjMiLz48bGluZSB5Mj0iMTIxMy4xMTg1IiB5MT0iMTIxMy4xMTg1IiB4Mj0iNzEwLjgwNzMiIHgxPSIyNjguNjU4NCIgc3R5bGU9InN0cm9rZTojMjE5NkYzO3N0cm9rZS13aWR0aDozLjEyNTsiLz48dGV4dCB5PSIxMTk3LjY3MDUiIHg9IjI4Ni4zNjY4IiB0ZXh0TGVuZ3RoPSIyMDMuMjg5OCIgbGVuZ3RoQWRqdXN0PSJzcGFjaW5nIiBmb250LXNpemU9IjEyLjUiIGZvbnQtZmFtaWx5PSJWZXJkYW5hIiBmaWxsPSIjMjIyMjIyIj5HRVQgL3BvcnRhYmlsaXRpZXMve3BvcnRhYmlsaXR5SWR9PC90ZXh0PjwvZz48ZyBkYXRhLXBhcnRpY2lwYW50LTI9Ik1vdG9yQ29uZm9ybWlkYWRlIiBkYXRhLXBhcnRpY2lwYW50LTE9IkNyZWRvcmEiIGNsYXNzPSJtZXNzYWdlIj48cG9seWdvbiBzdHlsZT0ic3Ryb2tlOiMyMTk2RjM7c3Ryb2tlLXdpZHRoOjEuMDQxNzsiIHBvaW50cz0iMjgwLjExNjgsMTI1OC45MTkzLDI2OS43MDAxLDEyNjMuMDg1OSwyODAuMTE2OCwxMjY3LjI1MjYsMjc1Ljk1MDEsMTI2My4wODU5IiBmaWxsPSIjMjE5NkYzIi8+PGxpbmUgeTI9IjEyNjMuMDg1OSIgeTE9IjEyNjMuMDg1OSIgeDI9IjcxNi4wMTU2IiB4MT0iMjczLjg2NjgiIHN0eWxlPSJzdHJva2U6IzIxOTZGMztzdHJva2Utd2lkdGg6My4xMjU7Ii8+PHRleHQgeT0iMTI0Ny42Mzc5IiB4PSIyOTYuNzgzNCIgdGV4dExlbmd0aD0iMjMuODU4NiIgbGVuZ3RoQWRqdXN0PSJzcGFjaW5nIiBmb250LXNpemU9IjEyLjUiIGZvbnQtZmFtaWx5PSJWZXJkYW5hIiBmaWxsPSIjMjIyMjIyIj4yMDA8L3RleHQ+PC9nPjxnIGRhdGEtcGFydGljaXBhbnQtMj0iTW90b3JDb25mb3JtaWRhZGUiIGRhdGEtcGFydGljaXBhbnQtMT0iTW90b3JDb25mb3JtaWRhZGUiIGNsYXNzPSJtZXNzYWdlIj48bGluZSB5Mj0iMTMxMy4wNTM0IiB5MT0iMTMxMy4wNTM0IiB4Mj0iMzEyLjQwODQiIHgxPSIyNjguNjU4NCIgc3R5bGU9InN0cm9rZTojMjE5NkYzO3N0cm9rZS13aWR0aDozLjEyNTsiLz48bGluZSB5Mj0iMTMyNi41OTUxIiB5MT0iMTMxMy4wNTM0IiB4Mj0iMzEyLjQwODQiIHgxPSIzMTIuNDA4NCIgc3R5bGU9InN0cm9rZTojMjE5NkYzO3N0cm9rZS13aWR0aDozLjEyNTsiLz48bGluZSB5Mj0iMTMyNi41OTUxIiB5MT0iMTMyNi41OTUxIiB4Mj0iMzEyLjQwODQiIHgxPSIyNjkuNzAwMSIgc3R5bGU9InN0cm9rZTojMjE5NkYzO3N0cm9rZS13aWR0aDozLjEyNTsiLz48cG9seWdvbiBzdHlsZT0ic3Ryb2tlOiMyMTk2RjM7c3Ryb2tlLXdpZHRoOjEuMDQxNzsiIHBvaW50cz0iMjgwLjExNjgsMTMyMi40Mjg0LDI2OS43MDAxLDEzMjYuNTk1MSwyODAuMTE2OCwxMzMwLjc2MTcsMjc1Ljk1MDEsMTMyNi41OTUxIiBmaWxsPSIjMjE5NkYzIi8+PHRleHQgeT0iMTI5Ny42MDU0IiB4PSIyODYuMzY2OCIgdGV4dExlbmd0aD0iMjg2LjUxMTIiIGxlbmd0aEFkanVzdD0ic3BhY2luZyIgZm9udC1zaXplPSIxMi41IiBmb250LWZhbWlseT0iVmVyZGFuYSIgZmlsbD0iIzIyMjIyMiI+VmFsaWRhIHNlIG8gY2FtcG8gc3RhdHVzIMOpIGlndWFsICJDQU5DRUxFRCI8L3RleHQ+PC9nPjwvZz48L3N2Zz4=;" vertex="1" parent="1">
                    <mxGeometry width="787" height="1200" as="geometry"/>
                </mxCell>
            </root>
        </mxGraphModel>
    </diagram>
    <diagram id="tKDBnApDiGrMVa_NtqFY" name="Informar retenção ou não da operação">
        <mxGraphModel grid="1" page="1" gridSize="10" guides="1" tooltips="1" connect="1" arrows="1" fold="1" pageScale="1" pageWidth="827" pageHeight="1169" math="0" shadow="0">
            <root>
                <mxCell id="0"/>
                <mxCell id="1" parent="0"/>
                <mxCell id="23p08OXA2TN3t37PCQph-1" value="" style="shape=image;verticalLabelPosition=bottom;labelBackgroundColor=default;verticalAlign=top;aspect=fixed;imageAspect=0;editableCssRules=.*;image=data:image/svg+xml,PHN2ZyB4bWxuczp4bGluaz0iaHR0cDovL3d3dy53My5vcmcvMTk5OS94bGluayIgeG1sbnM9Imh0dHA6Ly93d3cudzMub3JnLzIwMDAvc3ZnIiB6b29tQW5kUGFuPSJtYWduaWZ5IiB3aWR0aD0iMTAwMS43MDMwMTg5MDM2MDUyIiB2aWV3Qm94PSIyMC44MzMyOTk2MzY4NDA4MiAyMC44MzMyOTk2MzY4NDA4MiAxMDAwLjk0Mzk2OTcyNjU2MjUgMTI0MS41MzY0OTkwMjM0Mzc1IiB2ZXJzaW9uPSIxLjEiIHN0eWxlPSJ3aWR0aDoxMDQ0cHg7aGVpZ2h0OjEyNzlweDsiIHByZXNlcnZlQXNwZWN0UmF0aW89Im5vbmUiIGhlaWdodD0iMTI0MS42OTgzMTYxNzMwNzU3IiBkYXRhLWRpYWdyYW0tdHlwZT0iU0VRVUVOQ0UiPjx0aXRsZT5JbmZvcm1hciByZXRlbsOnw6NvIG91IG7Do28gZGEgb3BlcmHDp8OjbyAtIENyZWRvcmEgZW52aWEgbm90aWZpY2HDp8OjbyBkZSByZXRlbsOnw6NvIGRhIDwvdGl0bGU+PGRlZnM+PGxpbmVhckdyYWRpZW50IHkyPSIxMDAlIiB5MT0iMCUiIHgyPSI1MCUiIHgxPSI1MCUiIGlkPSJnMWJjOTluNzB4MXlqdzAiPjxzdG9wIHN0b3AtY29sb3I9IiNGRkZGRkYiIG9mZnNldD0iMCUiLz48c3RvcCBzdG9wLWNvbG9yPSIjRkZGRkZGIiBvZmZzZXQ9IjEwMCUiLz48L2xpbmVhckdyYWRpZW50PjxmaWx0ZXIgeT0iLTEiIHg9Ii0xIiB3aWR0aD0iMzAwJSIgaWQ9ImYxYmM5OW43MHgxeWp3IiBoZWlnaHQ9IjMwMCUiPjxmZUdhdXNzaWFuQmx1ciBzdGREZXZpYXRpb249IjIuMDgzMyIgcmVzdWx0PSJibHVyT3V0Ii8+PGZlQ29sb3JNYXRyaXggdmFsdWVzPSIwIDAgMCAwIDAgMCAwIDAgMCAwIDAgMCAwIDAgMCAwIDAgMCAuNCAwIiB0eXBlPSJtYXRyaXgiIHJlc3VsdD0iYmx1ck91dDIiIGluPSJibHVyT3V0Ii8+PGZlT2Zmc2V0IHJlc3VsdD0iYmx1ck91dDMiIGluPSJibHVyT3V0MiIgZHk9IjQuMTY2NyIgZHg9IjQuMTY2NyIvPjxmZUJsZW5kIG1vZGU9Im5vcm1hbCIgaW4yPSJibHVyT3V0MyIgaW49IlNvdXJjZUdyYXBoaWMiLz48L2ZpbHRlcj48bGluZWFyR3JhZGllbnQgeTI9IjEwMCUiIHkxPSIwJSIgeDI9IjUwJSIgeDE9IjUwJSIgaWQ9ImcxYmM5OW43MHgxeWp3MSI+PHN0b3Agc3RvcC1jb2xvcj0iIzREQUJGNSIgb2Zmc2V0PSIwJSIvPjxzdG9wIHN0b3AtY29sb3I9IiMyMTk2RjMiIG9mZnNldD0iMTAwJSIvPjwvbGluZWFyR3JhZGllbnQ+PC9kZWZzPjxnPjxyZWN0IHk9IjIwLjgzMzMiIHg9IjIwLjgzMzMiIHdpZHRoPSIxMDAwLjk0NCIgc3R5bGU9InN0cm9rZTojQ0NDQ0NDO3N0cm9rZS13aWR0aDoxLjA0MTc7IiByeT0iNC4xNjY3IiByeD0iNC4xNjY3IiBoZWlnaHQ9IjgxLjgzNTkiIGZpbGw9InVybCgjZzFiYzk5bjcweDF5ancwKSIvPjx0ZXh0IHk9IjU2LjgzOCIgeD0iMzcuNSIgdGV4dExlbmd0aD0iOTYwLjM1NzciIGxlbmd0aEFkanVzdD0ic3BhY2luZyIgZm9udC13ZWlnaHQ9ImJvbGQiIGZvbnQtc2l6ZT0iMjAuODMzMyIgZm9udC1mYW1pbHk9IlZlcmRhbmEiIGZpbGw9IiMyMTk2RjMiPkluZm9ybWFyIHJldGVuw6fDo28gb3UgbsOjbyBkYSBvcGVyYcOnw6NvIC0gQ3JlZG9yYSBlbnZpYSBub3RpZmljYcOnw6NvIGRlIHJldGVuw6fDo28gZGE8L3RleHQ+PHRleHQgeT0iODEuMDg5MyIgeD0iNDY3LjEwMSIgdGV4dExlbmd0aD0iMTA4LjQwODYiIGxlbmd0aEFkanVzdD0ic3BhY2luZyIgZm9udC13ZWlnaHQ9ImJvbGQiIGZvbnQtc2l6ZT0iMjAuODMzMyIgZm9udC1mYW1pbHk9IlZlcmRhbmEiIGZpbGw9IiMyMTk2RjMiPm9wZXJhw6fDo288L3RleHQ+PHJlY3QgeT0iNTEyLjg1ODEiIHg9IjkxLjM2MzUiIHdpZHRoPSI4NjAuOTI1MyIgc3R5bGU9InN0cm9rZTojMjE5NkYzO3N0cm9rZS13aWR0aDoxLjA0MTc7IiByeT0iNC4xNjY3IiByeD0iNC4xNjY3IiBoZWlnaHQ9IjIyMC42NzA2IiBmaWx0ZXI9InVybCgjZjFiYzk5bjcweDF5ancpIiBmaWxsPSJ1cmwoI2cxYmM5OW43MHgxeWp3MCkiLz48cmVjdCB5PSI5NzUuMDY1MSIgeD0iOTEuMzYzNSIgd2lkdGg9Ijg2MC45MjUzIiBzdHlsZT0ic3Ryb2tlOiMyMTk2RjM7c3Ryb2tlLXdpZHRoOjEuMDQxNzsiIHJ5PSI0LjE2NjciIHJ4PSI0LjE2NjciIGhlaWdodD0iMjIwLjY3MDYiIGZpbHRlcj0idXJsKCNmMWJjOTluNzB4MXlqdykiIGZpbGw9InVybCgjZzFiYzk5bjcweDF5ancwKSIvPjxnPjx0aXRsZT5Nb3RvckNvbmZvcm1pZGFkZTwvdGl0bGU+PHJlY3QgeT0iMTY4LjI2MTciIHg9IjIyMC43ODg2IiB3aWR0aD0iOC4zMzMzIiBoZWlnaHQ9IjEwNDUuMTgyMyIgZmlsbC1vcGFjaXR5PSIwLjAwMDAwIiBmaWxsPSIjMDAwMDAwIi8+PGxpbmUgeTI9IjEyMTMuNDQ0IiB5MT0iMTY4LjI2MTciIHgyPSIyMjQuNjk2OSIgeDE9IjIyNC42OTY5IiBzdHlsZT0ic3Ryb2tlOiNDQ0NDQ0M7c3Ryb2tlLXdpZHRoOjEuMDQxNztzdHJva2UtZGFzaGFycmF5OjUuMCw1LjA7Ii8+PC9nPjxnPjx0aXRsZT5DcmVkb3JhPC90aXRsZT48cmVjdCB5PSIxNjguMjYxNyIgeD0iODUxLjc5ODUiIHdpZHRoPSI4LjMzMzMiIGhlaWdodD0iMTA0NS4xODIzIiBmaWxsLW9wYWNpdHk9IjAuMDAwMDAiIGZpbGw9IiMwMDAwMDAiLz48bGluZSB5Mj0iMTIxMy40NDQiIHkxPSIxNjguMjYxNyIgeDI9Ijg1NS40NzQ5IiB4MT0iODU1LjQ3NDkiIHN0eWxlPSJzdHJva2U6I0NDQ0NDQztzdHJva2Utd2lkdGg6MS4wNDE3O3N0cm9rZS1kYXNoYXJyYXk6NS4wLDUuMDsiLz48L2c+PGcgZGF0YS1wYXJ0aWNpcGFudD0iTW90b3JDb25mb3JtaWRhZGUiIGNsYXNzPSJwYXJ0aWNpcGFudCBwYXJ0aWNpcGFudC1oZWFkIj48cmVjdCB5PSIxMTQuMTI3NiIgeD0iMTQzLjQ0NjkiIHdpZHRoPSIxNTkuODkxOCIgc3R5bGU9InN0cm9rZTojMjE5NkYzO3N0cm9rZS13aWR0aDoxLjA0MTc7IiByeT0iNC4xNjY3IiByeD0iNC4xNjY3IiBoZWlnaHQ9IjQ5Ljk2NzQiIGZpbHRlcj0idXJsKCNmMWJjOTluNzB4MXlqdykiIGZpbGw9InVybCgjZzFiYzk5bjcweDF5ancxKSIvPjx0ZXh0IHk9IjE0My40Mzg3IiB4PSIxNjEuMTU1MiIgdGV4dExlbmd0aD0iMTI0LjQ3NTEiIGxlbmd0aEFkanVzdD0ic3BhY2luZyIgZm9udC1zaXplPSIxMi41IiBmb250LWZhbWlseT0iVmVyZGFuYSIgZmlsbD0iI0ZGRkZGRiI+TW90b3JDb25mb3JtaWRhZGU8L3RleHQ+PC9nPjxnIGRhdGEtcGFydGljaXBhbnQ9Ik1vdG9yQ29uZm9ybWlkYWRlIiBjbGFzcz0icGFydGljaXBhbnQgcGFydGljaXBhbnQtdGFpbCI+PHJlY3QgeT0iMTIxMi40MDIzIiB4PSIxNDMuNDQ2OSIgd2lkdGg9IjE1OS44OTE4IiBzdHlsZT0ic3Ryb2tlOiMyMTk2RjM7c3Ryb2tlLXdpZHRoOjEuMDQxNzsiIHJ5PSI0LjE2NjciIHJ4PSI0LjE2NjciIGhlaWdodD0iNDkuOTY3NCIgZmlsdGVyPSJ1cmwoI2YxYmM5OW43MHgxeWp3KSIgZmlsbD0idXJsKCNnMWJjOTluNzB4MXlqdzEpIi8+PHRleHQgeT0iMTI0MS43MTM1IiB4PSIxNjEuMTU1MiIgdGV4dExlbmd0aD0iMTI0LjQ3NTEiIGxlbmd0aEFkanVzdD0ic3BhY2luZyIgZm9udC1zaXplPSIxMi41IiBmb250LWZhbWlseT0iVmVyZGFuYSIgZmlsbD0iI0ZGRkZGRiI+TW90b3JDb25mb3JtaWRhZGU8L3RleHQ+PC9nPjxnIGRhdGEtcGFydGljaXBhbnQ9IkNyZWRvcmEiIGNsYXNzPSJwYXJ0aWNpcGFudCBwYXJ0aWNpcGFudC1oZWFkIj48cmVjdCB5PSIxMTQuMTI3NiIgeD0iODExLjcyNDkiIHdpZHRoPSI4NS4zNTU2IiBzdHlsZT0ic3Ryb2tlOiMyMTk2RjM7c3Ryb2tlLXdpZHRoOjEuMDQxNzsiIHJ5PSI0LjE2NjciIHJ4PSI0LjE2NjciIGhlaWdodD0iNDkuOTY3NCIgZmlsdGVyPSJ1cmwoI2YxYmM5OW43MHgxeWp3KSIgZmlsbD0idXJsKCNnMWJjOTluNzB4MXlqdzEpIi8+PHRleHQgeT0iMTQzLjQzODciIHg9IjgyOS40MzMyIiB0ZXh0TGVuZ3RoPSI0OS45MzkiIGxlbmd0aEFkanVzdD0ic3BhY2luZyIgZm9udC1zaXplPSIxMi41IiBmb250LWZhbWlseT0iVmVyZGFuYSIgZmlsbD0iI0ZGRkZGRiI+Q3JlZG9yYTwvdGV4dD48L2c+PGcgZGF0YS1wYXJ0aWNpcGFudD0iQ3JlZG9yYSIgY2xhc3M9InBhcnRpY2lwYW50IHBhcnRpY2lwYW50LXRhaWwiPjxyZWN0IHk9IjEyMTIuNDAyMyIgeD0iODExLjcyNDkiIHdpZHRoPSI4NS4zNTU2IiBzdHlsZT0ic3Ryb2tlOiMyMTk2RjM7c3Ryb2tlLXdpZHRoOjEuMDQxNzsiIHJ5PSI0LjE2NjciIHJ4PSI0LjE2NjciIGhlaWdodD0iNDkuOTY3NCIgZmlsdGVyPSJ1cmwoI2YxYmM5OW43MHgxeWp3KSIgZmlsbD0idXJsKCNnMWJjOTluNzB4MXlqdzEpIi8+PHRleHQgeT0iMTI0MS43MTM1IiB4PSI4MjkuNDMzMiIgdGV4dExlbmd0aD0iNDkuOTM5IiBsZW5ndGhBZGp1c3Q9InNwYWNpbmciIGZvbnQtc2l6ZT0iMTIuNSIgZm9udC1mYW1pbHk9IlZlcmRhbmEiIGZpbGw9IiNGRkZGRkYiPkNyZWRvcmE8L3RleHQ+PC9nPjxnIGRhdGEtcGFydGljaXBhbnQtMj0iQ3JlZG9yYSIgZGF0YS1wYXJ0aWNpcGFudC0xPSJNb3RvckNvbmZvcm1pZGFkZSIgY2xhc3M9Im1lc3NhZ2UiPjxwb2x5Z29uIHN0eWxlPSJzdHJva2U6IzIxOTZGMztzdHJva2Utd2lkdGg6MS4wNDE3OyIgcG9pbnRzPSI4NDMuNDY1MiwyMTYuMTQ1OCw4NTMuODgxOCwyMjAuMzEyNSw4NDMuNDY1MiwyMjQuNDc5Miw4NDcuNjMxOCwyMjAuMzEyNSIgZmlsbD0iIzIxOTZGMyIvPjxsaW5lIHkyPSIyMjAuMzEyNSIgeTE9IjIyMC4zMTI1IiB4Mj0iODQ5LjcxNTIiIHgxPSIyMjQuOTU1MiIgc3R5bGU9InN0cm9rZTojMjE5NkYzO3N0cm9rZS13aWR0aDozLjEyNTsiLz48dGV4dCB5PSIyMDQuODY0NSIgeD0iMjQyLjY2MzYiIHRleHRMZW5ndGg9IjE3MC41OTMzIiBsZW5ndGhBZGp1c3Q9InNwYWNpbmciIGZvbnQtc2l6ZT0iMTIuNSIgZm9udC1mYW1pbHk9IlZlcmRhbmEiIGZpbGw9IiMyMjIyMjIiPkdFVCAvY29uc2VudHMve2NvbnNlbnRJZH08L3RleHQ+PC9nPjxnIGRhdGEtcGFydGljaXBhbnQtMj0iTW90b3JDb25mb3JtaWRhZGUiIGRhdGEtcGFydGljaXBhbnQtMT0iQ3JlZG9yYSIgY2xhc3M9Im1lc3NhZ2UiPjxwb2x5Z29uIHN0eWxlPSJzdHJva2U6IzIxOTZGMztzdHJva2Utd2lkdGg6MS4wNDE3OyIgcG9pbnRzPSIyMzYuNDEzNiwyNjYuMTEzMywyMjUuOTk2OSwyNzAuMjc5OSwyMzYuNDEzNiwyNzQuNDQ2NiwyMzIuMjQ2OSwyNzAuMjc5OSIgZmlsbD0iIzIxOTZGMyIvPjxsaW5lIHkyPSIyNzAuMjc5OSIgeTE9IjI3MC4yNzk5IiB4Mj0iODU0LjkyMzUiIHgxPSIyMzAuMTYzNiIgc3R5bGU9InN0cm9rZTojMjE5NkYzO3N0cm9rZS13aWR0aDozLjEyNTsiLz48dGV4dCB5PSIyNTQuODMxOSIgeD0iMjUzLjA4MDIiIHRleHRMZW5ndGg9IjIzLjg1ODYiIGxlbmd0aEFkanVzdD0ic3BhY2luZyIgZm9udC1zaXplPSIxMi41IiBmb250LWZhbWlseT0iVmVyZGFuYSIgZmlsbD0iIzIyMjIyMiI+MjAwPC90ZXh0PjwvZz48ZyBkYXRhLXBhcnRpY2lwYW50LTI9Ik1vdG9yQ29uZm9ybWlkYWRlIiBkYXRhLXBhcnRpY2lwYW50LTE9Ik1vdG9yQ29uZm9ybWlkYWRlIiBjbGFzcz0ibWVzc2FnZSI+PGxpbmUgeTI9IjMyMC4yNDc0IiB5MT0iMzIwLjI0NzQiIHgyPSIyNjguNzA1MiIgeDE9IjIyNC45NTUyIiBzdHlsZT0ic3Ryb2tlOiMyMTk2RjM7c3Ryb2tlLXdpZHRoOjMuMTI1OyIvPjxsaW5lIHkyPSIzMzMuNzg5MSIgeTE9IjMyMC4yNDc0IiB4Mj0iMjY4LjcwNTIiIHgxPSIyNjguNzA1MiIgc3R5bGU9InN0cm9rZTojMjE5NkYzO3N0cm9rZS13aWR0aDozLjEyNTsiLz48bGluZSB5Mj0iMzMzLjc4OTEiIHkxPSIzMzMuNzg5MSIgeDI9IjI2OC43MDUyIiB4MT0iMjI1Ljk5NjkiIHN0eWxlPSJzdHJva2U6IzIxOTZGMztzdHJva2Utd2lkdGg6My4xMjU7Ii8+PHBvbHlnb24gc3R5bGU9InN0cm9rZTojMjE5NkYzO3N0cm9rZS13aWR0aDoxLjA0MTc7IiBwb2ludHM9IjIzNi40MTM2LDMyOS42MjI0LDIyNS45OTY5LDMzMy43ODkxLDIzNi40MTM2LDMzNy45NTU3LDIzMi4yNDY5LDMzMy43ODkxIiBmaWxsPSIjMjE5NkYzIi8+PHRleHQgeT0iMzA0Ljc5OTQiIHg9IjI0Mi42NjM2IiB0ZXh0TGVuZ3RoPSI0MTIuOTgyMiIgbGVuZ3RoQWRqdXN0PSJzcGFjaW5nIiBmb250LXNpemU9IjEyLjUiIGZvbnQtZmFtaWx5PSJWZXJkYW5hIiBmaWxsPSIjMjIyMjIyIj5WYWxpZGEgc2UgbyBvYmpldG8gcGVybWlzc2lvbnMgcG9zc3VpIGEgcGVybWlzc2lvbnMgTE9BTlNfUkVBRDwvdGV4dD48L2c+PGcgZGF0YS1wYXJ0aWNpcGFudC0yPSJDcmVkb3JhIiBkYXRhLXBhcnRpY2lwYW50LTE9Ik1vdG9yQ29uZm9ybWlkYWRlIiBjbGFzcz0ibWVzc2FnZSI+PHBvbHlnb24gc3R5bGU9InN0cm9rZTojMjE5NkYzO3N0cm9rZS13aWR0aDoxLjA0MTc7IiBwb2ludHM9Ijg0My40NjUyLDM3OS41ODk4LDg1My44ODE4LDM4My43NTY1LDg0My40NjUyLDM4Ny45MjMyLDg0Ny42MzE4LDM4My43NTY1IiBmaWxsPSIjMjE5NkYzIi8+PGxpbmUgeTI9IjM4My43NTY1IiB5MT0iMzgzLjc1NjUiIHgyPSI4NDkuNzE1MiIgeDE9IjIyNC45NTUyIiBzdHlsZT0ic3Ryb2tlOiMyMTk2RjM7c3Ryb2tlLXdpZHRoOjMuMTI1OyIvPjx0ZXh0IHk9IjM2OC4zMDg1IiB4PSIyNDIuNjYzNiIgdGV4dExlbmd0aD0iMTgyLjg2NzQiIGxlbmd0aEFkanVzdD0ic3BhY2luZyIgZm9udC1zaXplPSIxMi41IiBmb250LWZhbWlseT0iVmVyZGFuYSIgZmlsbD0iIzIyMjIyMiI+R0VUIExvYW5zIENvbnRyYWN0cyBBUEkgLSBWMjwvdGV4dD48L2c+PGcgZGF0YS1wYXJ0aWNpcGFudC0yPSJNb3RvckNvbmZvcm1pZGFkZSIgZGF0YS1wYXJ0aWNpcGFudC0xPSJDcmVkb3JhIiBjbGFzcz0ibWVzc2FnZSI+PHBvbHlnb24gc3R5bGU9InN0cm9rZTojMjE5NkYzO3N0cm9rZS13aWR0aDoxLjA0MTc7IiBwb2ludHM9IjIzNi40MTM2LDQyOS41NTczLDIyNS45OTY5LDQzMy43MjQsMjM2LjQxMzYsNDM3Ljg5MDYsMjMyLjI0NjksNDMzLjcyNCIgZmlsbD0iIzIxOTZGMyIvPjxsaW5lIHkyPSI0MzMuNzI0IiB5MT0iNDMzLjcyNCIgeDI9Ijg1NC45MjM1IiB4MT0iMjMwLjE2MzYiIHN0eWxlPSJzdHJva2U6IzIxOTZGMztzdHJva2Utd2lkdGg6My4xMjU7Ii8+PHRleHQgeT0iNDE4LjI3NiIgeD0iMjUzLjA4MDIiIHRleHRMZW5ndGg9IjIzLjg1ODYiIGxlbmd0aEFkanVzdD0ic3BhY2luZyIgZm9udC1zaXplPSIxMi41IiBmb250LWZhbWlseT0iVmVyZGFuYSIgZmlsbD0iIzIyMjIyMiI+MjAwPC90ZXh0PjwvZz48ZyBkYXRhLXBhcnRpY2lwYW50LTI9Ik1vdG9yQ29uZm9ybWlkYWRlIiBkYXRhLXBhcnRpY2lwYW50LTE9Ik1vdG9yQ29uZm9ybWlkYWRlIiBjbGFzcz0ibWVzc2FnZSI+PGxpbmUgeTI9IjQ4My42OTE0IiB5MT0iNDgzLjY5MTQiIHgyPSIyNjguNzA1MiIgeDE9IjIyNC45NTUyIiBzdHlsZT0ic3Ryb2tlOiMyMTk2RjM7c3Ryb2tlLXdpZHRoOjMuMTI1OyIvPjxsaW5lIHkyPSI0OTcuMjMzMSIgeTE9IjQ4My42OTE0IiB4Mj0iMjY4LjcwNTIiIHgxPSIyNjguNzA1MiIgc3R5bGU9InN0cm9rZTojMjE5NkYzO3N0cm9rZS13aWR0aDozLjEyNTsiLz48bGluZSB5Mj0iNDk3LjIzMzEiIHkxPSI0OTcuMjMzMSIgeDI9IjI2OC43MDUyIiB4MT0iMjI1Ljk5NjkiIHN0eWxlPSJzdHJva2U6IzIxOTZGMztzdHJva2Utd2lkdGg6My4xMjU7Ii8+PHBvbHlnb24gc3R5bGU9InN0cm9rZTojMjE5NkYzO3N0cm9rZS13aWR0aDoxLjA0MTc7IiBwb2ludHM9IjIzNi40MTM2LDQ5My4wNjY0LDIyNS45OTY5LDQ5Ny4yMzMxLDIzNi40MTM2LDUwMS4zOTk3LDIzMi4yNDY5LDQ5Ny4yMzMxIiBmaWxsPSIjMjE5NkYzIi8+PHRleHQgeT0iNDY4LjI0MzQiIHg9IjI0Mi42NjM2IiB0ZXh0TGVuZ3RoPSIyODYuMzIyIiBsZW5ndGhBZGp1c3Q9InNwYWNpbmciIGZvbnQtc2l6ZT0iMTIuNSIgZm9udC1mYW1pbHk9IlZlcmRhbmEiIGZpbGw9IiMyMjIyMjIiPlZhbGlkYSByZXRvcm5vIGRlIGFjb3JkbyBjb20gYSBlc3BlY2lmaWNhw6fDo288L3RleHQ+PC9nPjxwYXRoIHN0eWxlPSJzdHJva2U6IzY2NjY2NjtzdHJva2Utd2lkdGg6MS4wNDE3OyIgZmlsbD0iI0ZGRkZGRiIgZD0iTTk1LjUzMDIsNTEyLjg1ODEgTDE4OS40Nzk2LDUxMi44NTgxIEwxODkuNDc5Niw1MzkuOTA4OSBMMTc5LjA2MjksNTUwLjMyNTUgTDkxLjM2MzUsNTUwLjMyNTUgTDkxLjM2MzUsNTE3LjAyNDcgQTQuMTY2Nyw0LjE2NjcgMCAwIDEgOTUuNTMwMiw1MTIuODU4MSIvPjxyZWN0IHk9IjUxMi44NTgxIiB4PSI5MS4zNjM1IiB3aWR0aD0iODYwLjkyNTMiIHN0eWxlPSJzdHJva2U6IzIxOTZGMztzdHJva2Utd2lkdGg6MS4wNDE3OyIgcnk9IjQuMTY2NyIgcng9IjQuMTY2NyIgaGVpZ2h0PSIyMjAuNjcwNiIgZmlsbD0ibm9uZSIvPjx0ZXh0IHk9IjUzNS45MTkyIiB4PSIxMTcuNDA1MiIgdGV4dExlbmd0aD0iMzAuNDA3NyIgbGVuZ3RoQWRqdXN0PSJzcGFjaW5nIiBmb250LXdlaWdodD0iYm9sZCIgZm9udC1zaXplPSIxMi41IiBmb250LWZhbWlseT0iVmVyZGFuYSIgZmlsbD0iIzlDMjdCMCI+bG9vcDwvdGV4dD48dGV4dCB5PSI1MzYuOTYwOSIgeD0iMjE1LjUyMTIiIHRleHRMZW5ndGg9IjMxOS44MDU5IiBsZW5ndGhBZGp1c3Q9InNwYWNpbmciIGZvbnQtd2VpZ2h0PSJib2xkIiBmb250LXNpemU9IjEyLjUiIGZvbnQtZmFtaWx5PSJWZXJkYW5hIiBmaWxsPSIjMjIyMjIyIj5bUGFyYSBjYWRhIGNvbnRyYXRvIGRvIHRpcG8gQ1BDIGlkZW50aWZpY2Fkb108L3RleHQ+PGcgZGF0YS1wYXJ0aWNpcGFudC0yPSJDcmVkb3JhIiBkYXRhLXBhcnRpY2lwYW50LTE9Ik1vdG9yQ29uZm9ybWlkYWRlIiBjbGFzcz0ibWVzc2FnZSI+PHBvbHlnb24gc3R5bGU9InN0cm9rZTojMjE5NkYzO3N0cm9rZS13aWR0aDoxLjA0MTc7IiBwb2ludHM9Ijg0My40NjUyLDYwNy41NTIxLDg1My44ODE4LDYxMS43MTg4LDg0My40NjUyLDYxNS44ODU0LDg0Ny42MzE4LDYxMS43MTg4IiBmaWxsPSIjMjE5NkYzIi8+PGxpbmUgeTI9IjYxMS43MTg4IiB5MT0iNjExLjcxODgiIHgyPSI4NDkuNzE1MiIgeDE9IjIyNC45NTUyIiBzdHlsZT0ic3Ryb2tlOiMyMTk2RjM7c3Ryb2tlLXdpZHRoOjMuMTI1OyIvPjx0ZXh0IHk9IjU5Ni4yNzA4IiB4PSIyNDIuNjYzNiIgdGV4dExlbmd0aD0iMTg5LjY3OSIgbGVuZ3RoQWRqdXN0PSJzcGFjaW5nIiBmb250LXNpemU9IjEyLjUiIGZvbnQtZmFtaWx5PSJWZXJkYW5hIiBmaWxsPSIjMjIyMjIyIj5HRVQgL2NvbmN1cnJlbnQtbWFuYWdlbWVudDwvdGV4dD48L2c+PGcgZGF0YS1wYXJ0aWNpcGFudC0yPSJNb3RvckNvbmZvcm1pZGFkZSIgZGF0YS1wYXJ0aWNpcGFudC0xPSJDcmVkb3JhIiBjbGFzcz0ibWVzc2FnZSI+PHBvbHlnb24gc3R5bGU9InN0cm9rZTojMjE5NkYzO3N0cm9rZS13aWR0aDoxLjA0MTc7IiBwb2ludHM9IjIzNi40MTM2LDY1Ny41MTk1LDIyNS45OTY5LDY2MS42ODYyLDIzNi40MTM2LDY2NS44NTI5LDIzMi4yNDY5LDY2MS42ODYyIiBmaWxsPSIjMjE5NkYzIi8+PGxpbmUgeTI9IjY2MS42ODYyIiB5MT0iNjYxLjY4NjIiIHgyPSI4NTQuOTIzNSIgeDE9IjIzMC4xNjM2IiBzdHlsZT0ic3Ryb2tlOiMyMTk2RjM7c3Ryb2tlLXdpZHRoOjMuMTI1OyIvPjx0ZXh0IHk9IjY0Ni4yMzgyIiB4PSIyNTMuMDgwMiIgdGV4dExlbmd0aD0iMjMuODU4NiIgbGVuZ3RoQWRqdXN0PSJzcGFjaW5nIiBmb250LXNpemU9IjEyLjUiIGZvbnQtZmFtaWx5PSJWZXJkYW5hIiBmaWxsPSIjMjIyMjIyIj4yMDA8L3RleHQ+PC9nPjxnIGRhdGEtcGFydGljaXBhbnQtMj0iTW90b3JDb25mb3JtaWRhZGUiIGRhdGEtcGFydGljaXBhbnQtMT0iTW90b3JDb25mb3JtaWRhZGUiIGNsYXNzPSJtZXNzYWdlIj48bGluZSB5Mj0iNzExLjY1MzYiIHkxPSI3MTEuNjUzNiIgeDI9IjI2OC43MDUyIiB4MT0iMjI0Ljk1NTIiIHN0eWxlPSJzdHJva2U6IzIxOTZGMztzdHJva2Utd2lkdGg6My4xMjU7Ii8+PGxpbmUgeTI9IjcyNS4xOTUzIiB5MT0iNzExLjY1MzYiIHgyPSIyNjguNzA1MiIgeDE9IjI2OC43MDUyIiBzdHlsZT0ic3Ryb2tlOiMyMTk2RjM7c3Ryb2tlLXdpZHRoOjMuMTI1OyIvPjxsaW5lIHkyPSI3MjUuMTk1MyIgeTE9IjcyNS4xOTUzIiB4Mj0iMjY4LjcwNTIiIHgxPSIyMjUuOTk2OSIgc3R5bGU9InN0cm9rZTojMjE5NkYzO3N0cm9rZS13aWR0aDozLjEyNTsiLz48cG9seWdvbiBzdHlsZT0ic3Ryb2tlOiMyMTk2RjM7c3Ryb2tlLXdpZHRoOjEuMDQxNzsiIHBvaW50cz0iMjM2LjQxMzYsNzIxLjAyODYsMjI1Ljk5NjksNzI1LjE5NTMsMjM2LjQxMzYsNzI5LjM2MiwyMzIuMjQ2OSw3MjUuMTk1MyIgZmlsbD0iIzIxOTZGMyIvPjx0ZXh0IHk9IjY5Ni4yMDU2IiB4PSIyNDIuNjYzNiIgdGV4dExlbmd0aD0iMjk0LjgzMDMiIGxlbmd0aEFkanVzdD0ic3BhY2luZyIgZm9udC1zaXplPSIxMi41IiBmb250LWZhbWlseT0iVmVyZGFuYSIgZmlsbD0iIzIyMjIyMiI+VmVyaWZpY2EgcmV0b3JubyBkZSBhY29yZG8gY29tIGEgZXNwZWNpZmljYcOnw6NvPC90ZXh0PjwvZz48ZyBkYXRhLXBhcnRpY2lwYW50LTI9Ik1vdG9yQ29uZm9ybWlkYWRlIiBkYXRhLXBhcnRpY2lwYW50LTE9Ik1vdG9yQ29uZm9ybWlkYWRlIiBjbGFzcz0ibWVzc2FnZSI+PGxpbmUgeTI9Ijc4Mi40NTQ0IiB5MT0iNzgyLjQ1NDQiIHgyPSIyNjguNzA1MiIgeDE9IjIyNC45NTUyIiBzdHlsZT0ic3Ryb2tlOiMyMTk2RjM7c3Ryb2tlLXdpZHRoOjMuMTI1OyIvPjxsaW5lIHkyPSI3OTUuOTk2MSIgeTE9Ijc4Mi40NTQ0IiB4Mj0iMjY4LjcwNTIiIHgxPSIyNjguNzA1MiIgc3R5bGU9InN0cm9rZTojMjE5NkYzO3N0cm9rZS13aWR0aDozLjEyNTsiLz48bGluZSB5Mj0iNzk1Ljk5NjEiIHkxPSI3OTUuOTk2MSIgeDI9IjI2OC43MDUyIiB4MT0iMjI1Ljk5NjkiIHN0eWxlPSJzdHJva2U6IzIxOTZGMztzdHJva2Utd2lkdGg6My4xMjU7Ii8+PHBvbHlnb24gc3R5bGU9InN0cm9rZTojMjE5NkYzO3N0cm9rZS13aWR0aDoxLjA0MTc7IiBwb2ludHM9IjIzNi40MTM2LDc5MS44Mjk0LDIyNS45OTY5LDc5NS45OTYxLDIzNi40MTM2LDgwMC4xNjI4LDIzMi4yNDY5LDc5NS45OTYxIiBmaWxsPSIjMjE5NkYzIi8+PHRleHQgeT0iNzY3LjAwNjQiIHg9IjI0Mi42NjM2IiB0ZXh0TGVuZ3RoPSIzNTMuMzc1MiIgbGVuZ3RoQWRqdXN0PSJzcGFjaW5nIiBmb250LXNpemU9IjEyLjUiIGZvbnQtZmFtaWx5PSJWZXJkYW5hIiBmaWxsPSIjMjIyMjIyIj5TZWxlY2lvbmEgdW0gY29udHJhdG8gY29tIHNpdHVhw6fDo28gaWd1YWwgIkRJU1BPTklWRUwiPC90ZXh0PjwvZz48ZyBkYXRhLXBhcnRpY2lwYW50LTI9IkNyZWRvcmEiIGRhdGEtcGFydGljaXBhbnQtMT0iTW90b3JDb25mb3JtaWRhZGUiIGNsYXNzPSJtZXNzYWdlIj48cG9seWdvbiBzdHlsZT0ic3Ryb2tlOiMyMTk2RjM7c3Ryb2tlLXdpZHRoOjEuMDQxNzsiIHBvaW50cz0iODQzLjQ2NTIsODQxLjc5NjksODUzLjg4MTgsODQ1Ljk2MzUsODQzLjQ2NTIsODUwLjEzMDIsODQ3LjYzMTgsODQ1Ljk2MzUiIGZpbGw9IiMyMTk2RjMiLz48bGluZSB5Mj0iODQ1Ljk2MzUiIHkxPSI4NDUuOTYzNSIgeDI9Ijg0OS43MTUyIiB4MT0iMjI0Ljk1NTIiIHN0eWxlPSJzdHJva2U6IzIxOTZGMztzdHJva2Utd2lkdGg6My4xMjU7Ii8+PHRleHQgeT0iODMwLjUxNTUiIHg9IjI0Mi42NjM2IiB0ZXh0TGVuZ3RoPSIzNDkuMDM1NiIgbGVuZ3RoQWRqdXN0PSJzcGFjaW5nIiBmb250LXNpemU9IjEyLjUiIGZvbnQtZmFtaWx5PSJWZXJkYW5hIiBmaWxsPSIjMjIyMjIyIj5QT1NUIC9wb3J0YWJpbGl0aWVzIChjb20gYSBwcm9wb3N0YSBvZmVydGFkYSBhbyBjbGllbnRlKTwvdGV4dD48L2c+PGcgZGF0YS1wYXJ0aWNpcGFudC0yPSJNb3RvckNvbmZvcm1pZGFkZSIgZGF0YS1wYXJ0aWNpcGFudC0xPSJDcmVkb3JhIiBjbGFzcz0ibWVzc2FnZSI+PHBvbHlnb24gc3R5bGU9InN0cm9rZTojMjE5NkYzO3N0cm9rZS13aWR0aDoxLjA0MTc7IiBwb2ludHM9IjIzNi40MTM2LDg5MS43NjQzLDIyNS45OTY5LDg5NS45MzEsMjM2LjQxMzYsOTAwLjA5NzcsMjMyLjI0NjksODk1LjkzMSIgZmlsbD0iIzIxOTZGMyIvPjxsaW5lIHkyPSI4OTUuOTMxIiB5MT0iODk1LjkzMSIgeDI9Ijg1NC45MjM1IiB4MT0iMjMwLjE2MzYiIHN0eWxlPSJzdHJva2U6IzIxOTZGMztzdHJva2Utd2lkdGg6My4xMjU7Ii8+PHRleHQgeT0iODgwLjQ4MyIgeD0iMjUzLjA4MDIiIHRleHRMZW5ndGg9IjIzLjg1ODYiIGxlbmd0aEFkanVzdD0ic3BhY2luZyIgZm9udC1zaXplPSIxMi41IiBmb250LWZhbWlseT0iVmVyZGFuYSIgZmlsbD0iIzIyMjIyMiI+MjAyPC90ZXh0PjwvZz48ZyBkYXRhLXBhcnRpY2lwYW50LTI9Ik1vdG9yQ29uZm9ybWlkYWRlIiBkYXRhLXBhcnRpY2lwYW50LTE9Ik1vdG9yQ29uZm9ybWlkYWRlIiBjbGFzcz0ibWVzc2FnZSI+PGxpbmUgeTI9Ijk0NS44OTg0IiB5MT0iOTQ1Ljg5ODQiIHgyPSIyNjguNzA1MiIgeDE9IjIyNC45NTUyIiBzdHlsZT0ic3Ryb2tlOiMyMTk2RjM7c3Ryb2tlLXdpZHRoOjMuMTI1OyIvPjxsaW5lIHkyPSI5NTkuNDQwMSIgeTE9Ijk0NS44OTg0IiB4Mj0iMjY4LjcwNTIiIHgxPSIyNjguNzA1MiIgc3R5bGU9InN0cm9rZTojMjE5NkYzO3N0cm9rZS13aWR0aDozLjEyNTsiLz48bGluZSB5Mj0iOTU5LjQ0MDEiIHkxPSI5NTkuNDQwMSIgeDI9IjI2OC43MDUyIiB4MT0iMjI1Ljk5NjkiIHN0eWxlPSJzdHJva2U6IzIxOTZGMztzdHJva2Utd2lkdGg6My4xMjU7Ii8+PHBvbHlnb24gc3R5bGU9InN0cm9rZTojMjE5NkYzO3N0cm9rZS13aWR0aDoxLjA0MTc7IiBwb2ludHM9IjIzNi40MTM2LDk1NS4yNzM0LDIyNS45OTY5LDk1OS40NDAxLDIzNi40MTM2LDk2My42MDY4LDIzMi4yNDY5LDk1OS40NDAxIiBmaWxsPSIjMjE5NkYzIi8+PHRleHQgeT0iOTMwLjQ1MDQiIHg9IjI0Mi42NjM2IiB0ZXh0TGVuZ3RoPSIyODYuMzIyIiBsZW5ndGhBZGp1c3Q9InNwYWNpbmciIGZvbnQtc2l6ZT0iMTIuNSIgZm9udC1mYW1pbHk9IlZlcmRhbmEiIGZpbGw9IiMyMjIyMjIiPlZhbGlkYSByZXRvcm5vIGRlIGFjb3JkbyBjb20gYSBlc3BlY2lmaWNhw6fDo288L3RleHQ+PC9nPjxwYXRoIHN0eWxlPSJzdHJva2U6IzY2NjY2NjtzdHJva2Utd2lkdGg6MS4wNDE3OyIgZmlsbD0iI0ZGRkZGRiIgZD0iTTk1LjUzMDIsOTc1LjA2NTEgTDE4OS40Nzk2LDk3NS4wNjUxIEwxODkuNDc5NiwxMDAyLjExNTkgTDE3OS4wNjI5LDEwMTIuNTMyNiBMOTEuMzYzNSwxMDEyLjUzMjYgTDkxLjM2MzUsOTc5LjIzMTggQTQuMTY2Nyw0LjE2NjcgMCAwIDEgOTUuNTMwMiw5NzUuMDY1MSIvPjxyZWN0IHk9Ijk3NS4wNjUxIiB4PSI5MS4zNjM1IiB3aWR0aD0iODYwLjkyNTMiIHN0eWxlPSJzdHJva2U6IzIxOTZGMztzdHJva2Utd2lkdGg6MS4wNDE3OyIgcnk9IjQuMTY2NyIgcng9IjQuMTY2NyIgaGVpZ2h0PSIyMjAuNjcwNiIgZmlsbD0ibm9uZSIvPjx0ZXh0IHk9Ijk5OC4xMjYyIiB4PSIxMTcuNDA1MiIgdGV4dExlbmd0aD0iMzAuNDA3NyIgbGVuZ3RoQWRqdXN0PSJzcGFjaW5nIiBmb250LXdlaWdodD0iYm9sZCIgZm9udC1zaXplPSIxMi41IiBmb250LWZhbWlseT0iVmVyZGFuYSIgZmlsbD0iIzlDMjdCMCI+bG9vcDwvdGV4dD48dGV4dCB5PSI5OTkuMTY3OSIgeD0iMjE1LjUyMTIiIHRleHRMZW5ndGg9IjQ0MS41MTYxIiBsZW5ndGhBZGp1c3Q9InNwYWNpbmciIGZvbnQtd2VpZ2h0PSJib2xkIiBmb250LXNpemU9IjEyLjUiIGZvbnQtZmFtaWx5PSJWZXJkYW5hIiBmaWxsPSIjMjIyMjIyIj5bQ2hhbWFkYXMgZGUgcG9sbGluZyBjb25mb3JtZSByZWNvbWVuZGHDp8OjbyBkbyBDb25mbHVlbmNlXTwvdGV4dD48ZyBkYXRhLXBhcnRpY2lwYW50LTI9IkNyZWRvcmEiIGRhdGEtcGFydGljaXBhbnQtMT0iTW90b3JDb25mb3JtaWRhZGUiIGNsYXNzPSJtZXNzYWdlIj48cG9seWdvbiBzdHlsZT0ic3Ryb2tlOiMyMTk2RjM7c3Ryb2tlLXdpZHRoOjEuMDQxNzsiIHBvaW50cz0iODQzLjQ2NTIsMTA2OS43NTkxLDg1My44ODE4LDEwNzMuOTI1OCw4NDMuNDY1MiwxMDc4LjA5MjQsODQ3LjYzMTgsMTA3My45MjU4IiBmaWxsPSIjMjE5NkYzIi8+PGxpbmUgeTI9IjEwNzMuOTI1OCIgeTE9IjEwNzMuOTI1OCIgeDI9Ijg0OS43MTUyIiB4MT0iMjI0Ljk1NTIiIHN0eWxlPSJzdHJva2U6IzIxOTZGMztzdHJva2Utd2lkdGg6My4xMjU7Ii8+PHRleHQgeT0iMTA1OC40Nzc4IiB4PSIyNDIuNjYzNiIgdGV4dExlbmd0aD0iMjAzLjI4OTgiIGxlbmd0aEFkanVzdD0ic3BhY2luZyIgZm9udC1zaXplPSIxMi41IiBmb250LWZhbWlseT0iVmVyZGFuYSIgZmlsbD0iIzIyMjIyMiI+R0VUIC9wb3J0YWJpbGl0aWVzL3twb3J0YWJpbGl0eUlkfTwvdGV4dD48L2c+PGcgZGF0YS1wYXJ0aWNpcGFudC0yPSJNb3RvckNvbmZvcm1pZGFkZSIgZGF0YS1wYXJ0aWNpcGFudC0xPSJDcmVkb3JhIiBjbGFzcz0ibWVzc2FnZSI+PHBvbHlnb24gc3R5bGU9InN0cm9rZTojMjE5NkYzO3N0cm9rZS13aWR0aDoxLjA0MTc7IiBwb2ludHM9IjIzNi40MTM2LDExMTkuNzI2NiwyMjUuOTk2OSwxMTIzLjg5MzIsMjM2LjQxMzYsMTEyOC4wNTk5LDIzMi4yNDY5LDExMjMuODkzMiIgZmlsbD0iIzIxOTZGMyIvPjxsaW5lIHkyPSIxMTIzLjg5MzIiIHkxPSIxMTIzLjg5MzIiIHgyPSI4NTQuOTIzNSIgeDE9IjIzMC4xNjM2IiBzdHlsZT0ic3Ryb2tlOiMyMTk2RjM7c3Ryb2tlLXdpZHRoOjMuMTI1OyIvPjx0ZXh0IHk9IjExMDguNDQ1MiIgeD0iMjUzLjA4MDIiIHRleHRMZW5ndGg9IjIzLjg1ODYiIGxlbmd0aEFkanVzdD0ic3BhY2luZyIgZm9udC1zaXplPSIxMi41IiBmb250LWZhbWlseT0iVmVyZGFuYSIgZmlsbD0iIzIyMjIyMiI+MjAwPC90ZXh0PjwvZz48ZyBkYXRhLXBhcnRpY2lwYW50LTI9Ik1vdG9yQ29uZm9ybWlkYWRlIiBkYXRhLXBhcnRpY2lwYW50LTE9Ik1vdG9yQ29uZm9ybWlkYWRlIiBjbGFzcz0ibWVzc2FnZSI+PGxpbmUgeTI9IjExNzMuODYwNyIgeTE9IjExNzMuODYwNyIgeDI9IjI2OC43MDUyIiB4MT0iMjI0Ljk1NTIiIHN0eWxlPSJzdHJva2U6IzIxOTZGMztzdHJva2Utd2lkdGg6My4xMjU7Ii8+PGxpbmUgeTI9IjExODcuNDAyMyIgeTE9IjExNzMuODYwNyIgeDI9IjI2OC43MDUyIiB4MT0iMjY4LjcwNTIiIHN0eWxlPSJzdHJva2U6IzIxOTZGMztzdHJva2Utd2lkdGg6My4xMjU7Ii8+PGxpbmUgeTI9IjExODcuNDAyMyIgeTE9IjExODcuNDAyMyIgeDI9IjI2OC43MDUyIiB4MT0iMjI1Ljk5NjkiIHN0eWxlPSJzdHJva2U6IzIxOTZGMztzdHJva2Utd2lkdGg6My4xMjU7Ii8+PHBvbHlnb24gc3R5bGU9InN0cm9rZTojMjE5NkYzO3N0cm9rZS13aWR0aDoxLjA0MTc7IiBwb2ludHM9IjIzNi40MTM2LDExODMuMjM1NywyMjUuOTk2OSwxMTg3LjQwMjMsMjM2LjQxMzYsMTE5MS41NjksMjMyLjI0NjksMTE4Ny40MDIzIiBmaWxsPSIjMjE5NkYzIi8+PHRleHQgeT0iMTE1OC40MTI3IiB4PSIyNDIuNjYzNiIgdGV4dExlbmd0aD0iNTk1LjU5MzMiIGxlbmd0aEFkanVzdD0ic3BhY2luZyIgZm9udC1zaXplPSIxMi41IiBmb250LWZhbWlseT0iVmVyZGFuYSIgZmlsbD0iIzIyMjIyMiI+VmFsaWRhIHNlIG8gY2FtcG8gc3RhdHVzIMOpIGlndWFsICJSRUpFQ1RFRCIgZSBvIHJlYXNvblR5cGUgw6kgaWd1YWwgIlJFVEVOQ0FPX0RPX0NMSUVOVEUiPC90ZXh0PjwvZz48L2c+PC9zdmc+;" vertex="1" parent="1">
                    <mxGeometry width="968" height="1200" as="geometry"/>
                </mxCell>
            </root>
        </mxGraphModel>
    </diagram>
    <diagram id="5aUrD6rtAcTiGhWPdY-T" name="Página-8">
        <mxGraphModel grid="1" page="1" gridSize="10" guides="1" tooltips="1" connect="1" arrows="1" fold="1" pageScale="1" pageWidth="827" pageHeight="1169" math="0" shadow="0">
            <root>
                <mxCell id="0"/>
                <mxCell id="1" parent="0"/>
            </root>
        </mxGraphModel>
    </diagram>
</mxfile>
